<?xml version="1.0" encoding="utf-8" standalone="no"?>
<!DOCTYPE svg PUBLIC "-//W3C//DTD SVG 1.1//EN"
  "http://www.w3.org/Graphics/SVG/1.1/DTD/svg11.dtd">
<svg xmlns:xlink="http://www.w3.org/1999/xlink" width="460.8pt" height="345.6pt" viewBox="0 0 460.8 345.6" xmlns="http://www.w3.org/2000/svg" version="1.1">
 <metadata>
  <rdf:RDF xmlns:dc="http://purl.org/dc/elements/1.1/" xmlns:cc="http://creativecommons.org/ns#" xmlns:rdf="http://www.w3.org/1999/02/22-rdf-syntax-ns#">
   <cc:Work>
    <dc:type rdf:resource="http://purl.org/dc/dcmitype/StillImage"/>
    <dc:date>2025-09-24T17:46:18.394686</dc:date>
    <dc:format>image/svg+xml</dc:format>
    <dc:creator>
     <cc:Agent>
      <dc:title>Matplotlib v3.10.3, https://matplotlib.org/</dc:title>
     </cc:Agent>
    </dc:creator>
   </cc:Work>
  </rdf:RDF>
 </metadata>
 <defs>
  <style type="text/css">*{stroke-linejoin: round; stroke-linecap: butt}</style>
 </defs>
 <g id="figure_1">
  <g id="patch_1">
   <path d="M 0 345.6 
L 460.8 345.6 
L 460.8 0 
L 0 0 
z
" style="fill: #ffffff"/>
  </g>
  <g id="axes_1">
   <g id="patch_2">
    <path d="M 22.730319 150.151239 
L 457.79976 150.151239 
L 457.79976 18.941604 
L 22.730319 18.941604 
z
" style="fill: #ffffff"/>
   </g>
   <g id="matplotlib.axis_1">
    <g id="xtick_1">
     <g id="line2d_1">
      <path d="M 42.506203 150.151239 
L 42.506203 18.941604 
" clip-path="url(#pb16425b9ea)" style="fill: none; stroke: #b0b0b0; stroke-opacity: 0.2; stroke-width: 0.8; stroke-linecap: square"/>
     </g>
     <g id="line2d_2">
      <defs>
       <path id="m24669efeeb" d="M 0 0 
L 0 3.5 
" style="stroke: #000000; stroke-width: 0.8"/>
      </defs>
      <g>
       <use xlink:href="#m24669efeeb" x="42.506203" y="150.151239" style="stroke: #000000; stroke-width: 0.8"/>
      </g>
     </g>
    </g>
    <g id="xtick_2">
     <g id="line2d_3">
      <path d="M 121.617649 150.151239 
L 121.617649 18.941604 
" clip-path="url(#pb16425b9ea)" style="fill: none; stroke: #b0b0b0; stroke-opacity: 0.2; stroke-width: 0.8; stroke-linecap: square"/>
     </g>
     <g id="line2d_4">
      <g>
       <use xlink:href="#m24669efeeb" x="121.617649" y="150.151239" style="stroke: #000000; stroke-width: 0.8"/>
      </g>
     </g>
    </g>
    <g id="xtick_3">
     <g id="line2d_5">
      <path d="M 200.729094 150.151239 
L 200.729094 18.941604 
" clip-path="url(#pb16425b9ea)" style="fill: none; stroke: #b0b0b0; stroke-opacity: 0.2; stroke-width: 0.8; stroke-linecap: square"/>
     </g>
     <g id="line2d_6">
      <g>
       <use xlink:href="#m24669efeeb" x="200.729094" y="150.151239" style="stroke: #000000; stroke-width: 0.8"/>
      </g>
     </g>
    </g>
    <g id="xtick_4">
     <g id="line2d_7">
      <path d="M 279.84054 150.151239 
L 279.84054 18.941604 
" clip-path="url(#pb16425b9ea)" style="fill: none; stroke: #b0b0b0; stroke-opacity: 0.2; stroke-width: 0.8; stroke-linecap: square"/>
     </g>
     <g id="line2d_8">
      <g>
       <use xlink:href="#m24669efeeb" x="279.84054" y="150.151239" style="stroke: #000000; stroke-width: 0.8"/>
      </g>
     </g>
    </g>
    <g id="xtick_5">
     <g id="line2d_9">
      <path d="M 358.951986 150.151239 
L 358.951986 18.941604 
" clip-path="url(#pb16425b9ea)" style="fill: none; stroke: #b0b0b0; stroke-opacity: 0.2; stroke-width: 0.8; stroke-linecap: square"/>
     </g>
     <g id="line2d_10">
      <g>
       <use xlink:href="#m24669efeeb" x="358.951986" y="150.151239" style="stroke: #000000; stroke-width: 0.8"/>
      </g>
     </g>
    </g>
    <g id="xtick_6">
     <g id="line2d_11">
      <path d="M 438.063432 150.151239 
L 438.063432 18.941604 
" clip-path="url(#pb16425b9ea)" style="fill: none; stroke: #b0b0b0; stroke-opacity: 0.2; stroke-width: 0.8; stroke-linecap: square"/>
     </g>
     <g id="line2d_12">
      <g>
       <use xlink:href="#m24669efeeb" x="438.063432" y="150.151239" style="stroke: #000000; stroke-width: 0.8"/>
      </g>
     </g>
    </g>
   </g>
   <g id="matplotlib.axis_2">
    <g id="ytick_1">
     <g id="line2d_13">
      <path d="M 22.730319 144.376461 
L 457.79976 144.376461 
" clip-path="url(#pb16425b9ea)" style="fill: none; stroke: #b0b0b0; stroke-opacity: 0.2; stroke-width: 0.8; stroke-linecap: square"/>
     </g>
     <g id="line2d_14">
      <defs>
       <path id="m85b40e7b2f" d="M 0 0 
L -3.5 0 
" style="stroke: #000000; stroke-width: 0.8"/>
      </defs>
      <g>
       <use xlink:href="#m85b40e7b2f" x="22.730319" y="144.376461" style="stroke: #000000; stroke-width: 0.8"/>
      </g>
     </g>
     <g id="text_1">
      <!-- $\mathdefault{0.0}$ -->
      <g transform="translate(3.00024 147.83571) scale(0.1 -0.1)">
       <defs>
        <path id="CMR17-30" d="M 2688 2025 
C 2688 2416 2682 3080 2413 3591 
C 2176 4039 1798 4198 1466 4198 
C 1158 4198 768 4058 525 3597 
C 269 3118 243 2524 243 2025 
C 243 1661 250 1106 448 619 
C 723 -39 1216 -128 1466 -128 
C 1760 -128 2208 -7 2470 600 
C 2662 1042 2688 1559 2688 2025 
z
M 1466 -26 
C 1056 -26 813 325 723 812 
C 653 1188 653 1738 653 2096 
C 653 2588 653 2997 736 3387 
C 858 3929 1216 4096 1466 4096 
C 1728 4096 2067 3923 2189 3400 
C 2272 3036 2278 2607 2278 2096 
C 2278 1680 2278 1169 2202 792 
C 2067 95 1690 -26 1466 -26 
z
" transform="scale(0.015625)"/>
        <path id="CMMI12-3a" d="M 1178 307 
C 1178 492 1024 619 870 619 
C 685 619 557 466 557 313 
C 557 128 710 0 864 0 
C 1050 0 1178 153 1178 307 
z
" transform="scale(0.015625)"/>
       </defs>
       <use xlink:href="#CMR17-30" transform="scale(0.996264)"/>
       <use xlink:href="#CMMI12-3a" transform="translate(45.690477 0) scale(0.996264)"/>
       <use xlink:href="#CMR17-30" transform="translate(72.787654 0) scale(0.996264)"/>
      </g>
     </g>
    </g>
    <g id="ytick_2">
     <g id="line2d_15">
      <path d="M 22.730319 120.482305 
L 457.79976 120.482305 
" clip-path="url(#pb16425b9ea)" style="fill: none; stroke: #b0b0b0; stroke-opacity: 0.2; stroke-width: 0.8; stroke-linecap: square"/>
     </g>
     <g id="line2d_16">
      <g>
       <use xlink:href="#m85b40e7b2f" x="22.730319" y="120.482305" style="stroke: #000000; stroke-width: 0.8"/>
      </g>
     </g>
     <g id="text_2">
      <!-- $\mathdefault{0.1}$ -->
      <g transform="translate(3.00024 123.941554) scale(0.1 -0.1)">
       <defs>
        <path id="CMR17-31" d="M 1702 4058 
C 1702 4192 1696 4192 1606 4192 
C 1357 3916 979 3827 621 3827 
C 602 3827 570 3827 563 3808 
C 557 3795 557 3782 557 3648 
C 755 3648 1088 3686 1344 3839 
L 1344 461 
C 1344 236 1331 160 781 160 
L 589 160 
L 589 0 
C 896 0 1216 0 1523 0 
C 1830 0 2150 0 2458 0 
L 2458 160 
L 2266 160 
C 1715 160 1702 230 1702 458 
L 1702 4058 
z
" transform="scale(0.015625)"/>
       </defs>
       <use xlink:href="#CMR17-30" transform="scale(0.996264)"/>
       <use xlink:href="#CMMI12-3a" transform="translate(45.690477 0) scale(0.996264)"/>
       <use xlink:href="#CMR17-31" transform="translate(72.787654 0) scale(0.996264)"/>
      </g>
     </g>
    </g>
    <g id="ytick_3">
     <g id="line2d_17">
      <path d="M 22.730319 96.588148 
L 457.79976 96.588148 
" clip-path="url(#pb16425b9ea)" style="fill: none; stroke: #b0b0b0; stroke-opacity: 0.2; stroke-width: 0.8; stroke-linecap: square"/>
     </g>
     <g id="line2d_18">
      <g>
       <use xlink:href="#m85b40e7b2f" x="22.730319" y="96.588148" style="stroke: #000000; stroke-width: 0.8"/>
      </g>
     </g>
     <g id="text_3">
      <!-- $\mathdefault{0.2}$ -->
      <g transform="translate(3.00024 100.047397) scale(0.1 -0.1)">
       <defs>
        <path id="CMR17-32" d="M 2669 989 
L 2554 989 
C 2490 536 2438 459 2413 420 
C 2381 369 1920 369 1830 369 
L 602 369 
C 832 619 1280 1072 1824 1597 
C 2214 1967 2669 2402 2669 3035 
C 2669 3790 2067 4224 1395 4224 
C 691 4224 262 3604 262 3030 
C 262 2780 448 2748 525 2748 
C 589 2748 781 2787 781 3010 
C 781 3207 614 3264 525 3264 
C 486 3264 448 3258 422 3245 
C 544 3790 915 4058 1306 4058 
C 1862 4058 2227 3617 2227 3035 
C 2227 2479 1901 2000 1536 1584 
L 262 146 
L 262 0 
L 2515 0 
L 2669 989 
z
" transform="scale(0.015625)"/>
       </defs>
       <use xlink:href="#CMR17-30" transform="scale(0.996264)"/>
       <use xlink:href="#CMMI12-3a" transform="translate(45.690477 0) scale(0.996264)"/>
       <use xlink:href="#CMR17-32" transform="translate(72.787654 0) scale(0.996264)"/>
      </g>
     </g>
    </g>
    <g id="ytick_4">
     <g id="line2d_19">
      <path d="M 22.730319 72.693992 
L 457.79976 72.693992 
" clip-path="url(#pb16425b9ea)" style="fill: none; stroke: #b0b0b0; stroke-opacity: 0.2; stroke-width: 0.8; stroke-linecap: square"/>
     </g>
     <g id="line2d_20">
      <g>
       <use xlink:href="#m85b40e7b2f" x="22.730319" y="72.693992" style="stroke: #000000; stroke-width: 0.8"/>
      </g>
     </g>
     <g id="text_4">
      <!-- $\mathdefault{0.3}$ -->
      <g transform="translate(3.00024 76.153241) scale(0.1 -0.1)">
       <defs>
        <path id="CMR17-33" d="M 1414 2157 
C 1984 2157 2234 1662 2234 1090 
C 2234 320 1824 25 1453 25 
C 1114 25 563 194 390 693 
C 422 680 454 680 486 680 
C 640 680 755 782 755 948 
C 755 1133 614 1216 486 1216 
C 378 1216 211 1165 211 926 
C 211 335 787 -128 1466 -128 
C 2176 -128 2720 430 2720 1085 
C 2720 1707 2208 2157 1600 2227 
C 2086 2328 2554 2756 2554 3329 
C 2554 3820 2048 4179 1472 4179 
C 890 4179 378 3829 378 3329 
C 378 3110 544 3072 627 3072 
C 762 3072 877 3155 877 3321 
C 877 3486 762 3569 627 3569 
C 602 3569 570 3569 544 3557 
C 730 3959 1235 4032 1459 4032 
C 1683 4032 2106 3925 2106 3320 
C 2106 3143 2080 2828 1862 2550 
C 1670 2304 1453 2304 1242 2284 
C 1210 2284 1062 2269 1037 2269 
C 992 2263 966 2257 966 2208 
C 966 2163 973 2157 1101 2157 
L 1414 2157 
z
" transform="scale(0.015625)"/>
       </defs>
       <use xlink:href="#CMR17-30" transform="scale(0.996264)"/>
       <use xlink:href="#CMMI12-3a" transform="translate(45.690477 0) scale(0.996264)"/>
       <use xlink:href="#CMR17-33" transform="translate(72.787654 0) scale(0.996264)"/>
      </g>
     </g>
    </g>
    <g id="ytick_5">
     <g id="line2d_21">
      <path d="M 22.730319 48.799835 
L 457.79976 48.799835 
" clip-path="url(#pb16425b9ea)" style="fill: none; stroke: #b0b0b0; stroke-opacity: 0.2; stroke-width: 0.8; stroke-linecap: square"/>
     </g>
     <g id="line2d_22">
      <g>
       <use xlink:href="#m85b40e7b2f" x="22.730319" y="48.799835" style="stroke: #000000; stroke-width: 0.8"/>
      </g>
     </g>
     <g id="text_5">
      <!-- $\mathdefault{0.4}$ -->
      <g transform="translate(3.00024 52.259084) scale(0.1 -0.1)">
       <defs>
        <path id="CMR17-34" d="M 2150 4122 
C 2150 4256 2144 4256 2029 4256 
L 128 1254 
L 128 1088 
L 1779 1088 
L 1779 457 
C 1779 224 1766 160 1318 160 
L 1197 160 
L 1197 0 
C 1402 0 1747 0 1965 0 
C 2182 0 2528 0 2733 0 
L 2733 160 
L 2611 160 
C 2163 160 2150 224 2150 457 
L 2150 1088 
L 2803 1088 
L 2803 1254 
L 2150 1254 
L 2150 4122 
z
M 1798 3703 
L 1798 1254 
L 256 1254 
L 1798 3703 
z
" transform="scale(0.015625)"/>
       </defs>
       <use xlink:href="#CMR17-30" transform="scale(0.996264)"/>
       <use xlink:href="#CMMI12-3a" transform="translate(45.690477 0) scale(0.996264)"/>
       <use xlink:href="#CMR17-34" transform="translate(72.787654 0) scale(0.996264)"/>
      </g>
     </g>
    </g>
    <g id="ytick_6">
     <g id="line2d_23">
      <path d="M 22.730319 24.905679 
L 457.79976 24.905679 
" clip-path="url(#pb16425b9ea)" style="fill: none; stroke: #b0b0b0; stroke-opacity: 0.2; stroke-width: 0.8; stroke-linecap: square"/>
     </g>
     <g id="line2d_24">
      <g>
       <use xlink:href="#m85b40e7b2f" x="22.730319" y="24.905679" style="stroke: #000000; stroke-width: 0.8"/>
      </g>
     </g>
     <g id="text_6">
      <!-- $\mathdefault{0.5}$ -->
      <g transform="translate(3.00024 28.364928) scale(0.1 -0.1)">
       <defs>
        <path id="CMR17-35" d="M 730 3692 
C 794 3666 1056 3584 1325 3584 
C 1920 3584 2246 3911 2432 4100 
C 2432 4157 2432 4192 2394 4192 
C 2387 4192 2374 4192 2323 4163 
C 2099 4058 1837 3973 1517 3973 
C 1325 3973 1037 3999 723 4139 
C 653 4171 640 4171 634 4171 
C 602 4171 595 4164 595 4037 
L 595 2203 
C 595 2089 595 2057 659 2057 
C 691 2057 704 2070 736 2114 
C 941 2401 1222 2522 1542 2522 
C 1766 2522 2246 2382 2246 1289 
C 2246 1085 2246 715 2054 421 
C 1894 159 1645 25 1370 25 
C 947 25 518 320 403 814 
C 429 807 480 795 506 795 
C 589 795 749 840 749 1038 
C 749 1210 627 1280 506 1280 
C 358 1280 262 1190 262 1011 
C 262 454 704 -128 1382 -128 
C 2042 -128 2669 440 2669 1264 
C 2669 2030 2170 2624 1549 2624 
C 1222 2624 947 2503 730 2274 
L 730 3692 
z
" transform="scale(0.015625)"/>
       </defs>
       <use xlink:href="#CMR17-30" transform="scale(0.996264)"/>
       <use xlink:href="#CMMI12-3a" transform="translate(45.690477 0) scale(0.996264)"/>
       <use xlink:href="#CMR17-35" transform="translate(72.787654 0) scale(0.996264)"/>
      </g>
     </g>
    </g>
   </g>
   <g id="line2d_25">
    <path d="M 42.506203 24.905679 
L 43.890653 25.015851 
L 44.602656 25.312068 
L 45.314659 25.849116 
L 46.105773 26.733128 
L 47.015555 28.093139 
L 48.123115 30.164677 
L 49.586677 33.409096 
L 55.243145 46.47009 
L 56.548484 48.668295 
L 57.656045 50.128048 
L 58.684493 51.131761 
L 59.633831 51.757835 
L 60.543612 52.097486 
L 61.453394 52.199909 
L 62.402731 52.079496 
L 63.470736 51.706806 
L 64.736519 51.009962 
L 66.437415 49.794777 
L 70.432543 46.855994 
L 71.856549 46.125201 
L 73.082776 45.734484 
L 74.190337 45.607533 
L 75.218786 45.706064 
L 76.207679 46.016821 
L 77.196572 46.557776 
L 78.22502 47.384921 
L 79.253469 48.504119 
L 80.321474 50.001124 
L 81.429034 51.943066 
L 82.615706 54.497901 
L 83.841933 57.688302 
L 85.147272 61.730966 
L 86.531722 66.765245 
L 88.03484 73.088005 
L 89.735736 81.233777 
L 91.832189 92.435828 
L 95.233981 110.797901 
L 96.26243 114.755336 
L 97.251323 117.725232 
L 98.240216 120.036847 
L 99.268665 121.894813 
L 100.33667 123.370029 
L 101.44423 124.527666 
L 102.630902 125.451941 
L 103.93624 126.190236 
L 105.439358 126.782455 
L 106.784252 127.10248 
L 107.496255 127.046068 
L 108.168703 126.76704 
L 108.880706 126.212699 
L 109.67182 125.283848 
L 110.542046 123.899376 
L 111.570495 121.818173 
L 112.796722 118.800052 
L 114.339396 114.373887 
L 116.831406 106.439558 
L 119.798085 97.181158 
L 121.459426 92.696762 
L 122.843876 89.568063 
L 124.030548 87.413316 
L 125.058996 85.982964 
L 125.968778 85.07959 
L 126.759893 84.583209 
L 127.511451 84.369244 
L 128.223454 84.404008 
L 128.935457 84.674586 
L 129.64746 85.184913 
L 130.438575 86.036993 
L 131.308801 87.324495 
L 132.258138 89.150042 
L 133.286587 91.622954 
L 134.433703 94.981215 
L 135.699486 99.398296 
L 137.123492 105.203989 
L 139.259501 114.080274 
L 140.28795 117.275645 
L 141.316399 119.763208 
L 142.344847 121.682105 
L 143.412852 123.207701 
L 144.520412 124.405844 
L 145.707084 125.363346 
L 147.012423 126.129265 
L 148.51554 126.745068 
L 150.295548 127.223627 
L 152.510668 127.579069 
L 155.516903 127.822002 
L 156.782686 127.781437 
L 157.494689 127.515609 
L 158.206692 126.998639 
L 158.958251 126.164349 
L 159.788921 124.902762 
L 160.777814 122.967307 
L 161.92493 120.203244 
L 163.348936 116.151082 
L 165.326722 109.783353 
L 169.796519 95.20497 
L 171.418304 90.772838 
L 172.763198 87.710632 
L 173.910314 85.613437 
L 174.938763 84.175546 
L 175.848545 83.273965 
L 176.639659 82.784628 
L 177.351662 82.585605 
L 178.063665 82.620429 
L 178.775668 82.893324 
L 179.487671 83.407813 
L 180.278786 84.266214 
L 181.149012 85.562177 
L 182.098349 87.39808 
L 183.126798 89.882745 
L 184.273914 93.253775 
L 185.539697 97.683262 
L 186.963703 103.499074 
L 189.613936 114.615708 
L 190.642385 117.695942 
L 191.670834 120.086059 
L 192.699283 121.927958 
L 193.767287 123.39198 
L 194.874847 124.541768 
L 196.061519 125.460714 
L 197.406414 126.214556 
L 198.909531 126.79977 
L 200.729094 127.262545 
L 203.023326 127.605644 
L 205.910894 127.810183 
L 206.702009 127.683282 
L 207.414012 127.332323 
L 208.126015 126.720832 
L 208.917129 125.727673 
L 209.826911 124.191781 
L 210.855359 121.991996 
L 212.081587 118.819619 
L 213.663816 114.054627 
L 216.195382 105.600335 
L 219.162061 95.897824 
L 220.862957 91.083295 
L 222.247408 87.797357 
L 223.434079 85.520023 
L 224.462528 83.991631 
L 225.37231 83.007069 
L 226.20298 82.422854 
L 226.954539 82.161403 
L 227.666542 82.153402 
L 228.338989 82.363925 
L 229.050992 82.821176 
L 229.842106 83.615387 
L 230.672777 84.776548 
L 231.582558 86.435017 
L 232.611007 88.79624 
L 233.758123 92.032055 
L 235.023906 96.318295 
L 236.447912 101.985397 
L 239.731037 115.57132 
L 240.759486 118.440427 
L 241.787935 120.66001 
L 242.816384 122.36897 
L 243.884388 123.727021 
L 245.031504 124.826317 
L 246.257732 125.694045 
L 247.642182 126.395965 
L 249.224411 126.944765 
L 251.162641 127.372722 
L 253.654652 127.682751 
L 255.948884 127.776759 
L 256.660887 127.576652 
L 257.37289 127.132834 
L 258.124448 126.376059 
L 258.955119 125.195181 
L 259.904456 123.427189 
L 261.012016 120.860909 
L 262.356911 117.143979 
L 264.136918 111.514965 
L 269.832942 93.006425 
L 271.33606 89.112004 
L 272.601843 86.411006 
L 273.709403 84.540972 
L 274.698296 83.292342 
L 275.568522 82.539758 
L 276.320081 82.160223 
L 277.032084 82.037999 
L 277.704531 82.138852 
L 278.416534 82.47839 
L 279.168093 83.100017 
L 279.959207 84.049594 
L 280.829433 85.446491 
L 281.818326 87.483102 
L 282.886331 90.216481 
L 284.073003 93.891474 
L 285.378341 98.677947 
L 286.881459 105.079521 
L 288.780134 113.242799 
L 289.808582 116.619745 
L 290.837031 119.253569 
L 291.86548 121.286453 
L 292.933485 122.90298 
L 294.041045 124.172702 
L 295.227717 125.187599 
L 296.4935 125.978859 
L 297.957061 126.624507 
L 299.657957 127.124827 
L 301.793967 127.508459 
L 304.602423 127.773193 
L 305.82865 127.746254 
L 306.540653 127.490303 
L 307.252656 126.982472 
L 308.004215 126.156322 
L 308.834885 124.901319 
L 309.823778 122.96974 
L 310.970894 120.20408 
L 312.3949 116.140145 
L 314.372686 109.737886 
L 318.96115 94.662956 
L 320.582935 90.216042 
L 321.927829 87.148078 
L 323.074945 85.049789 
L 324.103394 83.613329 
L 325.013176 82.714532 
L 325.80429 82.228532 
L 326.516293 82.033085 
L 327.228296 82.071906 
L 327.940299 82.349111 
L 328.652302 82.868127 
L 329.443417 83.73171 
L 330.313643 85.033433 
L 331.26298 86.875551 
L 332.291429 89.366696 
L 333.438545 92.74443 
L 334.704328 97.180377 
L 336.128334 103.001847 
L 338.897235 114.669735 
L 339.925683 117.738296 
L 340.954132 120.118228 
L 341.982581 121.952021 
L 343.050586 123.409558 
L 344.158146 124.55427 
L 345.344817 125.469188 
L 346.689712 126.219763 
L 348.232385 126.814976 
L 350.051949 127.271129 
L 352.385736 127.613541 
L 355.154637 127.794509 
L 355.906195 127.642141 
L 356.618199 127.258589 
L 357.330202 126.612073 
L 358.121316 125.58006 
L 359.031098 124.001759 
L 360.099102 121.663572 
L 361.364885 118.318006 
L 362.98667 113.353657 
L 365.913793 103.504775 
L 368.44536 95.325517 
L 370.1067 90.677928 
L 371.49115 87.443038 
L 372.677822 85.21625 
L 373.706271 83.735667 
L 374.616052 82.795884 
L 375.407167 82.273018 
L 376.158726 82.03763 
L 376.870729 82.054895 
L 377.582732 82.310199 
L 378.294735 82.807031 
L 379.085849 83.645712 
L 379.956075 84.919851 
L 380.905412 86.731833 
L 381.933861 89.190565 
L 383.080977 92.532924 
L 384.34676 96.931601 
L 385.770766 102.714713 
L 388.69789 114.977437 
L 389.726339 117.978254 
L 390.754787 120.303421 
L 391.783236 122.094508 
L 392.851241 123.517996 
L 393.958801 124.635945 
L 395.185028 125.554818 
L 396.529923 126.280412 
L 398.072596 126.855752 
L 399.931715 127.304026 
L 402.305059 127.635305 
L 404.915736 127.790709 
L 405.667295 127.621803 
L 406.379298 127.218939 
L 407.091301 126.55208 
L 407.882415 125.497823 
L 408.792197 123.895619 
L 409.860202 121.532712 
L 411.125985 118.163495 
L 412.787325 113.050384 
L 415.991339 102.25623 
L 418.325126 94.809048 
L 419.946911 90.339182 
L 421.291806 87.247909 
L 422.438921 85.127355 
L 423.46737 83.669463 
L 424.377152 82.750772 
L 425.168266 82.246885 
L 425.880269 82.034947 
L 426.592272 82.056958 
L 427.304275 82.317086 
L 428.016278 82.818805 
L 428.807393 83.662973 
L 429.677619 84.943191 
L 430.626956 86.761814 
L 431.655405 89.227692 
L 432.802521 92.57785 
L 434.068304 96.984747 
L 435.49231 102.776324 
L 438.023876 113.665335 
L 438.023876 113.665335 
" clip-path="url(#pb16425b9ea)" style="fill: none; stroke: #1f77b4; stroke-width: 1.5; stroke-linecap: square"/>
   </g>
   <g id="line2d_26">
    <path d="M 42.506203 24.905679 
L 42.90176 25.01399 
L 43.574207 25.462723 
L 44.444433 26.317405 
L 45.314659 27.491268 
L 46.263996 29.161077 
L 47.371557 31.579186 
L 48.835118 35.363579 
L 54.570698 50.851337 
L 55.836481 53.340695 
L 56.944042 55.053404 
L 57.932935 56.195767 
L 58.842716 56.924172 
L 59.712942 57.341321 
L 60.543612 57.499773 
L 61.413838 57.436308 
L 62.363176 57.131207 
L 63.43118 56.543401 
L 64.776075 55.529632 
L 66.951639 53.558589 
L 69.404094 51.417019 
L 70.867656 50.432199 
L 72.054328 49.888463 
L 73.122332 49.63717 
L 74.111225 49.633567 
L 75.060563 49.859196 
L 75.970344 50.304601 
L 76.919682 51.027886 
L 77.869019 52.035647 
L 78.857912 53.411182 
L 79.925917 55.298749 
L 81.033477 57.730103 
L 82.180593 60.791825 
L 83.40682 64.710837 
L 84.712159 69.643494 
L 86.136165 75.925389 
L 87.718394 83.962054 
L 89.537957 94.410694 
L 91.950856 109.672111 
L 94.3242 124.447971 
L 95.313093 128.877655 
L 96.301986 132.322611 
L 97.290879 135.001826 
L 98.319328 137.158533 
L 99.347777 138.819194 
L 100.415781 140.140761 
L 101.562897 141.212565 
L 102.789124 142.060522 
L 104.173575 142.74849 
L 105.795359 143.299731 
L 106.546918 143.396659 
L 107.140254 143.244584 
L 107.773146 142.845324 
L 108.485149 142.104566 
L 109.276263 140.932316 
L 110.186045 139.16066 
L 111.254049 136.564609 
L 112.559388 132.76027 
L 114.260284 127.04696 
L 120.628755 104.890491 
L 122.013206 101.197786 
L 123.199877 98.620249 
L 124.228326 96.880961 
L 125.138108 95.755914 
L 125.929222 95.110222 
L 126.641225 94.803735 
L 127.313673 94.759901 
L 127.946564 94.941315 
L 128.619011 95.374752 
L 129.331015 96.10774 
L 130.122129 97.256362 
L 130.992355 98.928826 
L 131.981248 101.349515 
L 133.049252 104.579148 
L 134.235924 108.897309 
L 135.580819 114.670955 
L 137.123492 122.332474 
L 138.310164 128.051951 
L 139.299057 131.680521 
L 140.28795 134.502565 
L 141.316399 136.774219 
L 142.344847 138.523355 
L 143.412852 139.915299 
L 144.559968 141.044145 
L 145.786195 141.937193 
L 147.170646 142.661698 
L 148.752874 143.230657 
L 150.651549 143.670797 
L 153.104004 144.000185 
L 156.031127 144.173567 
L 156.664019 143.981885 
L 157.296911 143.550768 
L 158.008914 142.774142 
L 158.800028 141.557646 
L 159.70981 139.72607 
L 160.777814 137.044878 
L 162.083153 133.113253 
L 163.744493 127.341442 
L 167.067174 114.742624 
L 169.32185 106.678853 
L 170.904079 101.788532 
L 172.209418 98.419811 
L 173.356534 96.043599 
L 174.345427 94.478607 
L 175.215653 93.496131 
L 175.967212 92.9582 
L 176.639659 92.728527 
L 177.272551 92.734456 
L 177.905442 92.959592 
L 178.57789 93.442458 
L 179.289893 94.230525 
L 180.081007 95.442887 
L 180.990789 97.277084 
L 181.979682 99.803116 
L 183.087242 103.281356 
L 184.313469 107.906669 
L 185.69792 114.046577 
L 187.280149 122.12185 
L 188.427265 127.739014 
L 189.416158 131.437297 
L 190.405051 134.313538 
L 191.4335 136.628805 
L 192.461948 138.411511 
L 193.529953 139.83016 
L 194.677069 140.980656 
L 195.903296 141.890822 
L 197.248191 142.611514 
L 198.790864 143.185261 
L 200.649983 143.635455 
L 203.062882 143.977338 
L 205.713116 144.144584 
L 206.346007 143.947739 
L 206.978899 143.510191 
L 207.690902 142.725211 
L 208.482016 141.498257 
L 209.391798 139.653215 
L 210.459802 136.954252 
L 211.765141 132.998014 
L 213.426481 127.190439 
L 216.709606 114.65801 
L 219.003838 106.382044 
L 220.625623 101.334566 
L 221.930962 97.949477 
L 223.078078 95.56141 
L 224.066971 93.987809 
L 224.937197 92.998781 
L 225.688756 92.455829 
L 226.361203 92.222073 
L 226.994094 92.224446 
L 227.626986 92.446252 
L 228.299433 92.925772 
L 229.011436 93.710456 
L 229.802551 94.919193 
L 230.712332 96.749328 
L 231.701225 99.271013 
L 232.808786 102.744421 
L 234.035013 107.364417 
L 235.419463 113.498404 
L 237.001692 121.567135 
L 238.22792 127.644833 
L 239.216813 131.364084 
L 240.205706 134.256628 
L 241.234155 136.585014 
L 242.262603 138.377819 
L 243.330608 139.804502 
L 244.438168 140.926973 
L 245.664396 141.851537 
L 247.00929 142.583625 
L 248.551963 143.166441 
L 250.411082 143.623748 
L 252.784426 143.966877 
L 255.434659 144.134674 
L 256.067551 143.929612 
L 256.700442 143.483265 
L 257.412445 142.688207 
L 258.20356 141.450214 
L 259.113341 139.592997 
L 260.181346 136.880743 
L 261.486685 132.910042 
L 263.148025 127.087292 
L 266.510262 114.236292 
L 268.764938 106.123763 
L 270.347167 101.209793 
L 271.652506 97.827326 
L 272.799622 95.442709 
L 273.788515 93.872788 
L 274.658741 92.887442 
L 275.410299 92.347945 
L 276.082747 92.11746 
L 276.715638 92.123041 
L 277.34853 92.348156 
L 278.020977 92.83128 
L 278.73298 93.619853 
L 279.524095 94.832966 
L 280.433876 96.668155 
L 281.422769 99.195293 
L 282.530329 102.674659 
L 283.756557 107.300913 
L 285.141007 113.441302 
L 286.723236 121.516106 
L 287.989019 127.773554 
L 288.977912 131.4642 
L 289.966805 134.334497 
L 290.995254 136.644976 
L 292.023703 138.423994 
L 293.091707 139.839707 
L 294.238823 140.98782 
L 295.465051 141.8961 
L 296.809945 142.615297 
L 298.352619 143.187851 
L 300.251293 143.644549 
L 302.664192 143.982308 
L 305.156203 144.130838 
L 305.789095 143.919844 
L 306.421986 143.467277 
L 307.133989 142.665226 
L 307.925104 141.419732 
L 308.834885 139.554471 
L 309.90289 136.833795 
L 311.208229 132.854552 
L 312.869569 127.024007 
L 316.310917 113.868845 
L 318.526037 105.927948 
L 320.108266 101.0401 
L 321.413605 97.684412 
L 322.560721 95.326447 
L 323.549614 93.781391 
L 324.41984 92.81911 
L 325.171399 92.300276 
L 325.843846 92.088768 
L 326.476738 92.112567 
L 327.109629 92.356189 
L 327.782076 92.859231 
L 328.533635 93.722507 
L 329.364305 95.049305 
L 330.274087 96.952836 
L 331.26298 99.553641 
L 332.37054 103.113656 
L 333.596768 107.825136 
L 334.981218 114.053693 
L 336.603003 122.430556 
L 337.631452 127.477666 
L 338.620345 131.234083 
L 339.609238 134.15553 
L 340.637686 136.507179 
L 341.666135 138.317893 
L 342.73414 139.758826 
L 343.8417 140.892508 
L 345.067927 141.826304 
L 346.412822 142.565701 
L 347.955495 143.154335 
L 349.814614 143.616205 
L 352.187958 143.962755 
L 354.838191 144.134107 
L 355.471083 143.932362 
L 356.103974 143.489424 
L 356.815977 142.698125 
L 357.607092 141.46406 
L 358.516873 139.6109 
L 359.584878 136.902632 
L 360.890217 132.935505 
L 362.551557 127.115057 
L 365.834682 114.561249 
L 368.128914 106.273948 
L 369.711143 101.333085 
L 371.056037 97.831062 
L 372.203153 95.440022 
L 373.192046 93.864238 
L 374.062272 92.87353 
L 374.813831 92.329275 
L 375.486278 92.094448 
L 376.11917 92.095878 
L 376.752061 92.316791 
L 377.424509 92.795403 
L 378.136512 93.57916 
L 378.927626 94.786894 
L 379.797852 96.526587 
L 380.786745 99.02496 
L 381.894305 102.472784 
L 383.120533 107.065626 
L 384.504983 113.171317 
L 386.087212 121.212228 
L 387.392551 127.703467 
L 388.381444 131.409693 
L 389.370337 134.292107 
L 390.398786 136.612339 
L 391.427235 138.398865 
L 392.495239 139.820552 
L 393.642355 140.97351 
L 394.868583 141.885622 
L 396.213477 142.607852 
L 397.75615 143.182821 
L 399.615269 143.633971 
L 401.988613 143.972484 
L 404.559735 144.13208 
L 405.192626 143.924984 
L 405.825518 143.476461 
L 406.537521 142.678916 
L 407.328635 141.438198 
L 408.238417 139.577977 
L 409.306421 136.862443 
L 410.61176 132.888173 
L 412.273101 127.061672 
L 415.635337 114.206024 
L 417.890013 106.092519 
L 419.472242 101.17875 
L 420.777581 97.796905 
L 421.924697 95.413115 
L 422.91359 93.84408 
L 423.783816 92.859621 
L 424.535375 92.320959 
L 425.207822 92.091264 
L 425.840714 92.09762 
L 426.473605 92.323535 
L 427.146053 92.80753 
L 427.897611 93.64931 
L 428.688726 94.881262 
L 429.598507 96.73814 
L 430.5874 99.288668 
L 431.694961 102.793654 
L 432.921188 107.447 
L 434.305638 113.61544 
L 435.887867 121.717499 
L 437.074539 127.595583 
L 438.023876 131.193889 
L 438.023876 131.193889 
" clip-path="url(#pb16425b9ea)" style="fill: none; stroke: #ff7f0e; stroke-width: 1.5; stroke-linecap: square"/>
   </g>
   <g id="patch_3">
    <path d="M 22.730319 150.151239 
L 22.730319 18.941604 
" style="fill: none; stroke: #000000; stroke-width: 0.8; stroke-linejoin: miter; stroke-linecap: square"/>
   </g>
   <g id="patch_4">
    <path d="M 457.79976 150.151239 
L 457.79976 18.941604 
" style="fill: none; stroke: #000000; stroke-width: 0.8; stroke-linejoin: miter; stroke-linecap: square"/>
   </g>
   <g id="patch_5">
    <path d="M 22.730319 150.151239 
L 457.79976 150.151239 
" style="fill: none; stroke: #000000; stroke-width: 0.8; stroke-linejoin: miter; stroke-linecap: square"/>
   </g>
   <g id="patch_6">
    <path d="M 22.730319 18.941604 
L 457.79976 18.941604 
" style="fill: none; stroke: #000000; stroke-width: 0.8; stroke-linejoin: miter; stroke-linecap: square"/>
   </g>
   <g id="text_7">
    <!-- State and Configuration Safety -->
    <g transform="translate(128.845917 15.45354) scale(0.18 -0.18)">
     <defs>
      <path id="CMR17-53" d="M 2803 4290 
C 2803 4404 2797 4411 2758 4411 
C 2720 4411 2707 4385 2682 4328 
L 2490 3907 
C 2246 4257 1875 4416 1472 4416 
C 819 4416 294 3901 294 3253 
C 294 3056 339 2776 557 2510 
C 794 2218 1018 2167 1530 2033 
C 1722 1982 2042 1899 2106 1874 
C 2470 1722 2662 1341 2662 985 
C 2662 527 2336 38 1779 38 
C 1094 38 454 419 410 1311 
C 403 1413 397 1419 352 1419 
C 301 1419 294 1413 294 1285 
L 294 -1 
C 294 -115 301 -122 339 -122 
C 384 -122 397 -90 486 108 
C 493 127 493 140 614 381 
C 934 -39 1472 -128 1779 -128 
C 2477 -128 2970 451 2970 1124 
C 2970 1454 2848 1708 2778 1823 
C 2509 2230 2221 2306 1914 2382 
C 1869 2402 1856 2402 1498 2490 
C 1152 2579 1005 2624 845 2796 
C 666 2992 602 3196 602 3399 
C 602 3812 934 4263 1478 4263 
C 2157 4263 2579 3786 2675 2993 
C 2694 2878 2701 2872 2746 2872 
C 2803 2872 2803 2891 2803 2999 
L 2803 4290 
z
" transform="scale(0.015625)"/>
      <path id="CMR17-74" d="M 966 2560 
L 1862 2560 
L 1862 2725 
L 966 2725 
L 966 3904 
L 851 3904 
C 838 3245 614 2668 70 2668 
L 70 2560 
L 627 2560 
L 627 771 
C 627 650 627 -64 1370 -64 
C 1747 -64 1965 306 1965 777 
L 1965 1140 
L 1850 1140 
L 1850 783 
C 1850 344 1677 51 1408 51 
C 1222 51 966 178 966 758 
L 966 2560 
z
" transform="scale(0.015625)"/>
      <path id="CMR17-61" d="M 2304 1653 
C 2304 2072 2304 2294 2035 2543 
C 1798 2752 1523 2816 1306 2816 
C 800 2816 435 2407 435 1971 
C 435 1728 627 1728 666 1728 
C 749 1728 896 1778 896 1954 
C 896 2112 774 2181 666 2181 
C 640 2181 608 2174 589 2168 
C 723 2592 1069 2714 1293 2714 
C 1613 2714 1965 2429 1965 1885 
L 1965 1600 
C 1587 1600 1133 1549 774 1357 
C 371 1133 256 813 256 570 
C 256 77 832 -64 1171 -64 
C 1523 -64 1850 139 1990 511 
C 2003 233 2182 -18 2464 -18 
C 2598 -18 2938 70 2938 567 
L 2938 920 
L 2822 920 
L 2822 562 
C 2822 178 2650 128 2566 128 
C 2304 128 2304 458 2304 738 
L 2304 1653 
z
M 1965 870 
C 1965 317 1568 38 1216 38 
C 896 38 646 275 646 570 
C 646 761 730 1100 1101 1305 
C 1408 1478 1760 1504 1965 1504 
L 1965 870 
z
" transform="scale(0.015625)"/>
      <path id="CMR17-65" d="M 2438 1472 
C 2464 1498 2464 1511 2464 1576 
C 2464 2238 2118 2816 1389 2816 
C 710 2816 173 2169 173 1383 
C 173 551 781 -64 1459 -64 
C 2176 -64 2458 607 2458 740 
C 2458 784 2419 784 2406 784 
C 2362 784 2355 771 2330 696 
C 2189 265 1837 51 1504 51 
C 1229 51 954 203 781 480 
C 582 803 582 1176 582 1472 
L 2438 1472 
z
M 589 1568 
C 634 2505 1126 2714 1382 2714 
C 1818 2714 2112 2297 2118 1568 
L 589 1568 
z
" transform="scale(0.015625)"/>
      <path id="CMR17-6e" d="M 2656 1933 
C 2656 2259 2592 2790 1837 2790 
C 1331 2790 1069 2400 973 2144 
L 966 2144 
L 966 2790 
L 211 2720 
L 211 2554 
C 589 2554 646 2515 646 2208 
L 646 428 
C 646 184 621 153 211 153 
L 211 -13 
C 365 0 646 0 813 0 
C 979 0 1267 0 1421 -13 
L 1421 153 
C 1011 153 986 178 986 428 
L 986 1658 
C 986 2247 1344 2688 1792 2688 
C 2266 2688 2317 2266 2317 1958 
L 2317 428 
C 2317 184 2291 153 1882 153 
L 1882 -13 
C 2035 0 2317 0 2483 0 
C 2650 0 2938 0 3091 -13 
L 3091 153 
C 2682 153 2656 178 2656 428 
L 2656 1933 
z
" transform="scale(0.015625)"/>
      <path id="CMR17-64" d="M 1869 4326 
L 1869 4160 
C 2246 4160 2304 4122 2304 3820 
L 2304 2345 
C 2278 2377 2016 2790 1498 2790 
C 845 2790 211 2208 211 1364 
C 211 525 806 -64 1434 -64 
C 1978 -64 2259 337 2291 380 
L 2291 -63 
L 3066 -63 
L 3066 128 
C 2688 128 2630 166 2630 473 
L 2630 4396 
L 1869 4326 
z
M 2291 755 
C 2291 563 2176 390 2029 262 
C 1811 70 1594 38 1472 38 
C 1286 38 621 134 621 1356 
C 621 2612 1363 2688 1530 2688 
C 1824 2688 2061 2522 2208 2291 
C 2291 2157 2291 2138 2291 2023 
L 2291 755 
z
" transform="scale(0.015625)"/>
      <path id="CMR17-43" d="M 3974 4289 
C 3974 4403 3968 4410 3930 4410 
C 3904 4410 3898 4403 3853 4327 
L 3571 3792 
C 3258 4187 2874 4416 2381 4416 
C 1286 4416 294 3456 294 2148 
C 294 826 1286 -128 2387 -128 
C 3366 -128 3974 730 3974 1461 
C 3974 1524 3974 1550 3917 1550 
C 3866 1550 3866 1531 3859 1474 
C 3808 585 3168 38 2477 38 
C 1824 38 781 495 781 2147 
C 781 3805 1843 4250 2464 4250 
C 3187 4250 3712 3628 3834 2745 
C 3846 2668 3846 2655 3904 2655 
C 3974 2655 3974 2668 3974 2783 
L 3974 4289 
z
" transform="scale(0.015625)"/>
      <path id="CMR17-6f" d="M 2758 1356 
C 2758 2176 2163 2816 1466 2816 
C 768 2816 173 2176 173 1356 
C 173 551 768 -64 1466 -64 
C 2163 -64 2758 551 2758 1356 
z
M 1466 51 
C 1165 51 909 230 762 480 
C 602 767 582 1126 582 1408 
C 582 1677 595 2010 762 2298 
C 890 2509 1139 2714 1466 2714 
C 1754 2714 1997 2554 2150 2330 
C 2349 2029 2349 1607 2349 1408 
C 2349 1158 2336 775 2163 467 
C 1984 173 1709 51 1466 51 
z
" transform="scale(0.015625)"/>
      <path id="CMR17-c" d="M 2554 2764 
C 2400 2764 1926 2764 1805 2739 
C 1766 2725 1754 2725 1677 2725 
L 947 2725 
L 947 3469 
C 947 4073 1434 4352 1818 4352 
C 1939 4352 2214 4320 2355 4101 
C 2291 4101 2086 4101 2086 3878 
C 2086 3725 2189 3648 2317 3648 
C 2432 3648 2547 3712 2547 3885 
C 2547 4205 2240 4454 1843 4454 
C 1338 4454 634 4168 634 3469 
L 634 2725 
L 122 2725 
L 122 2560 
L 634 2560 
L 634 427 
C 634 184 608 153 198 153 
L 198 -13 
C 352 0 634 0 794 0 
C 960 0 1242 0 1395 -13 
L 1395 153 
C 986 153 960 178 960 427 
L 960 2560 
L 1901 2560 
C 2176 2560 2227 2502 2227 2222 
L 2227 427 
C 2227 184 2202 153 1792 153 
L 1792 -13 
C 1946 0 2227 0 2387 0 
C 2554 0 2835 0 2989 -13 
L 2989 153 
C 2579 153 2554 178 2554 427 
L 2554 2764 
z
" transform="scale(0.015625)"/>
      <path id="CMR17-67" d="M 710 1164 
C 832 1068 1043 960 1299 960 
C 1805 960 2240 1357 2240 1888 
C 2240 2054 2189 2310 1997 2509 
C 2176 2692 2438 2752 2586 2752 
C 2611 2752 2650 2752 2682 2734 
C 2656 2728 2598 2703 2598 2605 
C 2598 2527 2656 2471 2739 2471 
C 2835 2471 2886 2533 2886 2614 
C 2886 2731 2790 2854 2586 2854 
C 2330 2854 2106 2738 1926 2580 
C 1734 2753 1504 2816 1299 2816 
C 794 2816 358 2419 358 1888 
C 358 1522 570 1292 634 1228 
C 442 1004 442 743 442 711 
C 442 545 506 302 723 168 
C 390 85 128 -169 128 -486 
C 128 -943 736 -1280 1466 -1280 
C 2170 -1280 2803 -956 2803 -479 
C 2803 384 1856 384 1363 384 
C 1216 384 954 384 922 391 
C 723 423 589 602 589 826 
C 589 883 589 1024 710 1164 
z
M 1299 1068 
C 736 1068 736 1760 736 1889 
C 736 2016 736 2708 1299 2708 
C 1862 2708 1862 2016 1862 1889 
C 1862 1760 1862 1068 1299 1068 
z
M 1466 -1171 
C 826 -1171 384 -835 384 -486 
C 384 -289 493 -105 634 -4 
C 794 104 858 104 1293 104 
C 1818 104 2547 104 2547 -486 
C 2547 -835 2106 -1171 1466 -1171 
z
" transform="scale(0.015625)"/>
      <path id="CMR17-75" d="M 1882 2693 
L 1882 2528 
C 2259 2528 2317 2489 2317 2186 
L 2317 1032 
C 2317 500 2029 38 1555 38 
C 1030 38 986 348 986 678 
L 986 2763 
L 211 2693 
L 211 2528 
C 467 2528 640 2528 646 2274 
L 646 1058 
C 646 633 646 361 813 183 
C 896 101 1056 -64 1517 -64 
C 2061 -64 2272 377 2323 506 
L 2330 506 
L 2330 -63 
L 3091 -63 
L 3091 128 
C 2714 128 2656 166 2656 473 
L 2656 2763 
L 1882 2693 
z
" transform="scale(0.015625)"/>
      <path id="CMR17-72" d="M 960 1497 
C 960 2112 1222 2688 1702 2688 
C 1747 2688 1792 2682 1837 2662 
C 1837 2662 1696 2617 1696 2452 
C 1696 2298 1818 2234 1914 2234 
C 1990 2234 2131 2279 2131 2458 
C 2131 2663 1926 2790 1709 2790 
C 1222 2790 1011 2317 947 2093 
L 941 2093 
L 941 2790 
L 198 2720 
L 198 2554 
C 576 2554 634 2515 634 2208 
L 634 428 
C 634 184 608 153 198 153 
L 198 -13 
C 352 0 646 0 813 0 
C 998 0 1325 0 1498 -13 
L 1498 153 
C 1037 153 960 153 960 440 
L 960 1497 
z
" transform="scale(0.015625)"/>
      <path id="CMR17-69" d="M 992 3909 
C 992 4049 877 4170 730 4170 
C 589 4170 467 4056 467 3909 
C 467 3769 582 3648 730 3648 
C 870 3648 992 3763 992 3909 
z
M 243 2706 
L 243 2541 
C 602 2541 653 2502 653 2197 
L 653 427 
C 653 184 627 153 218 153 
L 218 -13 
C 371 0 646 0 806 0 
C 960 0 1222 0 1370 -13 
L 1370 153 
C 992 153 979 191 979 420 
L 979 2776 
L 243 2706 
z
" transform="scale(0.015625)"/>
      <path id="CMR17-66" d="M 979 2560 
L 1709 2560 
L 1709 2725 
L 966 2725 
L 966 3494 
C 966 4022 1235 4352 1510 4352 
C 1594 4352 1690 4327 1754 4282 
C 1702 4269 1568 4225 1568 4067 
C 1568 3901 1696 3850 1786 3850 
C 1875 3850 2003 3901 2003 4067 
C 2003 4308 1773 4454 1517 4454 
C 1152 4454 653 4156 653 3481 
L 653 2725 
L 141 2725 
L 141 2560 
L 653 2560 
L 653 427 
C 653 184 627 153 218 153 
L 218 -13 
C 371 0 666 0 832 0 
C 1018 0 1344 0 1517 -13 
L 1517 153 
C 1056 153 979 153 979 439 
L 979 2560 
z
" transform="scale(0.015625)"/>
      <path id="CMR17-79" d="M 2496 2197 
C 2656 2586 2944 2586 3034 2586 
L 3034 2752 
C 2912 2752 2752 2752 2630 2752 
C 2496 2752 2285 2752 2157 2758 
L 2157 2592 
C 2400 2573 2406 2394 2406 2343 
C 2406 2280 2394 2248 2362 2171 
L 1664 449 
L 902 2306 
C 870 2382 870 2426 870 2433 
C 870 2573 1018 2586 1171 2586 
L 1171 2758 
C 1018 2752 742 2752 582 2752 
C 410 2752 205 2752 64 2758 
L 64 2586 
C 410 2586 448 2554 531 2350 
L 1485 15 
C 1197 -738 1030 -1178 627 -1178 
C 557 -1178 397 -1159 282 -1044 
C 429 -1031 493 -942 493 -833 
C 493 -725 416 -629 288 -629 
C 147 -629 77 -725 77 -840 
C 77 -1095 339 -1280 627 -1280 
C 998 -1280 1229 -922 1357 -604 
L 2496 2197 
z
" transform="scale(0.015625)"/>
     </defs>
     <use xlink:href="#CMR17-53" transform="scale(0.996264)"/>
     <use xlink:href="#CMR17-74" transform="translate(50.89537 0) scale(0.996264)"/>
     <use xlink:href="#CMR17-61" transform="translate(86.176138 0) scale(0.996264)"/>
     <use xlink:href="#CMR17-74" transform="translate(131.866615 0) scale(0.996264)"/>
     <use xlink:href="#CMR17-65" transform="translate(167.147382 0) scale(0.996264)"/>
     <use xlink:href="#CMR17-61" transform="translate(237.709009 0) scale(0.996264)"/>
     <use xlink:href="#CMR17-6e" transform="translate(283.399486 0) scale(0.996264)"/>
     <use xlink:href="#CMR17-64" transform="translate(334.294856 0) scale(0.996264)"/>
     <use xlink:href="#CMR17-43" transform="translate(415.266192 0) scale(0.996264)"/>
     <use xlink:href="#CMR17-6f" transform="translate(481.776073 0) scale(0.996264)"/>
     <use xlink:href="#CMR17-6e" transform="translate(527.46655 0) scale(0.996264)"/>
     <use xlink:href="#CMR17-c" transform="translate(578.36192 0) scale(0.996264)"/>
     <use xlink:href="#CMR17-67" transform="translate(628.104143 0) scale(0.996264)"/>
     <use xlink:href="#CMR17-75" transform="translate(673.79462 0) scale(0.996264)"/>
     <use xlink:href="#CMR17-72" transform="translate(724.68999 0) scale(0.996264)"/>
     <use xlink:href="#CMR17-61" transform="translate(759.970758 0) scale(0.996264)"/>
     <use xlink:href="#CMR17-74" transform="translate(805.661235 0) scale(0.996264)"/>
     <use xlink:href="#CMR17-69" transform="translate(840.942003 0) scale(0.996264)"/>
     <use xlink:href="#CMR17-6f" transform="translate(865.813061 0) scale(0.996264)"/>
     <use xlink:href="#CMR17-6e" transform="translate(911.503538 0) scale(0.996264)"/>
     <use xlink:href="#CMR17-53" transform="translate(992.474874 0) scale(0.996264)"/>
     <use xlink:href="#CMR17-61" transform="translate(1043.370244 0) scale(0.996264)"/>
     <use xlink:href="#CMR17-66" transform="translate(1089.060721 0) scale(0.996264)"/>
     <use xlink:href="#CMR17-65" transform="translate(1116.534234 0) scale(0.996264)"/>
     <use xlink:href="#CMR17-74" transform="translate(1157.019894 0) scale(0.996264)"/>
     <use xlink:href="#CMR17-79" transform="translate(1189.698208 0) scale(0.996264)"/>
    </g>
   </g>
   <g id="legend_1">
    <g id="patch_7">
     <path d="M 390.320886 69.165661 
L 447.99976 69.165661 
Q 450.79976 69.165661 450.79976 66.365661 
L 450.79976 28.741604 
Q 450.79976 25.941604 447.99976 25.941604 
L 390.320886 25.941604 
Q 387.520886 25.941604 387.520886 28.741604 
L 387.520886 66.365661 
Q 387.520886 69.165661 390.320886 69.165661 
z
" style="fill: #ffffff; opacity: 0.8; stroke: #cccccc; stroke-linejoin: miter"/>
    </g>
    <g id="line2d_27">
     <path d="M 393.120886 36.441604 
L 407.120886 36.441604 
L 421.120886 36.441604 
" style="fill: none; stroke: #1f77b4; stroke-width: 1.5; stroke-linecap: square"/>
    </g>
    <g id="text_8">
     <!-- $h_0$ -->
     <g transform="translate(432.320886 41.341604) scale(0.14 -0.14)">
      <defs>
       <path id="CMMI12-68" d="M 1798 4257 
C 1805 4283 1818 4321 1818 4352 
C 1818 4416 1754 4416 1741 4416 
C 1734 4416 1421 4388 1389 4380 
C 1280 4373 1184 4358 1069 4358 
C 909 4345 864 4339 864 4224 
C 864 4160 915 4160 1005 4160 
C 1318 4160 1325 4103 1325 4040 
C 1325 4002 1312 3951 1306 3932 
L 378 248 
C 352 152 352 140 352 101 
C 352 -38 461 -64 525 -64 
C 634 -64 717 19 749 89 
L 1037 1245 
C 1069 1386 1107 1520 1139 1660 
C 1210 1929 1210 1935 1331 2120 
C 1453 2305 1741 2689 2234 2689 
C 2490 2689 2579 2497 2579 2242 
C 2579 1884 2330 1188 2189 805 
C 2131 651 2099 568 2099 453 
C 2099 166 2298 -64 2605 -64 
C 3200 -64 3424 875 3424 913 
C 3424 945 3398 971 3360 971 
C 3302 971 3296 952 3264 843 
C 3117 332 2880 64 2624 64 
C 2560 64 2458 64 2458 269 
C 2458 436 2534 640 2560 710 
C 2675 1018 2963 1773 2963 2145 
C 2963 2528 2739 2816 2253 2816 
C 1888 2816 1568 2644 1306 2312 
L 1798 4257 
z
" transform="scale(0.015625)"/>
      </defs>
      <use xlink:href="#CMMI12-68" transform="scale(0.996264)"/>
      <use xlink:href="#CMR17-30" transform="translate(56.154624 -14.943915) scale(0.697382)"/>
     </g>
    </g>
    <g id="line2d_28">
     <path d="M 393.120886 55.953633 
L 407.120886 55.953633 
L 421.120886 55.953633 
" style="fill: none; stroke: #ff7f0e; stroke-width: 1.5; stroke-linecap: square"/>
    </g>
    <g id="text_9">
     <!-- $h$ -->
     <g transform="translate(432.320886 60.853633) scale(0.14 -0.14)">
      <use xlink:href="#CMMI12-68" transform="scale(0.996264)"/>
     </g>
    </g>
   </g>
  </g>
  <g id="axes_2">
   <g id="patch_8">
    <path d="M 22.730319 306.802719 
L 457.79976 306.802719 
L 457.79976 175.593084 
L 22.730319 175.593084 
z
" style="fill: #ffffff"/>
   </g>
   <g id="matplotlib.axis_3">
    <g id="xtick_7">
     <g id="line2d_29">
      <path d="M 42.506203 306.802719 
L 42.506203 175.593084 
" clip-path="url(#p77f10bfe65)" style="fill: none; stroke: #b0b0b0; stroke-opacity: 0.2; stroke-width: 0.8; stroke-linecap: square"/>
     </g>
     <g id="line2d_30">
      <g>
       <use xlink:href="#m24669efeeb" x="42.506203" y="306.802719" style="stroke: #000000; stroke-width: 0.8"/>
      </g>
     </g>
     <g id="text_10">
      <!-- $\mathdefault{0}$ -->
      <g transform="translate(40.015535 320.721217) scale(0.1 -0.1)">
       <use xlink:href="#CMR17-30" transform="scale(0.996264)"/>
      </g>
     </g>
    </g>
    <g id="xtick_8">
     <g id="line2d_31">
      <path d="M 121.617649 306.802719 
L 121.617649 175.593084 
" clip-path="url(#p77f10bfe65)" style="fill: none; stroke: #b0b0b0; stroke-opacity: 0.2; stroke-width: 0.8; stroke-linecap: square"/>
     </g>
     <g id="line2d_32">
      <g>
       <use xlink:href="#m24669efeeb" x="121.617649" y="306.802719" style="stroke: #000000; stroke-width: 0.8"/>
      </g>
     </g>
     <g id="text_11">
      <!-- $\mathdefault{2}$ -->
      <g transform="translate(119.126981 320.721217) scale(0.1 -0.1)">
       <use xlink:href="#CMR17-32" transform="scale(0.996264)"/>
      </g>
     </g>
    </g>
    <g id="xtick_9">
     <g id="line2d_33">
      <path d="M 200.729094 306.802719 
L 200.729094 175.593084 
" clip-path="url(#p77f10bfe65)" style="fill: none; stroke: #b0b0b0; stroke-opacity: 0.2; stroke-width: 0.8; stroke-linecap: square"/>
     </g>
     <g id="line2d_34">
      <g>
       <use xlink:href="#m24669efeeb" x="200.729094" y="306.802719" style="stroke: #000000; stroke-width: 0.8"/>
      </g>
     </g>
     <g id="text_12">
      <!-- $\mathdefault{4}$ -->
      <g transform="translate(198.238427 320.721217) scale(0.1 -0.1)">
       <use xlink:href="#CMR17-34" transform="scale(0.996264)"/>
      </g>
     </g>
    </g>
    <g id="xtick_10">
     <g id="line2d_35">
      <path d="M 279.84054 306.802719 
L 279.84054 175.593084 
" clip-path="url(#p77f10bfe65)" style="fill: none; stroke: #b0b0b0; stroke-opacity: 0.2; stroke-width: 0.8; stroke-linecap: square"/>
     </g>
     <g id="line2d_36">
      <g>
       <use xlink:href="#m24669efeeb" x="279.84054" y="306.802719" style="stroke: #000000; stroke-width: 0.8"/>
      </g>
     </g>
     <g id="text_13">
      <!-- $\mathdefault{6}$ -->
      <g transform="translate(277.349873 320.721217) scale(0.1 -0.1)">
       <defs>
        <path id="CMR17-36" d="M 678 2176 
C 678 3690 1395 4032 1811 4032 
C 1946 4032 2272 4009 2400 3776 
C 2298 3776 2106 3776 2106 3553 
C 2106 3381 2246 3323 2336 3323 
C 2394 3323 2566 3348 2566 3560 
C 2566 3954 2246 4179 1805 4179 
C 1043 4179 243 3390 243 1984 
C 243 253 966 -128 1478 -128 
C 2099 -128 2688 427 2688 1283 
C 2688 2081 2170 2662 1517 2662 
C 1126 2662 838 2407 678 1960 
L 678 2176 
z
M 1478 25 
C 691 25 691 1200 691 1436 
C 691 1896 909 2560 1504 2560 
C 1613 2560 1926 2560 2138 2120 
C 2253 1870 2253 1609 2253 1289 
C 2253 944 2253 690 2118 434 
C 1978 171 1773 25 1478 25 
z
" transform="scale(0.015625)"/>
       </defs>
       <use xlink:href="#CMR17-36" transform="scale(0.996264)"/>
      </g>
     </g>
    </g>
    <g id="xtick_11">
     <g id="line2d_37">
      <path d="M 358.951986 306.802719 
L 358.951986 175.593084 
" clip-path="url(#p77f10bfe65)" style="fill: none; stroke: #b0b0b0; stroke-opacity: 0.2; stroke-width: 0.8; stroke-linecap: square"/>
     </g>
     <g id="line2d_38">
      <g>
       <use xlink:href="#m24669efeeb" x="358.951986" y="306.802719" style="stroke: #000000; stroke-width: 0.8"/>
      </g>
     </g>
     <g id="text_14">
      <!-- $\mathdefault{8}$ -->
      <g transform="translate(356.461319 320.721217) scale(0.1 -0.1)">
       <defs>
        <path id="CMR17-38" d="M 1741 2264 
C 2144 2467 2554 2773 2554 3263 
C 2554 3841 1990 4179 1472 4179 
C 890 4179 378 3759 378 3180 
C 378 3021 416 2747 666 2505 
C 730 2442 998 2251 1171 2130 
C 883 1983 211 1634 211 934 
C 211 279 838 -128 1459 -128 
C 2144 -128 2720 362 2720 1010 
C 2720 1590 2330 1857 2074 2029 
L 1741 2264 
z
M 902 2822 
C 851 2854 595 3051 595 3351 
C 595 3739 998 4032 1459 4032 
C 1965 4032 2336 3676 2336 3262 
C 2336 2669 1670 2331 1638 2331 
C 1632 2331 1626 2331 1574 2370 
L 902 2822 
z
M 2080 1519 
C 2176 1449 2483 1240 2483 851 
C 2483 381 2010 25 1472 25 
C 890 25 448 438 448 940 
C 448 1443 838 1862 1280 2060 
L 2080 1519 
z
" transform="scale(0.015625)"/>
       </defs>
       <use xlink:href="#CMR17-38" transform="scale(0.996264)"/>
      </g>
     </g>
    </g>
    <g id="xtick_12">
     <g id="line2d_39">
      <path d="M 438.063432 306.802719 
L 438.063432 175.593084 
" clip-path="url(#p77f10bfe65)" style="fill: none; stroke: #b0b0b0; stroke-opacity: 0.2; stroke-width: 0.8; stroke-linecap: square"/>
     </g>
     <g id="line2d_40">
      <g>
       <use xlink:href="#m24669efeeb" x="438.063432" y="306.802719" style="stroke: #000000; stroke-width: 0.8"/>
      </g>
     </g>
     <g id="text_15">
      <!-- $\mathdefault{10}$ -->
      <g transform="translate(433.082097 320.721217) scale(0.1 -0.1)">
       <use xlink:href="#CMR17-31" transform="scale(0.996264)"/>
       <use xlink:href="#CMR17-30" transform="translate(45.690477 0) scale(0.996264)"/>
      </g>
     </g>
    </g>
    <g id="text_16">
     <!-- $t$ -->
     <g transform="translate(237.09467 339.111696) scale(0.18 -0.18)">
      <defs>
       <path id="CMMI12-74" d="M 1286 2566 
L 1875 2566 
C 1997 2566 2061 2566 2061 2681 
C 2061 2752 2022 2752 1894 2752 
L 1331 2752 
L 1568 3692 
C 1594 3781 1594 3794 1594 3840 
C 1594 3943 1510 4000 1427 4000 
C 1376 4000 1229 3981 1178 3775 
L 928 2752 
L 326 2752 
C 198 2752 141 2752 141 2630 
C 141 2566 186 2566 307 2566 
L 877 2566 
L 454 881 
C 403 658 384 594 384 511 
C 384 211 595 -64 954 -64 
C 1600 -64 1946 868 1946 912 
C 1946 951 1920 970 1882 970 
C 1869 970 1843 970 1830 944 
C 1824 938 1818 931 1773 829 
C 1638 511 1344 64 973 64 
C 781 64 768 224 768 364 
C 768 370 768 492 787 568 
L 1286 2566 
z
" transform="scale(0.015625)"/>
      </defs>
      <use xlink:href="#CMMI12-74" transform="scale(0.996264)"/>
     </g>
    </g>
   </g>
   <g id="matplotlib.axis_4">
    <g id="ytick_7">
     <g id="line2d_41">
      <path d="M 22.730319 303.663563 
L 457.79976 303.663563 
" clip-path="url(#p77f10bfe65)" style="fill: none; stroke: #b0b0b0; stroke-opacity: 0.2; stroke-width: 0.8; stroke-linecap: square"/>
     </g>
     <g id="line2d_42">
      <g>
       <use xlink:href="#m85b40e7b2f" x="22.730319" y="303.663563" style="stroke: #000000; stroke-width: 0.8"/>
      </g>
     </g>
     <g id="text_17">
      <!-- $\mathdefault{2}$ -->
      <g transform="translate(3.00024 307.122812) scale(0.1 -0.1)">
       <defs>
        <path id="CMSY10-0" d="M 4218 1472 
C 4326 1472 4442 1472 4442 1600 
C 4442 1728 4326 1728 4218 1728 
L 755 1728 
C 646 1728 531 1728 531 1600 
C 531 1472 646 1472 755 1472 
L 4218 1472 
z
" transform="scale(0.015625)"/>
       </defs>
       <use xlink:href="#CMSY10-0" transform="scale(0.996264)"/>
       <use xlink:href="#CMR17-32" transform="translate(77.487468 0) scale(0.996264)"/>
      </g>
     </g>
    </g>
    <g id="ytick_8">
     <g id="line2d_43">
      <path d="M 22.730319 277.740839 
L 457.79976 277.740839 
" clip-path="url(#p77f10bfe65)" style="fill: none; stroke: #b0b0b0; stroke-opacity: 0.2; stroke-width: 0.8; stroke-linecap: square"/>
     </g>
     <g id="line2d_44">
      <g>
       <use xlink:href="#m85b40e7b2f" x="22.730319" y="277.740839" style="stroke: #000000; stroke-width: 0.8"/>
      </g>
     </g>
     <g id="text_18">
      <!-- $\mathdefault{0}$ -->
      <g transform="translate(10.748984 281.200088) scale(0.1 -0.1)">
       <use xlink:href="#CMR17-30" transform="scale(0.996264)"/>
      </g>
     </g>
    </g>
    <g id="ytick_9">
     <g id="line2d_45">
      <path d="M 22.730319 251.818115 
L 457.79976 251.818115 
" clip-path="url(#p77f10bfe65)" style="fill: none; stroke: #b0b0b0; stroke-opacity: 0.2; stroke-width: 0.8; stroke-linecap: square"/>
     </g>
     <g id="line2d_46">
      <g>
       <use xlink:href="#m85b40e7b2f" x="22.730319" y="251.818115" style="stroke: #000000; stroke-width: 0.8"/>
      </g>
     </g>
     <g id="text_19">
      <!-- $\mathdefault{2}$ -->
      <g transform="translate(10.748984 255.277364) scale(0.1 -0.1)">
       <use xlink:href="#CMR17-32" transform="scale(0.996264)"/>
      </g>
     </g>
    </g>
    <g id="ytick_10">
     <g id="line2d_47">
      <path d="M 22.730319 225.89539 
L 457.79976 225.89539 
" clip-path="url(#p77f10bfe65)" style="fill: none; stroke: #b0b0b0; stroke-opacity: 0.2; stroke-width: 0.8; stroke-linecap: square"/>
     </g>
     <g id="line2d_48">
      <g>
       <use xlink:href="#m85b40e7b2f" x="22.730319" y="225.89539" style="stroke: #000000; stroke-width: 0.8"/>
      </g>
     </g>
     <g id="text_20">
      <!-- $\mathdefault{4}$ -->
      <g transform="translate(10.748984 229.354639) scale(0.1 -0.1)">
       <use xlink:href="#CMR17-34" transform="scale(0.996264)"/>
      </g>
     </g>
    </g>
    <g id="ytick_11">
     <g id="line2d_49">
      <path d="M 22.730319 199.972666 
L 457.79976 199.972666 
" clip-path="url(#p77f10bfe65)" style="fill: none; stroke: #b0b0b0; stroke-opacity: 0.2; stroke-width: 0.8; stroke-linecap: square"/>
     </g>
     <g id="line2d_50">
      <g>
       <use xlink:href="#m85b40e7b2f" x="22.730319" y="199.972666" style="stroke: #000000; stroke-width: 0.8"/>
      </g>
     </g>
     <g id="text_21">
      <!-- $\mathdefault{6}$ -->
      <g transform="translate(10.748984 203.431915) scale(0.1 -0.1)">
       <use xlink:href="#CMR17-36" transform="scale(0.996264)"/>
      </g>
     </g>
    </g>
   </g>
   <g id="line2d_51">
    <path d="M 42.506203 300.838645 
L 43.020427 292.744508 
L 43.534651 287.934909 
L 44.048876 285.056358 
L 44.5631 283.309581 
L 45.11688 282.157656 
L 45.749772 281.350184 
L 46.540886 280.716167 
L 47.846225 280.000426 
L 55.876037 276.179063 
L 57.893379 275.529254 
L 59.712942 275.171368 
L 61.453394 275.054834 
L 63.15429 275.161028 
L 64.934298 275.498958 
L 66.832972 276.093024 
L 69.008537 277.018911 
L 71.935661 278.530368 
L 76.56368 280.919294 
L 78.581022 281.69742 
L 80.281918 282.124123 
L 81.824591 282.28632 
L 83.288153 282.217965 
L 84.751715 281.92159 
L 86.254832 281.381174 
L 87.837061 280.571804 
L 89.656624 279.383683 
L 92.069524 277.519584 
L 93.256195 276.545668 
L 93.335307 275.514375 
L 93.730864 269.758303 
L 94.126421 266.975118 
L 94.442867 266.03038 
L 94.719757 265.787466 
L 94.957091 265.866128 
L 95.313093 266.298385 
L 95.945984 267.523227 
L 97.765548 271.169672 
L 98.793996 272.677758 
L 99.822445 273.808583 
L 100.930005 274.704894 
L 102.156233 275.413345 
L 103.580239 275.971918 
L 105.281135 276.388017 
L 105.914027 276.493503 
L 106.428251 274.161076 
L 106.942475 272.828724 
L 107.4567 272.104122 
L 107.970924 271.751966 
L 108.56426 271.627856 
L 109.276263 271.716399 
L 110.265156 272.079836 
L 111.649606 272.840812 
L 113.587837 274.178367 
L 116.435849 276.44668 
L 121.024313 280.100486 
L 123.08121 281.43582 
L 124.782106 282.2858 
L 126.32478 282.814437 
L 127.788341 283.079817 
L 129.212347 283.107293 
L 130.636353 282.908006 
L 132.139471 282.464204 
L 133.761255 281.745373 
L 135.65993 280.647814 
L 137.281715 279.556485 
L 137.716828 273.435058 
L 138.112385 270.714198 
L 138.468387 269.600958 
L 138.784832 269.247391 
L 139.061722 269.243761 
L 139.417724 269.493649 
L 140.050615 270.27981 
L 142.067957 272.930377 
L 143.175518 273.965057 
L 144.362189 274.774182 
L 145.707084 275.417573 
L 147.289313 275.917573 
L 149.187987 276.27666 
L 151.679998 276.506839 
L 155.675126 276.618207 
L 156.624463 274.094747 
L 157.099132 273.587684 
L 157.613356 273.345516 
L 158.246248 273.312601 
L 159.076918 273.517587 
L 160.303146 274.072046 
L 162.360043 275.277354 
L 169.005405 279.326979 
L 170.943635 280.162349 
L 172.644531 280.659875 
L 174.266316 280.90434 
L 175.848545 280.920594 
L 177.509885 280.712148 
L 179.329448 280.252309 
L 181.544569 279.448994 
L 187.398816 277.014017 
L 187.794373 275.654537 
L 188.18993 275.005042 
L 188.585487 274.75579 
L 189.060156 274.740936 
L 189.811715 274.990855 
L 192.620171 276.084389 
L 194.47929 276.488289 
L 196.892189 276.769854 
L 200.21487 276.916371 
L 205.713116 277.126681 
L 207.295344 277.66207 
L 210.182912 278.380364 
L 213.07048 278.887549 
L 215.443823 279.086789 
L 217.619388 279.046785 
L 219.715841 278.784261 
L 221.930962 278.275924 
L 224.581195 277.424643 
L 230.751888 275.349393 
L 232.690119 274.992246 
L 234.43057 274.895732 
L 236.091911 275.027703 
L 237.199471 275.240252 
L 237.634584 279.44242 
L 238.030141 281.354871 
L 238.386143 282.173857 
L 238.742144 282.484167 
L 239.098146 282.491244 
L 239.572814 282.244772 
L 240.601263 281.371914 
L 242.104381 280.182503 
L 243.409719 279.43984 
L 244.873281 278.866927 
L 246.653289 278.417635 
L 248.947521 278.078495 
L 252.072423 277.852866 
L 255.039102 277.795902 
L 255.632438 280.05484 
L 256.146662 281.169593 
L 256.700442 281.853288 
L 257.293778 282.232573 
L 258.005781 282.410605 
L 258.915563 282.396197 
L 260.181346 282.137228 
L 261.842686 281.55666 
L 263.820472 280.621533 
L 266.193816 279.241724 
L 269.991165 276.729591 
L 273.313846 274.635049 
L 275.370744 273.596005 
L 277.07164 272.97487 
L 278.614313 272.640758 
L 280.077875 272.54922 
L 281.501881 272.682123 
L 282.965442 273.047543 
L 284.508116 273.672053 
L 286.169456 274.589872 
L 286.921015 275.076602 
L 287.474795 283.452576 
L 287.870352 286.050707 
L 288.226354 287.052008 
L 288.503244 287.297596 
L 288.780134 287.247803 
L 289.136135 286.915633 
L 289.808582 285.904784 
L 291.58859 283.141977 
L 292.69615 281.88126 
L 293.843266 280.920026 
L 295.069494 280.181529 
L 296.4935 279.588748 
L 298.194396 279.132663 
L 300.290849 278.810701 
L 303.05975 278.622149 
L 304.760646 278.672108 
L 305.27487 281.197381 
L 305.789095 282.63733 
L 306.263763 283.376385 
L 306.777988 283.781252 
L 307.331768 283.930932 
L 308.004215 283.872332 
L 308.913997 283.553821 
L 310.219336 282.840236 
L 312.078454 281.547083 
L 314.807799 279.348514 
L 319.475375 275.581241 
L 321.492717 274.259848 
L 323.193613 273.403644 
L 324.736286 272.872591 
L 326.199848 272.605515 
L 327.623854 272.574401 
L 329.04786 272.765509 
L 330.550977 273.193188 
L 332.212317 273.903145 
L 334.190104 275.004259 
L 336.603003 276.581523 
L 336.642558 276.658261 
L 337.038116 281.923599 
L 337.433673 284.573125 
L 337.789674 285.657992 
L 338.10612 286.002713 
L 338.38301 286.006124 
L 338.739012 285.761944 
L 339.371903 284.993635 
L 341.389245 282.404551 
L 342.536361 281.365112 
L 343.723033 280.58636 
L 345.067927 279.96862 
L 346.650156 279.490508 
L 348.588387 279.144768 
L 351.159509 278.928253 
L 354.442634 278.831955 
L 355.31286 280.881005 
L 355.827084 281.377018 
L 356.380864 281.588649 
L 357.053311 281.58394 
L 357.963093 281.333665 
L 359.387099 280.686445 
L 362.076888 279.175885 
L 366.309351 276.824925 
L 368.44536 275.904322 
L 370.264923 275.357072 
L 371.965819 275.076863 
L 373.627159 275.029878 
L 375.328055 275.205845 
L 377.187174 275.625599 
L 379.481406 276.385665 
L 386.522325 279.096334 
L 386.957438 279.434111 
L 387.471662 279.535395 
L 388.262777 279.430036 
L 392.099682 278.686189 
L 394.98725 278.469513 
L 399.259268 278.390175 
L 404.243289 278.279821 
L 404.915736 277.624738 
L 405.746406 277.146942 
L 406.933078 276.748787 
L 408.792197 276.383764 
L 411.16554 276.141611 
L 413.459772 276.124694 
L 415.635337 276.328986 
L 417.810902 276.758499 
L 420.14469 277.450025 
L 423.230036 278.616613 
L 427.660277 280.276749 
L 429.717175 280.796771 
L 431.457626 281.015957 
L 433.079411 281.001639 
L 434.66164 280.769284 
L 436.04609 280.390116 
L 436.639426 274.365491 
L 437.034983 272.666392 
L 437.390985 272.004716 
L 437.707431 271.830834 
L 438.023876 271.894967 
L 438.023876 271.894967 
" clip-path="url(#p77f10bfe65)" style="fill: none; stroke: #1f77b4; stroke-width: 1.5; stroke-linecap: square"/>
   </g>
   <g id="line2d_52">
    <path d="M 42.506203 181.557158 
L 43.020427 221.862402 
L 43.534651 245.921802 
L 44.048876 260.355231 
L 44.5631 269.08441 
L 45.077325 274.430822 
L 45.631105 277.967305 
L 46.184885 280.164501 
L 46.778221 281.671376 
L 47.450668 282.787567 
L 48.241782 283.668503 
L 49.230676 284.427278 
L 50.456903 285.076784 
L 51.801798 285.535579 
L 53.146692 285.765531 
L 54.531142 285.774666 
L 55.915593 285.562291 
L 57.379154 285.11229 
L 58.961383 284.391443 
L 60.780947 283.309751 
L 63.075179 281.666521 
L 70.155653 276.391843 
L 71.975216 275.420698 
L 73.597001 274.802725 
L 75.100118 274.464744 
L 76.56368 274.363058 
L 78.027242 274.483378 
L 79.569915 274.834116 
L 81.310367 275.465722 
L 83.485932 276.507224 
L 89.498402 279.520316 
L 91.397076 280.141371 
L 93.177084 280.490884 
L 93.335307 280.618358 
L 93.730864 281.212312 
L 94.126421 281.411915 
L 94.60109 281.374045 
L 95.392204 281.034454 
L 97.567769 280.034339 
L 99.149998 279.600251 
L 101.16734 279.29503 
L 104.371353 279.06866 
L 106.151361 278.878728 
L 107.694034 278.3239 
L 110.621158 277.540241 
L 113.785615 276.906052 
L 116.356737 276.61197 
L 118.611414 276.57617 
L 120.747423 276.765223 
L 122.922987 277.183291 
L 125.414998 277.896607 
L 132.811918 280.183461 
L 134.671037 280.415976 
L 136.371933 280.404805 
L 137.281715 280.304265 
L 137.756383 276.202784 
L 138.151941 274.565347 
L 138.507942 273.877648 
L 138.863944 273.63145 
L 139.219945 273.647096 
L 139.73417 273.913701 
L 141.11862 275.001864 
L 142.50307 275.926458 
L 143.887521 276.576269 
L 145.469749 277.068492 
L 147.447536 277.444009 
L 150.137325 277.715006 
L 153.855563 277.854226 
L 155.675126 277.850208 
L 156.703575 274.755879 
L 157.257355 274.027108 
L 157.850691 273.612742 
L 158.562694 273.401673 
L 159.472475 273.379675 
L 160.738259 273.589979 
L 162.399599 274.103853 
L 164.377385 274.954828 
L 166.711173 276.209988 
L 170.033853 278.278577 
L 174.147649 280.795272 
L 176.244102 281.814063 
L 177.984554 282.420612 
L 179.566783 282.737471 
L 181.030344 282.806753 
L 182.45435 282.65601 
L 183.917912 282.275917 
L 185.460585 281.639763 
L 187.161481 280.689013 
L 187.398816 280.494054 
L 187.794373 273.832968 
L 188.18993 270.43343 
L 188.545932 268.999537 
L 188.862378 268.503443 
L 189.139268 268.446252 
L 189.455713 268.650077 
L 189.969938 269.311901 
L 192.659727 273.213603 
L 193.767287 274.263219 
L 194.953959 275.081984 
L 196.298853 275.734092 
L 197.881082 276.243566 
L 199.819313 276.620778 
L 202.311323 276.864501 
L 205.317558 276.95934 
L 205.39667 276.632158 
L 205.910894 274.185633 
L 206.425119 272.790159 
L 206.939343 272.031776 
L 207.453567 271.663441 
L 208.007347 271.535103 
L 208.71935 271.615148 
L 209.668688 271.964524 
L 211.013582 272.712845 
L 212.912257 274.043744 
L 215.720713 276.316797 
L 220.230066 279.964843 
L 222.247408 281.298026 
L 223.948304 282.166111 
L 225.490977 282.708363 
L 226.914983 282.980912 
L 228.338989 283.025945 
L 229.762995 282.845411 
L 231.266113 282.423694 
L 232.887897 281.731999 
L 234.786572 280.670496 
L 237.199471 279.065472 
L 237.634584 273.131958 
L 238.030141 270.513456 
L 238.386143 269.458069 
L 238.702588 269.139777 
L 238.979478 269.159003 
L 239.33548 269.431003 
L 240.007927 270.301056 
L 241.867046 272.804444 
L 242.974607 273.883278 
L 244.161278 274.726785 
L 245.466617 275.380309 
L 247.00929 275.895398 
L 248.868409 276.270983 
L 251.241753 276.512591 
L 254.999546 276.641586 
L 255.039102 276.642376 
L 255.592882 274.953955 
L 256.067551 274.165515 
L 256.581775 273.731315 
L 257.135555 273.562711 
L 257.808003 273.601973 
L 258.75734 273.901059 
L 260.260457 274.639476 
L 263.029358 276.292851 
L 267.143153 278.717441 
L 269.239607 279.690824 
L 271.05917 280.294534 
L 272.72051 280.615055 
L 274.342295 280.703149 
L 276.003635 280.568369 
L 277.783643 280.197211 
L 279.880096 279.524232 
L 283.321444 278.141302 
L 286.565013 276.926644 
L 286.96057 276.71203 
L 287.356128 275.840485 
L 287.751685 275.445224 
L 288.186798 275.312771 
L 288.780134 275.383008 
L 290.20414 275.863101 
L 292.063259 276.385054 
L 294.159712 276.724982 
L 296.968168 276.94148 
L 301.121519 277.018076 
L 304.839757 277.115687 
L 305.630872 277.638004 
L 306.738432 278.084744 
L 308.557995 278.554677 
L 311.168673 278.997852 
L 313.621128 279.196995 
L 315.836248 279.157374 
L 317.972257 278.896215 
L 320.187378 278.394572 
L 322.718944 277.582078 
L 330.15542 275.027553 
L 332.014539 274.729556 
L 333.715435 274.683623 
L 335.33722 274.862723 
L 336.642558 275.207489 
L 337.077671 279.795819 
L 337.473229 281.864143 
L 337.82923 282.743623 
L 338.145676 283.053215 
L 338.462122 283.088027 
L 338.897235 282.875724 
L 339.688349 282.167173 
L 341.468357 280.558997 
L 342.73414 279.743544 
L 344.11859 279.119932 
L 345.77993 278.625392 
L 347.876384 278.246922 
L 350.68484 277.981865 
L 354.244855 277.874633 
L 354.442634 277.874672 
L 355.391971 281.102735 
L 355.906195 281.908888 
L 356.459976 282.384807 
L 357.092867 282.632444 
L 357.883982 282.688748 
L 358.951986 282.523456 
L 360.415548 282.053191 
L 362.235111 281.224451 
L 364.410676 279.979863 
L 367.337799 278.026427 
L 372.361376 274.655619 
L 374.418274 273.569552 
L 376.11917 272.913757 
L 377.661843 272.551733 
L 379.125405 272.436865 
L 380.549411 272.55002 
L 381.973417 272.885745 
L 383.476534 273.470896 
L 385.137875 274.365383 
L 386.324546 275.138859 
L 386.443214 277.212251 
L 386.838771 283.037307 
L 387.234328 285.943585 
L 387.59033 287.102958 
L 387.86722 287.422689 
L 388.14411 287.418729 
L 388.500111 287.117847 
L 389.093447 286.25034 
L 391.1899 282.99592 
L 392.257905 281.819101 
L 393.405021 280.88554 
L 394.670804 280.149458 
L 396.09481 279.580929 
L 397.795706 279.144733 
L 399.931715 278.835168 
L 402.779727 278.659602 
L 404.164177 278.653192 
L 404.678402 281.173372 
L 405.192626 282.60719 
L 405.667295 283.340148 
L 406.181519 283.738259 
L 406.735299 283.880736 
L 407.407747 283.813731 
L 408.317528 283.484774 
L 409.622867 282.758625 
L 411.481986 281.453685 
L 414.369554 279.121736 
L 418.562461 275.762662 
L 420.619358 274.413501 
L 422.320254 273.554905 
L 423.862928 273.019012 
L 425.326489 272.744713 
L 426.750495 272.703811 
L 428.214057 272.890076 
L 429.75673 273.32014 
L 431.457626 274.036275 
L 433.474968 275.139929 
L 436.04609 276.780142 
L 436.639426 283.193472 
L 437.034983 284.924184 
L 437.351429 285.502411 
L 437.628319 285.645817 
L 437.944765 285.548462 
L 438.023876 285.494088 
L 438.023876 285.494088 
" clip-path="url(#p77f10bfe65)" style="fill: none; stroke: #ff7f0e; stroke-width: 1.5; stroke-linecap: square"/>
   </g>
   <g id="patch_9">
    <path d="M 22.730319 306.802719 
L 22.730319 175.593084 
" style="fill: none; stroke: #000000; stroke-width: 0.8; stroke-linejoin: miter; stroke-linecap: square"/>
   </g>
   <g id="patch_10">
    <path d="M 457.79976 306.802719 
L 457.79976 175.593084 
" style="fill: none; stroke: #000000; stroke-width: 0.8; stroke-linejoin: miter; stroke-linecap: square"/>
   </g>
   <g id="patch_11">
    <path d="M 22.730319 306.802719 
L 457.79976 306.802719 
" style="fill: none; stroke: #000000; stroke-width: 0.8; stroke-linejoin: miter; stroke-linecap: square"/>
   </g>
   <g id="patch_12">
    <path d="M 22.730319 175.593084 
L 457.79976 175.593084 
" style="fill: none; stroke: #000000; stroke-width: 0.8; stroke-linejoin: miter; stroke-linecap: square"/>
   </g>
   <g id="text_22">
    <!-- Inputs -->
    <g transform="translate(217.188468 172.10502) scale(0.18 -0.18)">
     <defs>
      <path id="CMR17-49" d="M 1261 3905 
C 1261 4192 1338 4192 1798 4192 
L 1798 4352 
C 1594 4352 1267 4352 1050 4352 
C 832 4352 506 4352 301 4352 
L 301 4192 
C 762 4192 838 4192 838 3905 
L 838 447 
C 838 160 762 160 301 160 
L 301 0 
C 506 0 832 0 1050 0 
C 1267 0 1594 0 1798 0 
L 1798 160 
C 1338 160 1261 160 1261 447 
L 1261 3905 
z
" transform="scale(0.015625)"/>
      <path id="CMR17-70" d="M 1408 -1063 
C 998 -1063 973 -1037 973 -789 
L 973 402 
C 1158 134 1427 -38 1766 -38 
C 2406 -38 3053 523 3053 1388 
C 3053 2191 2496 2802 1837 2802 
C 1453 2802 1139 2592 960 2338 
L 960 2802 
L 198 2732 
L 198 2567 
C 576 2567 634 2528 634 2223 
L 634 -789 
C 634 -1031 608 -1063 198 -1063 
L 198 -1228 
C 352 -1216 634 -1216 800 -1216 
C 966 -1216 1254 -1216 1408 -1228 
L 1408 -1063 
z
M 973 2012 
C 973 2102 973 2235 1222 2471 
C 1254 2497 1472 2688 1792 2688 
C 2259 2688 2643 2108 2643 1382 
C 2643 656 2234 64 1728 64 
C 1498 64 1248 172 1056 472 
C 973 612 973 650 973 752 
L 973 2012 
z
" transform="scale(0.015625)"/>
      <path id="CMR17-73" d="M 1978 2697 
C 1978 2813 1971 2819 1933 2819 
C 1907 2819 1901 2813 1824 2717 
C 1805 2691 1747 2626 1728 2601 
C 1523 2819 1235 2819 1126 2819 
C 416 2819 160 2447 160 2076 
C 160 1498 813 1365 998 1325 
C 1402 1243 1542 1217 1677 1101 
C 1760 1025 1901 884 1901 654 
C 1901 384 1747 38 1158 38 
C 602 38 403 460 288 1021 
C 269 1110 269 1117 218 1117 
C 166 1117 160 1110 160 983 
L 160 63 
C 160 -51 166 -58 205 -58 
C 237 -58 243 -51 275 0 
C 314 57 410 211 448 276 
C 576 103 800 -64 1158 -64 
C 1792 -64 2131 283 2131 784 
C 2131 1112 1958 1285 1875 1362 
C 1683 1561 1459 1606 1190 1657 
C 838 1735 390 1825 390 2217 
C 390 2383 480 2737 1126 2737 
C 1811 2737 1850 2094 1862 1888 
C 1869 1856 1901 1849 1920 1849 
C 1978 1849 1978 1869 1978 1978 
L 1978 2697 
z
" transform="scale(0.015625)"/>
     </defs>
     <use xlink:href="#CMR17-49" transform="scale(0.996264)"/>
     <use xlink:href="#CMR17-6e" transform="translate(32.638409 0) scale(0.996264)"/>
     <use xlink:href="#CMR17-70" transform="translate(83.533779 0) scale(0.996264)"/>
     <use xlink:href="#CMR17-75" transform="translate(134.429149 0) scale(0.996264)"/>
     <use xlink:href="#CMR17-74" transform="translate(185.324519 0) scale(0.996264)"/>
     <use xlink:href="#CMR17-73" transform="translate(220.605286 0) scale(0.996264)"/>
    </g>
   </g>
   <g id="legend_2">
    <g id="patch_13">
     <path d="M 392.251604 225.817141 
L 447.99976 225.817141 
Q 450.79976 225.817141 450.79976 223.017141 
L 450.79976 185.393084 
Q 450.79976 182.593084 447.99976 182.593084 
L 392.251604 182.593084 
Q 389.451604 182.593084 389.451604 185.393084 
L 389.451604 223.017141 
Q 389.451604 225.817141 392.251604 225.817141 
z
" style="fill: #ffffff; opacity: 0.8; stroke: #cccccc; stroke-linejoin: miter"/>
    </g>
    <g id="line2d_53">
     <path d="M 395.051604 193.093084 
L 409.051604 193.093084 
L 423.051604 193.093084 
" style="fill: none; stroke: #1f77b4; stroke-width: 1.5; stroke-linecap: square"/>
    </g>
    <g id="text_23">
     <!-- $\tau_1$ -->
     <g transform="translate(434.251604 197.993084) scale(0.14 -0.14)">
      <defs>
       <path id="CMMI12-1c" d="M 1837 2408 
L 2899 2408 
C 2982 2408 3194 2408 3194 2612 
C 3194 2752 3072 2752 2957 2752 
L 1197 2752 
C 1050 2752 832 2752 538 2440 
C 371 2255 166 1917 166 1879 
C 166 1841 198 1828 237 1828 
C 282 1828 288 1847 320 1885 
C 653 2408 986 2408 1146 2408 
L 1677 2408 
L 1011 223 
C 979 127 979 114 979 95 
C 979 25 1024 -64 1152 -64 
C 1350 -64 1382 108 1402 203 
L 1837 2408 
z
" transform="scale(0.015625)"/>
      </defs>
      <use xlink:href="#CMMI12-1c" transform="scale(0.996264)"/>
      <use xlink:href="#CMR17-31" transform="translate(42.363841 -14.943915) scale(0.697382)"/>
     </g>
    </g>
    <g id="line2d_54">
     <path d="M 395.051604 212.605112 
L 409.051604 212.605112 
L 423.051604 212.605112 
" style="fill: none; stroke: #ff7f0e; stroke-width: 1.5; stroke-linecap: square"/>
    </g>
    <g id="text_24">
     <!-- $\tau_2$ -->
     <g transform="translate(434.251604 217.505112) scale(0.14 -0.14)">
      <use xlink:href="#CMMI12-1c" transform="scale(0.996264)"/>
      <use xlink:href="#CMR17-32" transform="translate(42.363841 -14.943915) scale(0.697382)"/>
     </g>
    </g>
   </g>
  </g>
 </g>
 <defs>
  <clipPath id="pb16425b9ea">
   <rect x="22.730319" y="18.941604" width="435.069441" height="131.209635"/>
  </clipPath>
  <clipPath id="p77f10bfe65">
   <rect x="22.730319" y="175.593084" width="435.069441" height="131.209635"/>
  </clipPath>
 </defs>
</svg>
