<?xml version="1.0" encoding="utf-8" standalone="no"?>
<!DOCTYPE svg PUBLIC "-//W3C//DTD SVG 1.1//EN"
  "http://www.w3.org/Graphics/SVG/1.1/DTD/svg11.dtd">
<svg xmlns:xlink="http://www.w3.org/1999/xlink" width="460.8pt" height="345.6pt" viewBox="0 0 460.8 345.6" xmlns="http://www.w3.org/2000/svg" version="1.1">
 <metadata>
  <rdf:RDF xmlns:dc="http://purl.org/dc/elements/1.1/" xmlns:cc="http://creativecommons.org/ns#" xmlns:rdf="http://www.w3.org/1999/02/22-rdf-syntax-ns#">
   <cc:Work>
    <dc:type rdf:resource="http://purl.org/dc/dcmitype/StillImage"/>
    <dc:date>2025-09-24T23:20:49.286989</dc:date>
    <dc:format>image/svg+xml</dc:format>
    <dc:creator>
     <cc:Agent>
      <dc:title>Matplotlib v3.10.3, https://matplotlib.org/</dc:title>
     </cc:Agent>
    </dc:creator>
   </cc:Work>
  </rdf:RDF>
 </metadata>
 <defs>
  <style type="text/css">*{stroke-linejoin: round; stroke-linecap: butt}</style>
 </defs>
 <g id="figure_1">
  <g id="patch_1">
   <path d="M 0 345.6 
L 460.8 345.6 
L 460.8 0 
L 0 0 
z
" style="fill: #ffffff"/>
  </g>
  <g id="axes_1">
   <g id="patch_2">
    <path d="M 27.711654 150.151239 
L 457.79976 150.151239 
L 457.79976 18.941604 
L 27.711654 18.941604 
z
" style="fill: #ffffff"/>
   </g>
   <g id="matplotlib.axis_1">
    <g id="xtick_1">
     <g id="line2d_1">
      <path d="M 47.261114 150.151239 
L 47.261114 18.941604 
" clip-path="url(#p5e48fbb10b)" style="fill: none; stroke: #b0b0b0; stroke-opacity: 0.2; stroke-width: 0.8; stroke-linecap: square"/>
     </g>
     <g id="line2d_2">
      <defs>
       <path id="m85c1997103" d="M 0 0 
L 0 3.5 
" style="stroke: #000000; stroke-width: 0.8"/>
      </defs>
      <g>
       <use xlink:href="#m85c1997103" x="47.261114" y="150.151239" style="stroke: #000000; stroke-width: 0.8"/>
      </g>
     </g>
    </g>
    <g id="xtick_2">
     <g id="line2d_3">
      <path d="M 125.466772 150.151239 
L 125.466772 18.941604 
" clip-path="url(#p5e48fbb10b)" style="fill: none; stroke: #b0b0b0; stroke-opacity: 0.2; stroke-width: 0.8; stroke-linecap: square"/>
     </g>
     <g id="line2d_4">
      <g>
       <use xlink:href="#m85c1997103" x="125.466772" y="150.151239" style="stroke: #000000; stroke-width: 0.8"/>
      </g>
     </g>
    </g>
    <g id="xtick_3">
     <g id="line2d_5">
      <path d="M 203.67243 150.151239 
L 203.67243 18.941604 
" clip-path="url(#p5e48fbb10b)" style="fill: none; stroke: #b0b0b0; stroke-opacity: 0.2; stroke-width: 0.8; stroke-linecap: square"/>
     </g>
     <g id="line2d_6">
      <g>
       <use xlink:href="#m85c1997103" x="203.67243" y="150.151239" style="stroke: #000000; stroke-width: 0.8"/>
      </g>
     </g>
    </g>
    <g id="xtick_4">
     <g id="line2d_7">
      <path d="M 281.878088 150.151239 
L 281.878088 18.941604 
" clip-path="url(#p5e48fbb10b)" style="fill: none; stroke: #b0b0b0; stroke-opacity: 0.2; stroke-width: 0.8; stroke-linecap: square"/>
     </g>
     <g id="line2d_8">
      <g>
       <use xlink:href="#m85c1997103" x="281.878088" y="150.151239" style="stroke: #000000; stroke-width: 0.8"/>
      </g>
     </g>
    </g>
    <g id="xtick_5">
     <g id="line2d_9">
      <path d="M 360.083745 150.151239 
L 360.083745 18.941604 
" clip-path="url(#p5e48fbb10b)" style="fill: none; stroke: #b0b0b0; stroke-opacity: 0.2; stroke-width: 0.8; stroke-linecap: square"/>
     </g>
     <g id="line2d_10">
      <g>
       <use xlink:href="#m85c1997103" x="360.083745" y="150.151239" style="stroke: #000000; stroke-width: 0.8"/>
      </g>
     </g>
    </g>
    <g id="xtick_6">
     <g id="line2d_11">
      <path d="M 438.289403 150.151239 
L 438.289403 18.941604 
" clip-path="url(#p5e48fbb10b)" style="fill: none; stroke: #b0b0b0; stroke-opacity: 0.2; stroke-width: 0.8; stroke-linecap: square"/>
     </g>
     <g id="line2d_12">
      <g>
       <use xlink:href="#m85c1997103" x="438.289403" y="150.151239" style="stroke: #000000; stroke-width: 0.8"/>
      </g>
     </g>
    </g>
   </g>
   <g id="matplotlib.axis_2">
    <g id="ytick_1">
     <g id="line2d_13">
      <path d="M 27.711654 147.4835 
L 457.79976 147.4835 
" clip-path="url(#p5e48fbb10b)" style="fill: none; stroke: #b0b0b0; stroke-opacity: 0.2; stroke-width: 0.8; stroke-linecap: square"/>
     </g>
     <g id="line2d_14">
      <defs>
       <path id="mef4ae14e61" d="M 0 0 
L -3.5 0 
" style="stroke: #000000; stroke-width: 0.8"/>
      </defs>
      <g>
       <use xlink:href="#mef4ae14e61" x="27.711654" y="147.4835" style="stroke: #000000; stroke-width: 0.8"/>
      </g>
     </g>
     <g id="text_1">
      <!-- $\mathdefault{0.00}$ -->
      <g transform="translate(3.00024 150.942749) scale(0.1 -0.1)">
       <defs>
        <path id="CMR17-30" d="M 2688 2025 
C 2688 2416 2682 3080 2413 3591 
C 2176 4039 1798 4198 1466 4198 
C 1158 4198 768 4058 525 3597 
C 269 3118 243 2524 243 2025 
C 243 1661 250 1106 448 619 
C 723 -39 1216 -128 1466 -128 
C 1760 -128 2208 -7 2470 600 
C 2662 1042 2688 1559 2688 2025 
z
M 1466 -26 
C 1056 -26 813 325 723 812 
C 653 1188 653 1738 653 2096 
C 653 2588 653 2997 736 3387 
C 858 3929 1216 4096 1466 4096 
C 1728 4096 2067 3923 2189 3400 
C 2272 3036 2278 2607 2278 2096 
C 2278 1680 2278 1169 2202 792 
C 2067 95 1690 -26 1466 -26 
z
" transform="scale(0.015625)"/>
        <path id="CMMI12-3a" d="M 1178 307 
C 1178 492 1024 619 870 619 
C 685 619 557 466 557 313 
C 557 128 710 0 864 0 
C 1050 0 1178 153 1178 307 
z
" transform="scale(0.015625)"/>
       </defs>
       <use xlink:href="#CMR17-30" transform="scale(0.996264)"/>
       <use xlink:href="#CMMI12-3a" transform="translate(45.690477 0) scale(0.996264)"/>
       <use xlink:href="#CMR17-30" transform="translate(72.787654 0) scale(0.996264)"/>
       <use xlink:href="#CMR17-30" transform="translate(118.478131 0) scale(0.996264)"/>
      </g>
     </g>
    </g>
    <g id="ytick_2">
     <g id="line2d_15">
      <path d="M 27.711654 118.818147 
L 457.79976 118.818147 
" clip-path="url(#p5e48fbb10b)" style="fill: none; stroke: #b0b0b0; stroke-opacity: 0.2; stroke-width: 0.8; stroke-linecap: square"/>
     </g>
     <g id="line2d_16">
      <g>
       <use xlink:href="#mef4ae14e61" x="27.711654" y="118.818147" style="stroke: #000000; stroke-width: 0.8"/>
      </g>
     </g>
     <g id="text_2">
      <!-- $\mathdefault{0.05}$ -->
      <g transform="translate(3.00024 122.277397) scale(0.1 -0.1)">
       <defs>
        <path id="CMR17-35" d="M 730 3692 
C 794 3666 1056 3584 1325 3584 
C 1920 3584 2246 3911 2432 4100 
C 2432 4157 2432 4192 2394 4192 
C 2387 4192 2374 4192 2323 4163 
C 2099 4058 1837 3973 1517 3973 
C 1325 3973 1037 3999 723 4139 
C 653 4171 640 4171 634 4171 
C 602 4171 595 4164 595 4037 
L 595 2203 
C 595 2089 595 2057 659 2057 
C 691 2057 704 2070 736 2114 
C 941 2401 1222 2522 1542 2522 
C 1766 2522 2246 2382 2246 1289 
C 2246 1085 2246 715 2054 421 
C 1894 159 1645 25 1370 25 
C 947 25 518 320 403 814 
C 429 807 480 795 506 795 
C 589 795 749 840 749 1038 
C 749 1210 627 1280 506 1280 
C 358 1280 262 1190 262 1011 
C 262 454 704 -128 1382 -128 
C 2042 -128 2669 440 2669 1264 
C 2669 2030 2170 2624 1549 2624 
C 1222 2624 947 2503 730 2274 
L 730 3692 
z
" transform="scale(0.015625)"/>
       </defs>
       <use xlink:href="#CMR17-30" transform="scale(0.996264)"/>
       <use xlink:href="#CMMI12-3a" transform="translate(45.690477 0) scale(0.996264)"/>
       <use xlink:href="#CMR17-30" transform="translate(72.787654 0) scale(0.996264)"/>
       <use xlink:href="#CMR17-35" transform="translate(118.478131 0) scale(0.996264)"/>
      </g>
     </g>
    </g>
    <g id="ytick_3">
     <g id="line2d_17">
      <path d="M 27.711654 90.152795 
L 457.79976 90.152795 
" clip-path="url(#p5e48fbb10b)" style="fill: none; stroke: #b0b0b0; stroke-opacity: 0.2; stroke-width: 0.8; stroke-linecap: square"/>
     </g>
     <g id="line2d_18">
      <g>
       <use xlink:href="#mef4ae14e61" x="27.711654" y="90.152795" style="stroke: #000000; stroke-width: 0.8"/>
      </g>
     </g>
     <g id="text_3">
      <!-- $\mathdefault{0.10}$ -->
      <g transform="translate(3.00024 93.612044) scale(0.1 -0.1)">
       <defs>
        <path id="CMR17-31" d="M 1702 4058 
C 1702 4192 1696 4192 1606 4192 
C 1357 3916 979 3827 621 3827 
C 602 3827 570 3827 563 3808 
C 557 3795 557 3782 557 3648 
C 755 3648 1088 3686 1344 3839 
L 1344 461 
C 1344 236 1331 160 781 160 
L 589 160 
L 589 0 
C 896 0 1216 0 1523 0 
C 1830 0 2150 0 2458 0 
L 2458 160 
L 2266 160 
C 1715 160 1702 230 1702 458 
L 1702 4058 
z
" transform="scale(0.015625)"/>
       </defs>
       <use xlink:href="#CMR17-30" transform="scale(0.996264)"/>
       <use xlink:href="#CMMI12-3a" transform="translate(45.690477 0) scale(0.996264)"/>
       <use xlink:href="#CMR17-31" transform="translate(72.787654 0) scale(0.996264)"/>
       <use xlink:href="#CMR17-30" transform="translate(118.478131 0) scale(0.996264)"/>
      </g>
     </g>
    </g>
    <g id="ytick_4">
     <g id="line2d_19">
      <path d="M 27.711654 61.487443 
L 457.79976 61.487443 
" clip-path="url(#p5e48fbb10b)" style="fill: none; stroke: #b0b0b0; stroke-opacity: 0.2; stroke-width: 0.8; stroke-linecap: square"/>
     </g>
     <g id="line2d_20">
      <g>
       <use xlink:href="#mef4ae14e61" x="27.711654" y="61.487443" style="stroke: #000000; stroke-width: 0.8"/>
      </g>
     </g>
     <g id="text_4">
      <!-- $\mathdefault{0.15}$ -->
      <g transform="translate(3.00024 64.946692) scale(0.1 -0.1)">
       <use xlink:href="#CMR17-30" transform="scale(0.996264)"/>
       <use xlink:href="#CMMI12-3a" transform="translate(45.690477 0) scale(0.996264)"/>
       <use xlink:href="#CMR17-31" transform="translate(72.787654 0) scale(0.996264)"/>
       <use xlink:href="#CMR17-35" transform="translate(118.478131 0) scale(0.996264)"/>
      </g>
     </g>
    </g>
    <g id="ytick_5">
     <g id="line2d_21">
      <path d="M 27.711654 32.822091 
L 457.79976 32.822091 
" clip-path="url(#p5e48fbb10b)" style="fill: none; stroke: #b0b0b0; stroke-opacity: 0.2; stroke-width: 0.8; stroke-linecap: square"/>
     </g>
     <g id="line2d_22">
      <g>
       <use xlink:href="#mef4ae14e61" x="27.711654" y="32.822091" style="stroke: #000000; stroke-width: 0.8"/>
      </g>
     </g>
     <g id="text_5">
      <!-- $\mathdefault{0.20}$ -->
      <g transform="translate(3.00024 36.28134) scale(0.1 -0.1)">
       <defs>
        <path id="CMR17-32" d="M 2669 989 
L 2554 989 
C 2490 536 2438 459 2413 420 
C 2381 369 1920 369 1830 369 
L 602 369 
C 832 619 1280 1072 1824 1597 
C 2214 1967 2669 2402 2669 3035 
C 2669 3790 2067 4224 1395 4224 
C 691 4224 262 3604 262 3030 
C 262 2780 448 2748 525 2748 
C 589 2748 781 2787 781 3010 
C 781 3207 614 3264 525 3264 
C 486 3264 448 3258 422 3245 
C 544 3790 915 4058 1306 4058 
C 1862 4058 2227 3617 2227 3035 
C 2227 2479 1901 2000 1536 1584 
L 262 146 
L 262 0 
L 2515 0 
L 2669 989 
z
" transform="scale(0.015625)"/>
       </defs>
       <use xlink:href="#CMR17-30" transform="scale(0.996264)"/>
       <use xlink:href="#CMMI12-3a" transform="translate(45.690477 0) scale(0.996264)"/>
       <use xlink:href="#CMR17-32" transform="translate(72.787654 0) scale(0.996264)"/>
       <use xlink:href="#CMR17-30" transform="translate(118.478131 0) scale(0.996264)"/>
      </g>
     </g>
    </g>
   </g>
   <g id="line2d_23">
    <path d="M 47.261114 76.685926 
L 47.378422 76.771205 
L 47.573936 77.395661 
L 48.004067 79.832064 
L 51.249602 100.423333 
L 52.539995 106.581238 
L 53.830389 111.710643 
L 55.159885 116.102195 
L 56.489381 119.743363 
L 57.818877 122.76423 
L 59.187476 125.338907 
L 60.595178 127.52109 
L 62.00288 129.309148 
L 62.589423 129.796905 
L 63.019554 129.904724 
L 63.410582 129.781411 
L 63.840713 129.385748 
L 64.34905 128.559409 
L 64.935592 127.127678 
L 65.639443 124.759617 
L 66.460603 121.163965 
L 67.438173 115.842622 
L 68.650361 107.936999 
L 70.253577 95.867895 
L 76.549132 46.712825 
L 77.878629 38.822721 
L 79.012611 33.339637 
L 79.990181 29.642345 
L 80.811341 27.32661 
L 81.515192 25.942913 
L 82.101734 25.227237 
L 82.610071 24.935782 
L 83.040202 24.931404 
L 83.470333 25.151746 
L 83.939567 25.650932 
L 84.487007 26.57763 
L 85.112652 28.094154 
L 85.855606 30.532219 
L 86.676765 34.033139 
L 87.615233 39.065953 
L 88.671009 46.023874 
L 89.844094 55.314117 
L 91.251796 68.385022 
L 92.698601 81.137578 
L 93.988994 90.552548 
L 95.279388 98.368022 
L 96.569781 104.863468 
L 97.860174 110.268792 
L 99.18967 114.895533 
L 100.519167 118.731579 
L 101.848663 121.914179 
L 103.217262 124.626596 
L 104.624964 126.924938 
L 106.071768 128.861268 
L 107.557676 130.483482 
L 109.121789 131.866386 
L 110.803211 133.056022 
L 111.741679 133.521959 
L 112.17181 133.498802 
L 112.601941 133.240035 
L 113.071175 132.659636 
L 113.618614 131.574174 
L 114.24426 129.798009 
L 114.987213 126.977741 
L 115.886578 122.613293 
L 116.942355 116.329929 
L 118.271851 106.989394 
L 120.109684 92.346254 
L 124.684715 55.246867 
L 126.209725 44.973863 
L 127.461016 37.949488 
L 128.555895 33.016454 
L 129.494363 29.777025 
L 130.27642 27.817565 
L 130.941168 26.702255 
L 131.488607 26.173657 
L 131.957841 26.006131 
L 132.387972 26.087267 
L 132.818103 26.395266 
L 133.32644 27.054382 
L 133.912983 28.215308 
L 134.577731 30.052952 
L 135.359787 32.927397 
L 136.22005 36.9779 
L 137.19762 42.700651 
L 138.292499 50.494522 
L 139.54379 61.118581 
L 142.16368 84.28464 
L 143.454073 93.164714 
L 144.744466 100.538106 
L 146.03486 106.668743 
L 147.325253 111.772196 
L 148.654749 116.141709 
L 149.984245 119.765265 
L 151.352844 122.852335 
L 152.721443 125.401363 
L 154.129145 127.561581 
L 155.57595 129.381824 
L 157.10096 130.943126 
L 158.704176 132.265663 
L 160.385598 133.371237 
L 160.97214 133.577816 
L 161.402271 133.505608 
L 161.832403 133.190834 
L 162.301636 132.545907 
L 162.849076 131.384424 
L 163.513824 129.388917 
L 164.295881 126.259788 
L 165.234349 121.489356 
L 166.368331 114.456065 
L 167.776033 104.223873 
L 169.887585 87.019052 
L 173.445943 58.042274 
L 175.049159 46.860855 
L 176.339552 39.300933 
L 177.434431 34.086142 
L 178.372899 30.586371 
L 179.194059 28.307746 
L 179.89791 26.962646 
L 180.484452 26.283462 
L 180.953686 26.035248 
L 181.383817 26.041561 
L 181.813948 26.274032 
L 182.283182 26.787975 
L 182.830622 27.733732 
L 183.456267 29.27421 
L 184.199221 31.743295 
L 185.02038 35.281089 
L 185.958848 40.358336 
L 187.014624 47.367552 
L 188.187709 56.713961 
L 189.71272 70.878167 
L 191.081319 82.597419 
L 192.371712 91.764317 
L 193.662105 99.374689 
L 194.952499 105.700887 
L 196.242892 110.966165 
L 197.572388 115.473573 
L 198.901884 119.211041 
L 200.231381 122.312102 
L 201.59998 124.955204 
L 203.007681 127.194949 
L 204.454486 129.082027 
L 205.940394 130.663091 
L 207.504507 132.01105 
L 209.185928 133.170823 
L 210.046191 133.57047 
L 210.476322 133.531311 
L 210.906453 133.254428 
L 211.375687 132.65323 
L 211.923126 131.543291 
L 212.548772 129.739865 
L 213.291725 126.889099 
L 214.191091 122.491304 
L 215.28597 115.919511 
L 216.654569 106.210824 
L 218.570607 90.830258 
L 222.832816 56.196072 
L 224.396929 45.536353 
L 225.687322 38.212145 
L 226.782201 33.223578 
L 227.720669 29.933096 
L 228.502726 27.929114 
L 229.167474 26.774796 
L 229.714914 26.213399 
L 230.184148 26.017345 
L 230.614279 26.072045 
L 231.04441 26.353374 
L 231.552747 26.980723 
L 232.139289 28.104745 
L 232.804037 29.900366 
L 233.586094 32.725312 
L 234.446356 36.721625 
L 235.423927 42.383668 
L 236.518806 50.111543 
L 237.730994 60.307849 
L 240.5855 85.373849 
L 241.875893 94.068766 
L 243.166287 101.28936 
L 244.45668 107.293851 
L 245.747074 112.29288 
L 247.07657 116.573384 
L 248.406066 120.123392 
L 249.774665 123.147991 
L 251.143264 125.645567 
L 252.550966 127.762284 
L 253.99777 129.545966 
L 255.522781 131.076018 
L 257.125997 132.372233 
L 258.768316 133.427765 
L 259.315755 133.581232 
L 259.745886 133.473152 
L 260.176017 133.11791 
L 260.645251 132.426663 
L 261.192691 131.210851 
L 261.857439 129.151426 
L 262.639496 125.952245 
L 263.577964 121.107188 
L 264.711946 113.999468 
L 266.15875 103.396689 
L 268.348509 85.464571 
L 271.672249 58.415896 
L 273.275465 47.180256 
L 274.604961 39.357304 
L 275.699841 34.131047 
L 276.677411 30.49478 
L 277.498571 28.242099 
L 278.202422 26.920042 
L 278.788964 26.260535 
L 279.258198 26.028329 
L 279.688329 26.049493 
L 280.11846 26.296962 
L 280.587694 26.827407 
L 281.135134 27.792561 
L 281.799882 29.469355 
L 282.542836 32.001611 
L 283.403098 35.801994 
L 284.341566 41.00371 
L 285.397342 48.149653 
L 286.60953 57.984732 
L 290.20699 88.822287 
L 291.497383 96.931386 
L 292.787777 103.66891 
L 294.07817 109.27433 
L 295.407666 114.071434 
L 296.737163 118.048124 
L 298.066659 121.347011 
L 299.435258 124.158252 
L 300.803857 126.480074 
L 302.211559 128.448184 
L 303.697466 130.147342 
L 305.261579 131.595502 
L 306.903898 132.81493 
L 308.194291 133.542412 
L 308.663525 133.55755 
L 309.093656 133.332409 
L 309.56289 132.791614 
L 310.071227 131.842169 
L 310.696872 130.154255 
L 311.439826 127.432827 
L 312.300088 123.381573 
L 313.355865 117.248564 
L 314.646258 108.340995 
L 316.405886 94.485646 
L 321.528356 53.170084 
L 323.014264 43.458319 
L 324.226451 36.905792 
L 325.282228 32.353203 
L 326.181593 29.397667 
L 326.963649 27.556766 
L 327.589295 26.590622 
L 328.136734 26.124054 
L 328.605968 26.01053 
L 329.036099 26.141751 
L 329.505333 26.544248 
L 330.01367 27.288357 
L 330.600212 28.54807 
L 331.304063 30.630296 
L 332.08612 33.67585 
L 332.985485 38.128258 
L 334.002159 44.371357 
L 335.136141 52.811196 
L 336.426534 64.217167 
L 338.30347 81.081354 
L 339.593863 90.505693 
L 340.884256 98.329281 
L 342.17465 104.831362 
L 343.465043 110.242123 
L 344.794539 114.873463 
L 346.124036 118.713286 
L 347.453532 121.899 
L 348.822131 124.614058 
L 350.229833 126.914627 
L 351.676637 128.852821 
L 353.162545 130.476574 
L 354.726658 131.860749 
L 356.40808 133.051408 
L 357.424753 133.564264 
L 357.854884 133.543024 
L 358.285015 133.287002 
L 358.754249 132.710059 
L 359.301689 131.62884 
L 359.927334 129.857467 
L 360.670288 127.042519 
L 361.569653 122.683718 
L 362.625429 116.405649 
L 363.954926 107.069523 
L 365.792759 92.428156 
L 370.406892 55.029368 
L 371.931903 44.789688 
L 373.183193 37.799317 
L 374.23897 33.053994 
L 375.177437 29.80635 
L 375.959494 27.839813 
L 376.624242 26.718358 
L 377.171682 26.184627 
L 377.640916 26.012657 
L 378.071047 26.089692 
L 378.501178 26.393567 
L 379.009515 27.047788 
L 379.596057 28.203048 
L 380.260805 30.034265 
L 381.042862 32.901167 
L 381.903124 36.943443 
L 382.880695 42.657009 
L 383.975574 50.440923 
L 385.226865 61.054251 
L 387.885857 84.526026 
L 389.17625 93.365084 
L 390.466644 100.704616 
L 391.757037 106.8073 
L 393.04743 111.887614 
L 394.376927 116.237405 
L 395.706423 119.844663 
L 397.075022 122.917891 
L 398.443621 125.455517 
L 399.851323 127.606095 
L 401.298127 129.418235 
L 402.823138 130.972611 
L 404.426354 132.289312 
L 406.107775 133.388835 
L 406.694318 133.580122 
L 407.124449 133.491093 
L 407.55458 133.157262 
L 408.023814 132.490477 
L 408.571253 131.303322 
L 409.236002 129.277584 
L 410.018058 126.115299 
L 410.956526 121.309518 
L 412.090508 114.240935 
L 413.537313 103.6738 
L 415.687968 86.093389 
L 419.089914 58.389771 
L 420.69313 47.157892 
L 422.022627 39.338897 
L 423.117506 34.11635 
L 424.095077 30.483672 
L 424.916236 28.23417 
L 425.620087 26.914934 
L 426.206629 26.257838 
L 426.675863 26.027592 
L 427.105994 26.050574 
L 427.536126 26.299879 
L 428.005359 26.832344 
L 428.552799 27.799873 
L 429.217547 29.479567 
L 429.960501 32.015074 
L 430.820763 35.819213 
L 431.759231 41.024981 
L 432.815007 48.175372 
L 434.027195 58.015319 
L 437.624655 88.846213 
L 438.250301 92.964244 
L 438.250301 92.964244 
" clip-path="url(#p5e48fbb10b)" style="fill: none; stroke: #1f77b4; stroke-width: 1.5; stroke-linecap: square"/>
   </g>
   <g id="line2d_24">
    <path d="M 47.261114 83.846764 
L 47.847656 88.569847 
L 49.294461 99.452295 
L 50.584854 107.544319 
L 51.875247 114.289229 
L 53.165641 119.909018 
L 54.495137 124.724219 
L 55.824633 128.721228 
L 57.154129 132.042481 
L 58.522728 134.879139 
L 59.93043 137.290132 
L 61.377235 139.330177 
L 62.198394 140.206544 
L 62.628525 140.352854 
L 63.019554 140.246551 
L 63.410582 139.901201 
L 63.879816 139.167175 
L 64.427256 137.875158 
L 65.092004 135.698045 
L 65.87406 132.336757 
L 66.812528 127.274361 
L 67.94651 119.882341 
L 69.393315 108.89821 
L 71.661279 89.706433 
L 74.828608 63.154571 
L 76.470927 51.276384 
L 77.800423 43.225127 
L 78.895302 37.858635 
L 79.83377 34.269936 
L 80.65493 31.949796 
L 81.319678 30.65863 
L 81.90622 29.969928 
L 82.375454 29.730069 
L 82.805585 29.75724 
L 83.235716 30.023797 
L 83.70495 30.59066 
L 84.25239 31.619777 
L 84.878035 33.285199 
L 85.620989 35.945358 
L 86.442148 39.749984 
L 87.380616 45.205041 
L 88.436393 52.7318 
L 89.609477 62.763534 
L 91.056282 77.228764 
L 92.346675 89.06839 
L 93.637069 98.907023 
L 94.927462 107.080341 
L 96.217855 113.879523 
L 97.508249 119.54235 
L 98.837745 124.393586 
L 100.167241 128.419563 
L 101.496737 131.76356 
L 102.865336 134.617783 
L 104.273038 137.041265 
L 105.719843 139.088942 
L 107.20575 140.811436 
L 108.769864 142.28822 
L 110.451285 143.568665 
L 111.467959 144.131385 
L 111.858987 144.095283 
L 112.250015 143.841254 
L 112.680146 143.293976 
L 113.188483 142.277855 
L 113.814129 140.484054 
L 114.557082 137.608636 
L 115.417345 133.346507 
L 116.473121 126.913834 
L 117.763514 117.588985 
L 119.523142 103.095451 
L 124.723818 59.179043 
L 126.209725 49.021752 
L 127.421913 42.169504 
L 128.477689 37.412587 
L 129.377054 34.331137 
L 130.120008 32.499025 
L 130.745653 31.476649 
L 131.293093 30.98315 
L 131.723224 30.863122 
L 132.153355 30.982138 
L 132.583486 31.342954 
L 133.091823 32.084338 
L 133.678366 33.367704 
L 134.343114 35.38074 
L 135.12517 38.512479 
L 135.985433 42.910386 
L 136.963003 49.109269 
L 138.057882 57.535445 
L 139.309173 68.999371 
L 141.577137 90.476318 
L 142.86753 100.07605 
L 144.157924 108.052294 
L 145.448317 114.688616 
L 146.738711 120.216545 
L 148.068207 124.952763 
L 149.397703 128.883704 
L 150.727199 132.149091 
L 152.095798 134.936511 
L 153.5035 137.303554 
L 154.950305 139.303836 
L 156.436212 140.986777 
L 158.000325 142.43001 
L 159.681747 143.681789 
L 160.620215 144.178861 
L 161.011243 144.133718 
L 161.402271 143.870099 
L 161.871505 143.247118 
L 162.418945 142.089534 
L 163.04459 140.207011 
L 163.787544 137.232563 
L 164.686909 132.646581 
L 165.781788 125.795134 
L 167.111284 115.97809 
L 168.98822 100.285829 
L 173.524148 61.732922 
L 175.049159 50.930875 
L 176.300449 43.527713 
L 177.395328 38.316555 
L 178.333796 34.88639 
L 179.115853 32.806496 
L 179.780601 31.619292 
L 180.328041 31.054176 
L 180.797275 30.87263 
L 181.227406 30.955576 
L 181.657537 31.279951 
L 182.165874 31.977866 
L 182.752416 33.210652 
L 183.417164 35.166002 
L 184.199221 38.229702 
L 185.059483 42.553056 
L 186.037054 48.668423 
L 187.131933 57.003947 
L 188.383223 68.370321 
L 190.807599 91.226825 
L 192.097992 100.699298 
L 193.388386 108.570562 
L 194.678779 115.120135 
L 195.969172 120.576213 
L 197.298668 125.251178 
L 198.628165 129.131514 
L 199.957661 132.355056 
L 201.32626 135.10693 
L 202.733962 137.443963 
L 204.180766 139.419072 
L 205.666674 141.081038 
L 207.26989 142.538489 
L 208.951311 143.768822 
L 209.772471 144.181187 
L 210.163499 144.128495 
L 210.554527 143.856625 
L 211.023761 143.223356 
L 211.571201 142.05374 
L 212.196846 140.157878 
L 212.9398 137.168573 
L 213.839165 132.566432 
L 214.934044 125.698413 
L 216.302643 115.557119 
L 218.218682 99.480556 
L 222.598199 62.222589 
L 224.162312 51.092389 
L 225.413602 43.660362 
L 226.508482 38.42073 
L 227.44695 34.964204 
L 228.229006 32.861194 
L 228.893754 31.65365 
L 229.441194 31.07137 
L 229.910428 30.874855 
L 230.340559 30.943897 
L 230.77069 31.254216 
L 231.279027 31.935352 
L 231.865569 33.148601 
L 232.530317 35.081654 
L 233.273271 37.947541 
L 234.133533 42.196717 
L 235.111104 48.228887 
L 236.205983 56.473978 
L 237.418171 67.362146 
L 240.116266 92.58228 
L 241.40666 101.824994 
L 242.697053 109.506734 
L 243.987446 115.89966 
L 245.27784 121.225973 
L 246.607336 125.790297 
L 247.936832 129.579221 
L 249.305431 132.811238 
L 250.67403 135.484398 
L 252.081732 137.754978 
L 253.528537 139.674346 
L 255.053547 141.328171 
L 256.656763 142.738088 
L 258.377287 143.953744 
L 258.924727 144.182641 
L 259.315755 144.122327 
L 259.706783 143.842177 
L 260.176017 143.198622 
L 260.723457 142.017005 
L 261.349102 140.107859 
L 262.092056 137.103774 
L 262.991421 132.485572 
L 264.0863 125.601106 
L 265.454899 115.444461 
L 267.370938 99.356504 
L 271.711352 62.413754 
L 273.275465 51.254496 
L 274.565858 43.584435 
L 275.660738 38.361013 
L 276.599206 34.919497 
L 277.381262 32.829651 
L 278.04601 31.633691 
L 278.59345 31.061186 
L 279.062684 30.873197 
L 279.492815 30.950159 
L 279.922946 31.268483 
L 280.431283 31.959177 
L 281.017825 33.183555 
L 281.682573 35.129309 
L 282.46463 38.181682 
L 283.324892 42.492616 
L 284.302463 48.594057 
L 285.397342 56.914451 
L 286.60953 67.88138 
L 289.190317 92.077263 
L 290.48071 101.405561 
L 291.771103 109.157899 
L 293.061497 115.609181 
L 294.35189 120.98384 
L 295.681386 125.589388 
L 297.010882 129.412373 
L 298.340379 132.588488 
L 299.708978 135.300076 
L 301.116679 137.6031 
L 302.563484 139.54968 
L 304.088494 141.22671 
L 305.69171 142.65613 
L 307.412235 143.88828 
L 308.076983 144.184077 
L 308.468011 144.116144 
L 308.85904 143.827719 
L 309.328273 143.173885 
L 309.875713 141.980275 
L 310.540461 139.918465 
L 311.322518 136.677084 
L 312.260986 131.72761 
L 313.394968 124.41967 
L 314.80267 113.768612 
L 316.875119 96.149328 
L 320.628991 64.123566 
L 322.232207 52.451317 
L 323.5226 44.567646 
L 324.61748 39.138729 
L 325.555947 35.50658 
L 326.377107 33.155507 
L 327.041855 31.843819 
L 327.628397 31.140153 
L 328.097631 30.890321 
L 328.527763 30.909825 
L 328.957894 31.17005 
L 329.427128 31.731439 
L 329.974567 32.755927 
L 330.600212 34.418175 
L 331.343166 37.077153 
L 332.164326 40.883223 
L 333.102793 46.342665 
L 334.15857 53.876633 
L 335.331655 63.917436 
L 336.973974 80.232669 
L 338.264367 91.568036 
L 339.55476 100.982657 
L 340.845154 108.8062 
L 342.135547 115.316334 
L 343.42594 120.739745 
L 344.755437 125.386859 
L 346.084933 129.244186 
L 347.414429 132.4487 
L 348.783028 135.184412 
L 350.19073 137.5078 
L 351.637534 139.471463 
L 353.123442 141.123894 
L 354.726658 142.573095 
L 356.447182 143.821974 
L 357.190136 144.181533 
L 357.581164 144.126976 
L 357.972193 143.853078 
L 358.441427 143.217291 
L 358.988866 142.044737 
L 359.614512 140.145623 
L 360.357465 137.152698 
L 361.25683 132.546623 
L 362.35171 125.674576 
L 363.720309 115.52952 
L 365.636347 99.450161 
L 369.976761 62.496288 
L 371.540874 51.324554 
L 372.831268 43.641726 
L 373.926147 38.40606 
L 374.864615 34.953207 
L 375.646671 32.853418 
L 376.31142 31.648708 
L 376.858859 31.06882 
L 377.328093 30.874391 
L 377.758224 30.945372 
L 378.188355 31.257649 
L 378.696692 31.941125 
L 379.283235 33.157097 
L 379.947983 35.093258 
L 380.730039 38.134307 
L 381.590301 42.432821 
L 382.567872 48.520334 
L 383.662751 56.825594 
L 384.874939 67.776701 
L 387.455726 91.992406 
L 388.746119 101.335088 
L 390.036513 109.099289 
L 391.326906 115.560378 
L 392.617299 120.943161 
L 393.946795 125.555635 
L 395.276292 129.384343 
L 396.605788 132.56519 
L 397.974387 135.280799 
L 399.382089 137.587216 
L 400.828893 139.536643 
L 402.353904 141.216101 
L 403.95712 142.647561 
L 405.677644 143.881436 
L 406.342392 144.182989 
L 406.73342 144.120811 
L 407.124449 143.838635 
L 407.593683 143.192565 
L 408.141122 142.008013 
L 408.766768 140.095618 
L 409.509721 137.087919 
L 410.409086 132.465791 
L 411.503966 125.577305 
L 412.872565 115.41691 
L 414.788603 99.326174 
L 419.129017 62.387043 
L 420.69313 51.231831 
L 421.983524 43.565909 
L 423.078403 38.346456 
L 424.016871 34.908614 
L 424.798927 32.82199 
L 425.463676 31.628865 
L 426.011115 31.058753 
L 426.480349 30.87285 
L 426.91048 30.95175 
L 427.340611 31.272035 
L 427.848948 31.965067 
L 428.435491 33.192168 
L 429.100239 35.14103 
L 429.882295 38.197073 
L 430.742557 42.51203 
L 431.720128 48.617982 
L 432.815007 56.943278 
L 434.027195 67.915331 
L 436.568879 91.794293 
L 437.859272 101.170556 
L 438.250301 103.685269 
L 438.250301 103.685269 
" clip-path="url(#p5e48fbb10b)" style="fill: none; stroke: #ff7f0e; stroke-width: 1.5; stroke-linecap: square"/>
   </g>
   <g id="patch_3">
    <path d="M 27.711654 150.151239 
L 27.711654 18.941604 
" style="fill: none; stroke: #000000; stroke-width: 0.8; stroke-linejoin: miter; stroke-linecap: square"/>
   </g>
   <g id="patch_4">
    <path d="M 457.79976 150.151239 
L 457.79976 18.941604 
" style="fill: none; stroke: #000000; stroke-width: 0.8; stroke-linejoin: miter; stroke-linecap: square"/>
   </g>
   <g id="patch_5">
    <path d="M 27.711654 150.151239 
L 457.79976 150.151239 
" style="fill: none; stroke: #000000; stroke-width: 0.8; stroke-linejoin: miter; stroke-linecap: square"/>
   </g>
   <g id="patch_6">
    <path d="M 27.711654 18.941604 
L 457.79976 18.941604 
" style="fill: none; stroke: #000000; stroke-width: 0.8; stroke-linejoin: miter; stroke-linecap: square"/>
   </g>
   <g id="text_6">
    <!-- State and Configuration Safety -->
    <g transform="translate(131.336584 15.45354) scale(0.18 -0.18)">
     <defs>
      <path id="CMR17-53" d="M 2803 4290 
C 2803 4404 2797 4411 2758 4411 
C 2720 4411 2707 4385 2682 4328 
L 2490 3907 
C 2246 4257 1875 4416 1472 4416 
C 819 4416 294 3901 294 3253 
C 294 3056 339 2776 557 2510 
C 794 2218 1018 2167 1530 2033 
C 1722 1982 2042 1899 2106 1874 
C 2470 1722 2662 1341 2662 985 
C 2662 527 2336 38 1779 38 
C 1094 38 454 419 410 1311 
C 403 1413 397 1419 352 1419 
C 301 1419 294 1413 294 1285 
L 294 -1 
C 294 -115 301 -122 339 -122 
C 384 -122 397 -90 486 108 
C 493 127 493 140 614 381 
C 934 -39 1472 -128 1779 -128 
C 2477 -128 2970 451 2970 1124 
C 2970 1454 2848 1708 2778 1823 
C 2509 2230 2221 2306 1914 2382 
C 1869 2402 1856 2402 1498 2490 
C 1152 2579 1005 2624 845 2796 
C 666 2992 602 3196 602 3399 
C 602 3812 934 4263 1478 4263 
C 2157 4263 2579 3786 2675 2993 
C 2694 2878 2701 2872 2746 2872 
C 2803 2872 2803 2891 2803 2999 
L 2803 4290 
z
" transform="scale(0.015625)"/>
      <path id="CMR17-74" d="M 966 2560 
L 1862 2560 
L 1862 2725 
L 966 2725 
L 966 3904 
L 851 3904 
C 838 3245 614 2668 70 2668 
L 70 2560 
L 627 2560 
L 627 771 
C 627 650 627 -64 1370 -64 
C 1747 -64 1965 306 1965 777 
L 1965 1140 
L 1850 1140 
L 1850 783 
C 1850 344 1677 51 1408 51 
C 1222 51 966 178 966 758 
L 966 2560 
z
" transform="scale(0.015625)"/>
      <path id="CMR17-61" d="M 2304 1653 
C 2304 2072 2304 2294 2035 2543 
C 1798 2752 1523 2816 1306 2816 
C 800 2816 435 2407 435 1971 
C 435 1728 627 1728 666 1728 
C 749 1728 896 1778 896 1954 
C 896 2112 774 2181 666 2181 
C 640 2181 608 2174 589 2168 
C 723 2592 1069 2714 1293 2714 
C 1613 2714 1965 2429 1965 1885 
L 1965 1600 
C 1587 1600 1133 1549 774 1357 
C 371 1133 256 813 256 570 
C 256 77 832 -64 1171 -64 
C 1523 -64 1850 139 1990 511 
C 2003 233 2182 -18 2464 -18 
C 2598 -18 2938 70 2938 567 
L 2938 920 
L 2822 920 
L 2822 562 
C 2822 178 2650 128 2566 128 
C 2304 128 2304 458 2304 738 
L 2304 1653 
z
M 1965 870 
C 1965 317 1568 38 1216 38 
C 896 38 646 275 646 570 
C 646 761 730 1100 1101 1305 
C 1408 1478 1760 1504 1965 1504 
L 1965 870 
z
" transform="scale(0.015625)"/>
      <path id="CMR17-65" d="M 2438 1472 
C 2464 1498 2464 1511 2464 1576 
C 2464 2238 2118 2816 1389 2816 
C 710 2816 173 2169 173 1383 
C 173 551 781 -64 1459 -64 
C 2176 -64 2458 607 2458 740 
C 2458 784 2419 784 2406 784 
C 2362 784 2355 771 2330 696 
C 2189 265 1837 51 1504 51 
C 1229 51 954 203 781 480 
C 582 803 582 1176 582 1472 
L 2438 1472 
z
M 589 1568 
C 634 2505 1126 2714 1382 2714 
C 1818 2714 2112 2297 2118 1568 
L 589 1568 
z
" transform="scale(0.015625)"/>
      <path id="CMR17-6e" d="M 2656 1933 
C 2656 2259 2592 2790 1837 2790 
C 1331 2790 1069 2400 973 2144 
L 966 2144 
L 966 2790 
L 211 2720 
L 211 2554 
C 589 2554 646 2515 646 2208 
L 646 428 
C 646 184 621 153 211 153 
L 211 -13 
C 365 0 646 0 813 0 
C 979 0 1267 0 1421 -13 
L 1421 153 
C 1011 153 986 178 986 428 
L 986 1658 
C 986 2247 1344 2688 1792 2688 
C 2266 2688 2317 2266 2317 1958 
L 2317 428 
C 2317 184 2291 153 1882 153 
L 1882 -13 
C 2035 0 2317 0 2483 0 
C 2650 0 2938 0 3091 -13 
L 3091 153 
C 2682 153 2656 178 2656 428 
L 2656 1933 
z
" transform="scale(0.015625)"/>
      <path id="CMR17-64" d="M 1869 4326 
L 1869 4160 
C 2246 4160 2304 4122 2304 3820 
L 2304 2345 
C 2278 2377 2016 2790 1498 2790 
C 845 2790 211 2208 211 1364 
C 211 525 806 -64 1434 -64 
C 1978 -64 2259 337 2291 380 
L 2291 -63 
L 3066 -63 
L 3066 128 
C 2688 128 2630 166 2630 473 
L 2630 4396 
L 1869 4326 
z
M 2291 755 
C 2291 563 2176 390 2029 262 
C 1811 70 1594 38 1472 38 
C 1286 38 621 134 621 1356 
C 621 2612 1363 2688 1530 2688 
C 1824 2688 2061 2522 2208 2291 
C 2291 2157 2291 2138 2291 2023 
L 2291 755 
z
" transform="scale(0.015625)"/>
      <path id="CMR17-43" d="M 3974 4289 
C 3974 4403 3968 4410 3930 4410 
C 3904 4410 3898 4403 3853 4327 
L 3571 3792 
C 3258 4187 2874 4416 2381 4416 
C 1286 4416 294 3456 294 2148 
C 294 826 1286 -128 2387 -128 
C 3366 -128 3974 730 3974 1461 
C 3974 1524 3974 1550 3917 1550 
C 3866 1550 3866 1531 3859 1474 
C 3808 585 3168 38 2477 38 
C 1824 38 781 495 781 2147 
C 781 3805 1843 4250 2464 4250 
C 3187 4250 3712 3628 3834 2745 
C 3846 2668 3846 2655 3904 2655 
C 3974 2655 3974 2668 3974 2783 
L 3974 4289 
z
" transform="scale(0.015625)"/>
      <path id="CMR17-6f" d="M 2758 1356 
C 2758 2176 2163 2816 1466 2816 
C 768 2816 173 2176 173 1356 
C 173 551 768 -64 1466 -64 
C 2163 -64 2758 551 2758 1356 
z
M 1466 51 
C 1165 51 909 230 762 480 
C 602 767 582 1126 582 1408 
C 582 1677 595 2010 762 2298 
C 890 2509 1139 2714 1466 2714 
C 1754 2714 1997 2554 2150 2330 
C 2349 2029 2349 1607 2349 1408 
C 2349 1158 2336 775 2163 467 
C 1984 173 1709 51 1466 51 
z
" transform="scale(0.015625)"/>
      <path id="CMR17-c" d="M 2554 2764 
C 2400 2764 1926 2764 1805 2739 
C 1766 2725 1754 2725 1677 2725 
L 947 2725 
L 947 3469 
C 947 4073 1434 4352 1818 4352 
C 1939 4352 2214 4320 2355 4101 
C 2291 4101 2086 4101 2086 3878 
C 2086 3725 2189 3648 2317 3648 
C 2432 3648 2547 3712 2547 3885 
C 2547 4205 2240 4454 1843 4454 
C 1338 4454 634 4168 634 3469 
L 634 2725 
L 122 2725 
L 122 2560 
L 634 2560 
L 634 427 
C 634 184 608 153 198 153 
L 198 -13 
C 352 0 634 0 794 0 
C 960 0 1242 0 1395 -13 
L 1395 153 
C 986 153 960 178 960 427 
L 960 2560 
L 1901 2560 
C 2176 2560 2227 2502 2227 2222 
L 2227 427 
C 2227 184 2202 153 1792 153 
L 1792 -13 
C 1946 0 2227 0 2387 0 
C 2554 0 2835 0 2989 -13 
L 2989 153 
C 2579 153 2554 178 2554 427 
L 2554 2764 
z
" transform="scale(0.015625)"/>
      <path id="CMR17-67" d="M 710 1164 
C 832 1068 1043 960 1299 960 
C 1805 960 2240 1357 2240 1888 
C 2240 2054 2189 2310 1997 2509 
C 2176 2692 2438 2752 2586 2752 
C 2611 2752 2650 2752 2682 2734 
C 2656 2728 2598 2703 2598 2605 
C 2598 2527 2656 2471 2739 2471 
C 2835 2471 2886 2533 2886 2614 
C 2886 2731 2790 2854 2586 2854 
C 2330 2854 2106 2738 1926 2580 
C 1734 2753 1504 2816 1299 2816 
C 794 2816 358 2419 358 1888 
C 358 1522 570 1292 634 1228 
C 442 1004 442 743 442 711 
C 442 545 506 302 723 168 
C 390 85 128 -169 128 -486 
C 128 -943 736 -1280 1466 -1280 
C 2170 -1280 2803 -956 2803 -479 
C 2803 384 1856 384 1363 384 
C 1216 384 954 384 922 391 
C 723 423 589 602 589 826 
C 589 883 589 1024 710 1164 
z
M 1299 1068 
C 736 1068 736 1760 736 1889 
C 736 2016 736 2708 1299 2708 
C 1862 2708 1862 2016 1862 1889 
C 1862 1760 1862 1068 1299 1068 
z
M 1466 -1171 
C 826 -1171 384 -835 384 -486 
C 384 -289 493 -105 634 -4 
C 794 104 858 104 1293 104 
C 1818 104 2547 104 2547 -486 
C 2547 -835 2106 -1171 1466 -1171 
z
" transform="scale(0.015625)"/>
      <path id="CMR17-75" d="M 1882 2693 
L 1882 2528 
C 2259 2528 2317 2489 2317 2186 
L 2317 1032 
C 2317 500 2029 38 1555 38 
C 1030 38 986 348 986 678 
L 986 2763 
L 211 2693 
L 211 2528 
C 467 2528 640 2528 646 2274 
L 646 1058 
C 646 633 646 361 813 183 
C 896 101 1056 -64 1517 -64 
C 2061 -64 2272 377 2323 506 
L 2330 506 
L 2330 -63 
L 3091 -63 
L 3091 128 
C 2714 128 2656 166 2656 473 
L 2656 2763 
L 1882 2693 
z
" transform="scale(0.015625)"/>
      <path id="CMR17-72" d="M 960 1497 
C 960 2112 1222 2688 1702 2688 
C 1747 2688 1792 2682 1837 2662 
C 1837 2662 1696 2617 1696 2452 
C 1696 2298 1818 2234 1914 2234 
C 1990 2234 2131 2279 2131 2458 
C 2131 2663 1926 2790 1709 2790 
C 1222 2790 1011 2317 947 2093 
L 941 2093 
L 941 2790 
L 198 2720 
L 198 2554 
C 576 2554 634 2515 634 2208 
L 634 428 
C 634 184 608 153 198 153 
L 198 -13 
C 352 0 646 0 813 0 
C 998 0 1325 0 1498 -13 
L 1498 153 
C 1037 153 960 153 960 440 
L 960 1497 
z
" transform="scale(0.015625)"/>
      <path id="CMR17-69" d="M 992 3909 
C 992 4049 877 4170 730 4170 
C 589 4170 467 4056 467 3909 
C 467 3769 582 3648 730 3648 
C 870 3648 992 3763 992 3909 
z
M 243 2706 
L 243 2541 
C 602 2541 653 2502 653 2197 
L 653 427 
C 653 184 627 153 218 153 
L 218 -13 
C 371 0 646 0 806 0 
C 960 0 1222 0 1370 -13 
L 1370 153 
C 992 153 979 191 979 420 
L 979 2776 
L 243 2706 
z
" transform="scale(0.015625)"/>
      <path id="CMR17-66" d="M 979 2560 
L 1709 2560 
L 1709 2725 
L 966 2725 
L 966 3494 
C 966 4022 1235 4352 1510 4352 
C 1594 4352 1690 4327 1754 4282 
C 1702 4269 1568 4225 1568 4067 
C 1568 3901 1696 3850 1786 3850 
C 1875 3850 2003 3901 2003 4067 
C 2003 4308 1773 4454 1517 4454 
C 1152 4454 653 4156 653 3481 
L 653 2725 
L 141 2725 
L 141 2560 
L 653 2560 
L 653 427 
C 653 184 627 153 218 153 
L 218 -13 
C 371 0 666 0 832 0 
C 1018 0 1344 0 1517 -13 
L 1517 153 
C 1056 153 979 153 979 439 
L 979 2560 
z
" transform="scale(0.015625)"/>
      <path id="CMR17-79" d="M 2496 2197 
C 2656 2586 2944 2586 3034 2586 
L 3034 2752 
C 2912 2752 2752 2752 2630 2752 
C 2496 2752 2285 2752 2157 2758 
L 2157 2592 
C 2400 2573 2406 2394 2406 2343 
C 2406 2280 2394 2248 2362 2171 
L 1664 449 
L 902 2306 
C 870 2382 870 2426 870 2433 
C 870 2573 1018 2586 1171 2586 
L 1171 2758 
C 1018 2752 742 2752 582 2752 
C 410 2752 205 2752 64 2758 
L 64 2586 
C 410 2586 448 2554 531 2350 
L 1485 15 
C 1197 -738 1030 -1178 627 -1178 
C 557 -1178 397 -1159 282 -1044 
C 429 -1031 493 -942 493 -833 
C 493 -725 416 -629 288 -629 
C 147 -629 77 -725 77 -840 
C 77 -1095 339 -1280 627 -1280 
C 998 -1280 1229 -922 1357 -604 
L 2496 2197 
z
" transform="scale(0.015625)"/>
     </defs>
     <use xlink:href="#CMR17-53" transform="scale(0.996264)"/>
     <use xlink:href="#CMR17-74" transform="translate(50.89537 0) scale(0.996264)"/>
     <use xlink:href="#CMR17-61" transform="translate(86.176138 0) scale(0.996264)"/>
     <use xlink:href="#CMR17-74" transform="translate(131.866615 0) scale(0.996264)"/>
     <use xlink:href="#CMR17-65" transform="translate(167.147382 0) scale(0.996264)"/>
     <use xlink:href="#CMR17-61" transform="translate(237.709009 0) scale(0.996264)"/>
     <use xlink:href="#CMR17-6e" transform="translate(283.399486 0) scale(0.996264)"/>
     <use xlink:href="#CMR17-64" transform="translate(334.294856 0) scale(0.996264)"/>
     <use xlink:href="#CMR17-43" transform="translate(415.266192 0) scale(0.996264)"/>
     <use xlink:href="#CMR17-6f" transform="translate(481.776073 0) scale(0.996264)"/>
     <use xlink:href="#CMR17-6e" transform="translate(527.46655 0) scale(0.996264)"/>
     <use xlink:href="#CMR17-c" transform="translate(578.36192 0) scale(0.996264)"/>
     <use xlink:href="#CMR17-67" transform="translate(628.104143 0) scale(0.996264)"/>
     <use xlink:href="#CMR17-75" transform="translate(673.79462 0) scale(0.996264)"/>
     <use xlink:href="#CMR17-72" transform="translate(724.68999 0) scale(0.996264)"/>
     <use xlink:href="#CMR17-61" transform="translate(759.970758 0) scale(0.996264)"/>
     <use xlink:href="#CMR17-74" transform="translate(805.661235 0) scale(0.996264)"/>
     <use xlink:href="#CMR17-69" transform="translate(840.942003 0) scale(0.996264)"/>
     <use xlink:href="#CMR17-6f" transform="translate(865.813061 0) scale(0.996264)"/>
     <use xlink:href="#CMR17-6e" transform="translate(911.503538 0) scale(0.996264)"/>
     <use xlink:href="#CMR17-53" transform="translate(992.474874 0) scale(0.996264)"/>
     <use xlink:href="#CMR17-61" transform="translate(1043.370244 0) scale(0.996264)"/>
     <use xlink:href="#CMR17-66" transform="translate(1089.060721 0) scale(0.996264)"/>
     <use xlink:href="#CMR17-65" transform="translate(1116.534234 0) scale(0.996264)"/>
     <use xlink:href="#CMR17-74" transform="translate(1157.019894 0) scale(0.996264)"/>
     <use xlink:href="#CMR17-79" transform="translate(1189.698208 0) scale(0.996264)"/>
    </g>
   </g>
   <g id="legend_1">
    <g id="patch_7">
     <path d="M 390.320886 106.15845 
L 447.99976 106.15845 
Q 450.79976 106.15845 450.79976 103.35845 
L 450.79976 65.734394 
Q 450.79976 62.934394 447.99976 62.934394 
L 390.320886 62.934394 
Q 387.520886 62.934394 387.520886 65.734394 
L 387.520886 103.35845 
Q 387.520886 106.15845 390.320886 106.15845 
z
" style="fill: #ffffff; opacity: 0.8; stroke: #cccccc; stroke-linejoin: miter"/>
    </g>
    <g id="line2d_25">
     <path d="M 393.120886 73.434394 
L 407.120886 73.434394 
L 421.120886 73.434394 
" style="fill: none; stroke: #1f77b4; stroke-width: 1.5; stroke-linecap: square"/>
    </g>
    <g id="text_7">
     <!-- $h_0$ -->
     <g transform="translate(432.320886 78.334394) scale(0.14 -0.14)">
      <defs>
       <path id="CMMI12-68" d="M 1798 4257 
C 1805 4283 1818 4321 1818 4352 
C 1818 4416 1754 4416 1741 4416 
C 1734 4416 1421 4388 1389 4380 
C 1280 4373 1184 4358 1069 4358 
C 909 4345 864 4339 864 4224 
C 864 4160 915 4160 1005 4160 
C 1318 4160 1325 4103 1325 4040 
C 1325 4002 1312 3951 1306 3932 
L 378 248 
C 352 152 352 140 352 101 
C 352 -38 461 -64 525 -64 
C 634 -64 717 19 749 89 
L 1037 1245 
C 1069 1386 1107 1520 1139 1660 
C 1210 1929 1210 1935 1331 2120 
C 1453 2305 1741 2689 2234 2689 
C 2490 2689 2579 2497 2579 2242 
C 2579 1884 2330 1188 2189 805 
C 2131 651 2099 568 2099 453 
C 2099 166 2298 -64 2605 -64 
C 3200 -64 3424 875 3424 913 
C 3424 945 3398 971 3360 971 
C 3302 971 3296 952 3264 843 
C 3117 332 2880 64 2624 64 
C 2560 64 2458 64 2458 269 
C 2458 436 2534 640 2560 710 
C 2675 1018 2963 1773 2963 2145 
C 2963 2528 2739 2816 2253 2816 
C 1888 2816 1568 2644 1306 2312 
L 1798 4257 
z
" transform="scale(0.015625)"/>
      </defs>
      <use xlink:href="#CMMI12-68" transform="scale(0.996264)"/>
      <use xlink:href="#CMR17-30" transform="translate(56.154624 -14.943915) scale(0.697382)"/>
     </g>
    </g>
    <g id="line2d_26">
     <path d="M 393.120886 92.946422 
L 407.120886 92.946422 
L 421.120886 92.946422 
" style="fill: none; stroke: #ff7f0e; stroke-width: 1.5; stroke-linecap: square"/>
    </g>
    <g id="text_8">
     <!-- $h$ -->
     <g transform="translate(432.320886 97.846422) scale(0.14 -0.14)">
      <use xlink:href="#CMMI12-68" transform="scale(0.996264)"/>
     </g>
    </g>
   </g>
  </g>
  <g id="axes_2">
   <g id="patch_8">
    <path d="M 27.711654 306.802719 
L 457.79976 306.802719 
L 457.79976 175.593084 
L 27.711654 175.593084 
z
" style="fill: #ffffff"/>
   </g>
   <g id="matplotlib.axis_3">
    <g id="xtick_7">
     <g id="line2d_27">
      <path d="M 47.261114 306.802719 
L 47.261114 175.593084 
" clip-path="url(#p40b96a9320)" style="fill: none; stroke: #b0b0b0; stroke-opacity: 0.2; stroke-width: 0.8; stroke-linecap: square"/>
     </g>
     <g id="line2d_28">
      <g>
       <use xlink:href="#m85c1997103" x="47.261114" y="306.802719" style="stroke: #000000; stroke-width: 0.8"/>
      </g>
     </g>
     <g id="text_9">
      <!-- $\mathdefault{0}$ -->
      <g transform="translate(44.770446 320.721217) scale(0.1 -0.1)">
       <use xlink:href="#CMR17-30" transform="scale(0.996264)"/>
      </g>
     </g>
    </g>
    <g id="xtick_8">
     <g id="line2d_29">
      <path d="M 125.466772 306.802719 
L 125.466772 175.593084 
" clip-path="url(#p40b96a9320)" style="fill: none; stroke: #b0b0b0; stroke-opacity: 0.2; stroke-width: 0.8; stroke-linecap: square"/>
     </g>
     <g id="line2d_30">
      <g>
       <use xlink:href="#m85c1997103" x="125.466772" y="306.802719" style="stroke: #000000; stroke-width: 0.8"/>
      </g>
     </g>
     <g id="text_10">
      <!-- $\mathdefault{2}$ -->
      <g transform="translate(122.976104 320.721217) scale(0.1 -0.1)">
       <use xlink:href="#CMR17-32" transform="scale(0.996264)"/>
      </g>
     </g>
    </g>
    <g id="xtick_9">
     <g id="line2d_31">
      <path d="M 203.67243 306.802719 
L 203.67243 175.593084 
" clip-path="url(#p40b96a9320)" style="fill: none; stroke: #b0b0b0; stroke-opacity: 0.2; stroke-width: 0.8; stroke-linecap: square"/>
     </g>
     <g id="line2d_32">
      <g>
       <use xlink:href="#m85c1997103" x="203.67243" y="306.802719" style="stroke: #000000; stroke-width: 0.8"/>
      </g>
     </g>
     <g id="text_11">
      <!-- $\mathdefault{4}$ -->
      <g transform="translate(201.181762 320.721217) scale(0.1 -0.1)">
       <defs>
        <path id="CMR17-34" d="M 2150 4122 
C 2150 4256 2144 4256 2029 4256 
L 128 1254 
L 128 1088 
L 1779 1088 
L 1779 457 
C 1779 224 1766 160 1318 160 
L 1197 160 
L 1197 0 
C 1402 0 1747 0 1965 0 
C 2182 0 2528 0 2733 0 
L 2733 160 
L 2611 160 
C 2163 160 2150 224 2150 457 
L 2150 1088 
L 2803 1088 
L 2803 1254 
L 2150 1254 
L 2150 4122 
z
M 1798 3703 
L 1798 1254 
L 256 1254 
L 1798 3703 
z
" transform="scale(0.015625)"/>
       </defs>
       <use xlink:href="#CMR17-34" transform="scale(0.996264)"/>
      </g>
     </g>
    </g>
    <g id="xtick_10">
     <g id="line2d_33">
      <path d="M 281.878088 306.802719 
L 281.878088 175.593084 
" clip-path="url(#p40b96a9320)" style="fill: none; stroke: #b0b0b0; stroke-opacity: 0.2; stroke-width: 0.8; stroke-linecap: square"/>
     </g>
     <g id="line2d_34">
      <g>
       <use xlink:href="#m85c1997103" x="281.878088" y="306.802719" style="stroke: #000000; stroke-width: 0.8"/>
      </g>
     </g>
     <g id="text_12">
      <!-- $\mathdefault{6}$ -->
      <g transform="translate(279.38742 320.721217) scale(0.1 -0.1)">
       <defs>
        <path id="CMR17-36" d="M 678 2176 
C 678 3690 1395 4032 1811 4032 
C 1946 4032 2272 4009 2400 3776 
C 2298 3776 2106 3776 2106 3553 
C 2106 3381 2246 3323 2336 3323 
C 2394 3323 2566 3348 2566 3560 
C 2566 3954 2246 4179 1805 4179 
C 1043 4179 243 3390 243 1984 
C 243 253 966 -128 1478 -128 
C 2099 -128 2688 427 2688 1283 
C 2688 2081 2170 2662 1517 2662 
C 1126 2662 838 2407 678 1960 
L 678 2176 
z
M 1478 25 
C 691 25 691 1200 691 1436 
C 691 1896 909 2560 1504 2560 
C 1613 2560 1926 2560 2138 2120 
C 2253 1870 2253 1609 2253 1289 
C 2253 944 2253 690 2118 434 
C 1978 171 1773 25 1478 25 
z
" transform="scale(0.015625)"/>
       </defs>
       <use xlink:href="#CMR17-36" transform="scale(0.996264)"/>
      </g>
     </g>
    </g>
    <g id="xtick_11">
     <g id="line2d_35">
      <path d="M 360.083745 306.802719 
L 360.083745 175.593084 
" clip-path="url(#p40b96a9320)" style="fill: none; stroke: #b0b0b0; stroke-opacity: 0.2; stroke-width: 0.8; stroke-linecap: square"/>
     </g>
     <g id="line2d_36">
      <g>
       <use xlink:href="#m85c1997103" x="360.083745" y="306.802719" style="stroke: #000000; stroke-width: 0.8"/>
      </g>
     </g>
     <g id="text_13">
      <!-- $\mathdefault{8}$ -->
      <g transform="translate(357.593078 320.721217) scale(0.1 -0.1)">
       <defs>
        <path id="CMR17-38" d="M 1741 2264 
C 2144 2467 2554 2773 2554 3263 
C 2554 3841 1990 4179 1472 4179 
C 890 4179 378 3759 378 3180 
C 378 3021 416 2747 666 2505 
C 730 2442 998 2251 1171 2130 
C 883 1983 211 1634 211 934 
C 211 279 838 -128 1459 -128 
C 2144 -128 2720 362 2720 1010 
C 2720 1590 2330 1857 2074 2029 
L 1741 2264 
z
M 902 2822 
C 851 2854 595 3051 595 3351 
C 595 3739 998 4032 1459 4032 
C 1965 4032 2336 3676 2336 3262 
C 2336 2669 1670 2331 1638 2331 
C 1632 2331 1626 2331 1574 2370 
L 902 2822 
z
M 2080 1519 
C 2176 1449 2483 1240 2483 851 
C 2483 381 2010 25 1472 25 
C 890 25 448 438 448 940 
C 448 1443 838 1862 1280 2060 
L 2080 1519 
z
" transform="scale(0.015625)"/>
       </defs>
       <use xlink:href="#CMR17-38" transform="scale(0.996264)"/>
      </g>
     </g>
    </g>
    <g id="xtick_12">
     <g id="line2d_37">
      <path d="M 438.289403 306.802719 
L 438.289403 175.593084 
" clip-path="url(#p40b96a9320)" style="fill: none; stroke: #b0b0b0; stroke-opacity: 0.2; stroke-width: 0.8; stroke-linecap: square"/>
     </g>
     <g id="line2d_38">
      <g>
       <use xlink:href="#m85c1997103" x="438.289403" y="306.802719" style="stroke: #000000; stroke-width: 0.8"/>
      </g>
     </g>
     <g id="text_14">
      <!-- $\mathdefault{10}$ -->
      <g transform="translate(433.308068 320.721217) scale(0.1 -0.1)">
       <use xlink:href="#CMR17-31" transform="scale(0.996264)"/>
       <use xlink:href="#CMR17-30" transform="translate(45.690477 0) scale(0.996264)"/>
      </g>
     </g>
    </g>
    <g id="text_15">
     <!-- $t$ -->
     <g transform="translate(239.585337 339.111696) scale(0.18 -0.18)">
      <defs>
       <path id="CMMI12-74" d="M 1286 2566 
L 1875 2566 
C 1997 2566 2061 2566 2061 2681 
C 2061 2752 2022 2752 1894 2752 
L 1331 2752 
L 1568 3692 
C 1594 3781 1594 3794 1594 3840 
C 1594 3943 1510 4000 1427 4000 
C 1376 4000 1229 3981 1178 3775 
L 928 2752 
L 326 2752 
C 198 2752 141 2752 141 2630 
C 141 2566 186 2566 307 2566 
L 877 2566 
L 454 881 
C 403 658 384 594 384 511 
C 384 211 595 -64 954 -64 
C 1600 -64 1946 868 1946 912 
C 1946 951 1920 970 1882 970 
C 1869 970 1843 970 1830 944 
C 1824 938 1818 931 1773 829 
C 1638 511 1344 64 973 64 
C 781 64 768 224 768 364 
C 768 370 768 492 787 568 
L 1286 2566 
z
" transform="scale(0.015625)"/>
      </defs>
      <use xlink:href="#CMMI12-74" transform="scale(0.996264)"/>
     </g>
    </g>
   </g>
   <g id="matplotlib.axis_4">
    <g id="ytick_6">
     <g id="line2d_39">
      <path d="M 27.711654 296.645348 
L 457.79976 296.645348 
" clip-path="url(#p40b96a9320)" style="fill: none; stroke: #b0b0b0; stroke-opacity: 0.2; stroke-width: 0.8; stroke-linecap: square"/>
     </g>
     <g id="line2d_40">
      <g>
       <use xlink:href="#mef4ae14e61" x="27.711654" y="296.645348" style="stroke: #000000; stroke-width: 0.8"/>
      </g>
     </g>
     <g id="text_16">
      <!-- $\mathdefault{4}$ -->
      <g transform="translate(7.981575 300.104597) scale(0.1 -0.1)">
       <defs>
        <path id="CMSY10-0" d="M 4218 1472 
C 4326 1472 4442 1472 4442 1600 
C 4442 1728 4326 1728 4218 1728 
L 755 1728 
C 646 1728 531 1728 531 1600 
C 531 1472 646 1472 755 1472 
L 4218 1472 
z
" transform="scale(0.015625)"/>
       </defs>
       <use xlink:href="#CMSY10-0" transform="scale(0.996264)"/>
       <use xlink:href="#CMR17-34" transform="translate(77.487468 0) scale(0.996264)"/>
      </g>
     </g>
    </g>
    <g id="ytick_7">
     <g id="line2d_41">
      <path d="M 27.711654 274.612831 
L 457.79976 274.612831 
" clip-path="url(#p40b96a9320)" style="fill: none; stroke: #b0b0b0; stroke-opacity: 0.2; stroke-width: 0.8; stroke-linecap: square"/>
     </g>
     <g id="line2d_42">
      <g>
       <use xlink:href="#mef4ae14e61" x="27.711654" y="274.612831" style="stroke: #000000; stroke-width: 0.8"/>
      </g>
     </g>
     <g id="text_17">
      <!-- $\mathdefault{2}$ -->
      <g transform="translate(7.981575 278.07208) scale(0.1 -0.1)">
       <use xlink:href="#CMSY10-0" transform="scale(0.996264)"/>
       <use xlink:href="#CMR17-32" transform="translate(77.487468 0) scale(0.996264)"/>
      </g>
     </g>
    </g>
    <g id="ytick_8">
     <g id="line2d_43">
      <path d="M 27.711654 252.580314 
L 457.79976 252.580314 
" clip-path="url(#p40b96a9320)" style="fill: none; stroke: #b0b0b0; stroke-opacity: 0.2; stroke-width: 0.8; stroke-linecap: square"/>
     </g>
     <g id="line2d_44">
      <g>
       <use xlink:href="#mef4ae14e61" x="27.711654" y="252.580314" style="stroke: #000000; stroke-width: 0.8"/>
      </g>
     </g>
     <g id="text_18">
      <!-- $\mathdefault{0}$ -->
      <g transform="translate(15.730319 256.039563) scale(0.1 -0.1)">
       <use xlink:href="#CMR17-30" transform="scale(0.996264)"/>
      </g>
     </g>
    </g>
    <g id="ytick_9">
     <g id="line2d_45">
      <path d="M 27.711654 230.547797 
L 457.79976 230.547797 
" clip-path="url(#p40b96a9320)" style="fill: none; stroke: #b0b0b0; stroke-opacity: 0.2; stroke-width: 0.8; stroke-linecap: square"/>
     </g>
     <g id="line2d_46">
      <g>
       <use xlink:href="#mef4ae14e61" x="27.711654" y="230.547797" style="stroke: #000000; stroke-width: 0.8"/>
      </g>
     </g>
     <g id="text_19">
      <!-- $\mathdefault{2}$ -->
      <g transform="translate(15.730319 234.007046) scale(0.1 -0.1)">
       <use xlink:href="#CMR17-32" transform="scale(0.996264)"/>
      </g>
     </g>
    </g>
    <g id="ytick_10">
     <g id="line2d_47">
      <path d="M 27.711654 208.51528 
L 457.79976 208.51528 
" clip-path="url(#p40b96a9320)" style="fill: none; stroke: #b0b0b0; stroke-opacity: 0.2; stroke-width: 0.8; stroke-linecap: square"/>
     </g>
     <g id="line2d_48">
      <g>
       <use xlink:href="#mef4ae14e61" x="27.711654" y="208.51528" style="stroke: #000000; stroke-width: 0.8"/>
      </g>
     </g>
     <g id="text_20">
      <!-- $\mathdefault{4}$ -->
      <g transform="translate(15.730319 211.974529) scale(0.1 -0.1)">
       <use xlink:href="#CMR17-34" transform="scale(0.996264)"/>
      </g>
     </g>
    </g>
    <g id="ytick_11">
     <g id="line2d_49">
      <path d="M 27.711654 186.482763 
L 457.79976 186.482763 
" clip-path="url(#p40b96a9320)" style="fill: none; stroke: #b0b0b0; stroke-opacity: 0.2; stroke-width: 0.8; stroke-linecap: square"/>
     </g>
     <g id="line2d_50">
      <g>
       <use xlink:href="#mef4ae14e61" x="27.711654" y="186.482763" style="stroke: #000000; stroke-width: 0.8"/>
      </g>
     </g>
     <g id="text_21">
      <!-- $\mathdefault{6}$ -->
      <g transform="translate(15.730319 189.942012) scale(0.1 -0.1)">
       <use xlink:href="#CMR17-36" transform="scale(0.996264)"/>
      </g>
     </g>
    </g>
   </g>
   <g id="line2d_51">
    <path d="M 47.261114 300.838645 
L 47.808553 274.917553 
L 48.238684 264.331564 
L 48.668815 258.812539 
L 49.098947 255.932767 
L 49.529078 254.429344 
L 49.959209 253.647911 
L 50.428443 253.221431 
L 51.014985 252.990631 
L 51.953453 252.893873 
L 54.26052 252.95398 
L 61.690057 253.237903 
L 62.198394 252.138303 
L 62.745834 251.4926 
L 63.371479 251.100966 
L 64.231741 250.838006 
L 65.639443 250.668182 
L 67.790099 250.643123 
L 70.136269 250.836905 
L 72.443335 251.250834 
L 74.906814 251.924519 
L 77.995937 253.019107 
L 83.157511 254.867938 
L 85.269063 255.366489 
L 87.106896 255.577383 
L 88.827421 255.55259 
L 90.508842 255.308702 
L 90.626151 255.283639 
L 90.665254 255.161505 
L 91.017179 251.297823 
L 91.369105 249.691711 
L 91.681927 249.141007 
L 91.99475 248.986195 
L 92.424881 249.064678 
L 93.363349 249.55421 
L 95.044771 250.364302 
L 96.804398 250.952991 
L 99.033259 251.454792 
L 102.005074 251.883665 
L 106.110871 252.240892 
L 110.490388 252.406807 
L 111.037828 252.320941 
L 111.507062 249.941267 
L 111.976296 248.663241 
L 112.44553 248.003135 
L 112.953866 247.67735 
L 113.540409 247.575549 
L 114.361568 247.681007 
L 115.612859 248.092021 
L 117.450692 248.946897 
L 119.835964 250.316042 
L 123.668041 252.818829 
L 127.069988 254.937809 
L 129.18154 255.996116 
L 130.941168 256.639984 
L 132.544384 256.997492 
L 134.069394 257.113689 
L 135.594404 257.003327 
L 137.119415 256.669838 
L 138.761733 256.078388 
L 139.739304 255.624321 
L 139.856613 253.761915 
L 140.208538 249.64891 
L 140.560464 247.964554 
L 140.873286 247.415337 
L 141.186109 247.293297 
L 141.577137 247.416471 
L 142.476502 248.027157 
L 144.079718 249.045294 
L 145.682934 249.78063 
L 147.55987 250.389985 
L 149.866937 250.89496 
L 152.682341 251.274178 
L 156.162492 251.509265 
L 160.150981 251.583119 
L 161.050346 248.018159 
L 161.480477 247.396602 
L 161.949711 247.105506 
L 162.458048 247.051776 
L 163.161899 247.217293 
L 164.256778 247.733269 
L 166.055508 248.85477 
L 169.183734 251.105402 
L 173.13312 253.895163 
L 175.244673 255.113528 
L 177.043403 255.901353 
L 178.685722 256.38031 
L 180.249835 256.605657 
L 181.813948 256.602989 
L 183.417164 256.374213 
L 185.137689 255.901136 
L 187.131933 255.114051 
L 188.89156 254.269498 
L 189.360794 250.06676 
L 189.71272 248.93949 
L 190.025542 248.571561 
L 190.377468 248.491554 
L 190.924907 248.651286 
L 194.600573 250.141317 
L 196.790332 250.651725 
L 199.449324 251.034154 
L 202.616653 251.25642 
L 206.839759 251.310156 
L 209.303237 251.30218 
L 209.733368 250.291151 
L 210.163499 249.772522 
L 210.632733 249.53255 
L 211.219276 249.496519 
L 212.079538 249.699057 
L 213.604548 250.327195 
L 221.268703 253.734015 
L 223.262947 254.265829 
L 225.10078 254.532468 
L 226.938613 254.573872 
L 228.854651 254.390995 
L 231.04441 253.94988 
L 234.211739 253.05513 
L 238.122022 251.986131 
L 243.322698 251.929913 
L 251.768909 251.895071 
L 258.455493 251.763084 
L 258.96383 252.655916 
L 259.511269 253.194822 
L 260.21512 253.570014 
L 261.270897 253.851233 
L 263.069627 254.072574 
L 265.494002 254.152111 
L 267.840172 254.013274 
L 270.147239 253.654646 
L 272.610717 253.040372 
L 275.817149 251.988011 
L 280.431283 250.481861 
L 282.581938 250.025372 
L 284.458874 249.851064 
L 286.218502 249.910785 
L 287.156969 250.035128 
L 287.939026 255.22432 
L 288.251849 255.643952 
L 288.603774 255.744372 
L 289.112111 255.603411 
L 292.865982 254.085409 
L 295.094844 253.593175 
L 298.105762 253.171508 
L 302.446176 252.80214 
L 306.982104 252.625572 
L 307.568646 252.622608 
L 308.350703 255.830167 
L 308.819937 256.6575 
L 309.289171 257.07203 
L 309.83661 257.265628 
L 310.579564 257.26817 
L 311.674443 257.020462 
L 313.316762 256.402856 
L 315.467418 255.34839 
L 318.243718 253.722412 
L 324.656582 249.86926 
L 326.68993 248.969676 
L 328.410454 248.443979 
L 330.01367 248.184359 
L 331.53868 248.161309 
L 333.063691 248.361659 
L 334.627804 248.792151 
L 336.309225 249.486626 
L 336.700254 254.974034 
L 337.052179 256.949021 
L 337.365002 257.620159 
L 337.677824 257.801734 
L 338.02975 257.728568 
L 338.733601 257.281788 
L 340.571434 256.082941 
L 342.135547 255.355052 
L 344.012483 254.735367 
L 346.280447 254.228238 
L 349.095851 253.834904 
L 352.576002 253.581325 
L 356.681799 253.493199 
L 356.720902 253.522268 
L 357.190136 256.006865 
L 357.620267 257.225446 
L 358.050398 257.858895 
L 358.519632 258.159956 
L 359.027969 258.222248 
L 359.73182 258.066126 
L 360.826699 257.560893 
L 362.586327 256.47494 
L 365.440833 254.422054 
L 370.09407 251.076327 
L 372.205622 249.850902 
L 373.96525 249.076284 
L 375.568466 248.603601 
L 377.132579 248.374637 
L 378.657589 248.376095 
L 380.221702 248.59955 
L 381.903124 249.066931 
L 383.819163 249.837799 
L 385.422379 250.627867 
L 385.500584 251.403128 
L 385.85251 254.90294 
L 386.204435 256.355592 
L 386.517258 256.849373 
L 386.830081 256.982539 
L 387.260212 256.899382 
L 388.276885 256.380842 
L 390.036513 255.559524 
L 391.913448 254.946848 
L 394.181412 254.451577 
L 396.879508 254.096455 
L 400.125042 253.899867 
L 404.93469 253.861578 
L 405.873158 253.928628 
L 406.303289 255.124276 
L 406.73342 255.747513 
L 407.202654 256.048607 
L 407.750094 256.12026 
L 408.493048 255.973218 
L 409.744338 255.465366 
L 412.442434 254.07436 
L 416.626436 251.957038 
L 418.855297 251.088338 
L 420.771336 250.578182 
L 422.570066 250.329435 
L 424.368796 250.30927 
L 426.245732 250.514459 
L 428.396388 250.980998 
L 431.485511 251.907444 
L 434.65284 252.993303 
L 435.043869 253.476469 
L 435.513103 253.683782 
L 436.295159 253.737198 
L 438.250301 253.622878 
L 438.250301 253.622878 
" clip-path="url(#p40b96a9320)" style="fill: none; stroke: #1f77b4; stroke-width: 1.5; stroke-linecap: square"/>
   </g>
   <g id="line2d_52">
    <path d="M 47.261114 181.557158 
L 47.456628 207.588241 
L 47.76945 236.401858 
L 48.082273 247.373722 
L 48.434198 252.539324 
L 48.786124 254.750574 
L 49.138049 255.720573 
L 49.489975 256.120378 
L 49.881003 256.245411 
L 50.467546 256.159657 
L 51.91435 255.6192 
L 54.025903 254.931848 
L 56.254764 254.451646 
L 58.952859 254.10431 
L 61.690057 253.957012 
L 62.159291 256.222439 
L 62.589423 257.32541 
L 63.019554 257.89008 
L 63.488788 258.147002 
L 64.036227 258.17773 
L 64.779181 257.976898 
L 65.952266 257.402087 
L 67.868304 256.1907 
L 71.348456 253.681239 
L 74.789505 251.294009 
L 76.901058 250.097745 
L 78.699788 249.330575 
L 80.342107 248.870329 
L 81.90622 248.661144 
L 83.470333 248.676865 
L 85.112652 248.922732 
L 86.872279 249.416365 
L 88.944729 250.23909 
L 90.626151 251.037006 
L 90.665254 251.152335 
L 91.017179 254.492525 
L 91.369105 255.890761 
L 91.681927 256.378581 
L 92.033853 256.52815 
L 92.503087 256.444271 
L 93.754377 255.881954 
L 95.553107 255.18835 
L 97.625557 254.641436 
L 100.128138 254.218966 
L 103.099953 253.947135 
L 106.814722 253.842473 
L 111.037828 253.888046 
L 111.467959 254.771117 
L 111.937193 255.242545 
L 112.44553 255.426855 
L 113.110278 255.401196 
L 114.126951 255.104636 
L 116.160298 254.233172 
L 121.43918 251.929113 
L 123.668041 251.230722 
L 125.623183 250.849684 
L 127.500119 250.713504 
L 129.377054 250.800975 
L 131.449504 251.125922 
L 134.069394 251.779675 
L 139.778407 253.306194 
L 140.208538 253.042221 
L 140.834183 252.9555 
L 142.906633 253.031984 
L 148.263721 253.107081 
L 155.654156 253.278853 
L 160.150981 253.383498 
L 161.206757 251.746074 
L 161.871505 251.345925 
L 162.809973 251.072742 
L 164.334984 250.888184 
L 166.64205 250.840935 
L 168.98822 251.010384 
L 171.295287 251.397751 
L 173.758765 252.041342 
L 176.886992 253.106743 
L 181.774845 254.777245 
L 183.925501 255.258166 
L 185.763334 255.448128 
L 187.483858 255.408232 
L 188.89156 255.210645 
L 189.360794 250.819342 
L 189.71272 249.653126 
L 190.025542 249.282053 
L 190.377468 249.213127 
L 190.885804 249.379606 
L 194.248648 250.850444 
L 196.321098 251.373408 
L 199.058296 251.819265 
L 202.929476 252.207127 
L 207.54361 252.450618 
L 209.303237 252.470074 
L 209.772471 250.10148 
L 210.241705 248.82542 
L 210.710939 248.162056 
L 211.219276 247.82934 
L 211.805818 247.717027 
L 212.626977 247.805324 
L 213.878268 248.187545 
L 215.716101 248.998127 
L 218.062271 250.288235 
L 221.542422 252.490645 
L 225.452705 254.902202 
L 227.603361 255.965768 
L 229.402091 256.612599 
L 231.005307 256.960528 
L 232.530317 257.069779 
L 234.055328 256.95413 
L 235.619441 256.605086 
L 237.26176 256.004712 
L 238.004713 255.662395 
L 238.043816 255.515742 
L 238.395742 250.405484 
L 238.747667 248.275406 
L 239.06049 247.538842 
L 239.373312 247.324958 
L 239.725238 247.381503 
L 240.350883 247.763829 
L 242.38423 249.08888 
L 243.987446 249.82015 
L 245.864382 250.426139 
L 248.171449 250.928929 
L 251.025955 251.312339 
L 254.54521 251.550419 
L 258.41639 251.624097 
L 258.533699 251.007467 
L 258.96383 248.971371 
L 259.393961 247.85802 
L 259.824092 247.287984 
L 260.293326 247.028592 
L 260.840766 246.997561 
L 261.583719 247.200378 
L 262.756804 247.781057 
L 264.672843 249.005633 
L 268.035686 251.460208 
L 271.633146 254.002447 
L 273.744699 255.223077 
L 275.543429 256.009574 
L 277.185748 256.484568 
L 278.749861 256.703556 
L 280.274872 256.694902 
L 281.878088 256.459367 
L 283.598612 255.974821 
L 285.553753 255.186434 
L 287.156969 254.403284 
L 287.939026 248.905767 
L 288.251849 248.449031 
L 288.603774 248.327947 
L 289.073008 248.442946 
L 290.598018 249.198731 
L 292.318543 249.886786 
L 294.35189 250.448522 
L 296.815368 250.887858 
L 299.74808 251.176998 
L 303.384643 251.299685 
L 307.568646 251.300631 
L 308.272497 249.776403 
L 308.741731 249.388924 
L 309.250068 249.261017 
L 309.914816 249.333828 
L 310.970592 249.696829 
L 313.082145 250.700938 
L 318.439233 253.294435 
L 320.628991 254.072444 
L 322.54503 254.518384 
L 324.34376 254.71105 
L 326.181593 254.68018 
L 328.136734 254.418545 
L 330.443801 253.875366 
L 335.175243 252.453051 
L 336.50474 251.969527 
L 337.013076 251.754296 
L 337.873339 251.678549 
L 340.845154 251.756445 
L 347.727252 251.870873 
L 354.179218 251.71868 
L 356.720902 251.690649 
L 357.229239 252.465005 
L 357.815781 252.968688 
L 358.597838 253.332481 
L 359.849129 253.634596 
L 362.038887 253.908384 
L 364.541468 254.008304 
L 366.887638 253.882146 
L 369.194705 253.532326 
L 371.658183 252.928226 
L 375.060129 251.837567 
L 379.126823 250.578299 
L 381.316582 250.141959 
L 383.193517 249.991406 
L 384.953145 250.069134 
L 385.422379 250.127067 
L 385.500584 250.783596 
L 385.85251 253.782753 
L 386.204435 255.017349 
L 386.517258 255.428276 
L 386.869183 255.530222 
L 387.37752 255.399885 
L 391.209597 253.941418 
L 393.516664 253.469905 
L 396.723096 253.059298 
L 401.415436 252.696648 
L 405.834055 252.559156 
L 405.990467 253.353992 
L 406.459701 255.244758 
L 406.928935 256.262306 
L 407.398169 256.789149 
L 407.945608 257.060889 
L 408.610356 257.128834 
L 409.587927 256.982185 
L 411.073834 256.514491 
L 413.107182 255.630832 
L 415.609763 254.288476 
L 420.184794 251.513124 
L 423.078403 249.905974 
L 425.11175 249.021474 
L 426.871377 248.493946 
L 428.474593 248.242617 
L 429.999604 248.224889 
L 431.524614 248.428531 
L 433.088727 248.860773 
L 434.574635 249.46377 
L 435.20028 256.385383 
L 435.513103 257.375964 
L 435.825925 257.715898 
L 436.138748 257.735786 
L 436.647085 257.484273 
L 438.250301 256.383266 
L 438.250301 256.383266 
" clip-path="url(#p40b96a9320)" style="fill: none; stroke: #ff7f0e; stroke-width: 1.5; stroke-linecap: square"/>
   </g>
   <g id="patch_9">
    <path d="M 27.711654 306.802719 
L 27.711654 175.593084 
" style="fill: none; stroke: #000000; stroke-width: 0.8; stroke-linejoin: miter; stroke-linecap: square"/>
   </g>
   <g id="patch_10">
    <path d="M 457.79976 306.802719 
L 457.79976 175.593084 
" style="fill: none; stroke: #000000; stroke-width: 0.8; stroke-linejoin: miter; stroke-linecap: square"/>
   </g>
   <g id="patch_11">
    <path d="M 27.711654 306.802719 
L 457.79976 306.802719 
" style="fill: none; stroke: #000000; stroke-width: 0.8; stroke-linejoin: miter; stroke-linecap: square"/>
   </g>
   <g id="patch_12">
    <path d="M 27.711654 175.593084 
L 457.79976 175.593084 
" style="fill: none; stroke: #000000; stroke-width: 0.8; stroke-linejoin: miter; stroke-linecap: square"/>
   </g>
   <g id="text_22">
    <!-- Inputs -->
    <g transform="translate(219.679135 172.10502) scale(0.18 -0.18)">
     <defs>
      <path id="CMR17-49" d="M 1261 3905 
C 1261 4192 1338 4192 1798 4192 
L 1798 4352 
C 1594 4352 1267 4352 1050 4352 
C 832 4352 506 4352 301 4352 
L 301 4192 
C 762 4192 838 4192 838 3905 
L 838 447 
C 838 160 762 160 301 160 
L 301 0 
C 506 0 832 0 1050 0 
C 1267 0 1594 0 1798 0 
L 1798 160 
C 1338 160 1261 160 1261 447 
L 1261 3905 
z
" transform="scale(0.015625)"/>
      <path id="CMR17-70" d="M 1408 -1063 
C 998 -1063 973 -1037 973 -789 
L 973 402 
C 1158 134 1427 -38 1766 -38 
C 2406 -38 3053 523 3053 1388 
C 3053 2191 2496 2802 1837 2802 
C 1453 2802 1139 2592 960 2338 
L 960 2802 
L 198 2732 
L 198 2567 
C 576 2567 634 2528 634 2223 
L 634 -789 
C 634 -1031 608 -1063 198 -1063 
L 198 -1228 
C 352 -1216 634 -1216 800 -1216 
C 966 -1216 1254 -1216 1408 -1228 
L 1408 -1063 
z
M 973 2012 
C 973 2102 973 2235 1222 2471 
C 1254 2497 1472 2688 1792 2688 
C 2259 2688 2643 2108 2643 1382 
C 2643 656 2234 64 1728 64 
C 1498 64 1248 172 1056 472 
C 973 612 973 650 973 752 
L 973 2012 
z
" transform="scale(0.015625)"/>
      <path id="CMR17-73" d="M 1978 2697 
C 1978 2813 1971 2819 1933 2819 
C 1907 2819 1901 2813 1824 2717 
C 1805 2691 1747 2626 1728 2601 
C 1523 2819 1235 2819 1126 2819 
C 416 2819 160 2447 160 2076 
C 160 1498 813 1365 998 1325 
C 1402 1243 1542 1217 1677 1101 
C 1760 1025 1901 884 1901 654 
C 1901 384 1747 38 1158 38 
C 602 38 403 460 288 1021 
C 269 1110 269 1117 218 1117 
C 166 1117 160 1110 160 983 
L 160 63 
C 160 -51 166 -58 205 -58 
C 237 -58 243 -51 275 0 
C 314 57 410 211 448 276 
C 576 103 800 -64 1158 -64 
C 1792 -64 2131 283 2131 784 
C 2131 1112 1958 1285 1875 1362 
C 1683 1561 1459 1606 1190 1657 
C 838 1735 390 1825 390 2217 
C 390 2383 480 2737 1126 2737 
C 1811 2737 1850 2094 1862 1888 
C 1869 1856 1901 1849 1920 1849 
C 1978 1849 1978 1869 1978 1978 
L 1978 2697 
z
" transform="scale(0.015625)"/>
     </defs>
     <use xlink:href="#CMR17-49" transform="scale(0.996264)"/>
     <use xlink:href="#CMR17-6e" transform="translate(32.638409 0) scale(0.996264)"/>
     <use xlink:href="#CMR17-70" transform="translate(83.533779 0) scale(0.996264)"/>
     <use xlink:href="#CMR17-75" transform="translate(134.429149 0) scale(0.996264)"/>
     <use xlink:href="#CMR17-74" transform="translate(185.324519 0) scale(0.996264)"/>
     <use xlink:href="#CMR17-73" transform="translate(220.605286 0) scale(0.996264)"/>
    </g>
   </g>
   <g id="legend_2">
    <g id="patch_13">
     <path d="M 392.251604 225.817141 
L 447.99976 225.817141 
Q 450.79976 225.817141 450.79976 223.017141 
L 450.79976 185.393084 
Q 450.79976 182.593084 447.99976 182.593084 
L 392.251604 182.593084 
Q 389.451604 182.593084 389.451604 185.393084 
L 389.451604 223.017141 
Q 389.451604 225.817141 392.251604 225.817141 
z
" style="fill: #ffffff; opacity: 0.8; stroke: #cccccc; stroke-linejoin: miter"/>
    </g>
    <g id="line2d_53">
     <path d="M 395.051604 193.093084 
L 409.051604 193.093084 
L 423.051604 193.093084 
" style="fill: none; stroke: #1f77b4; stroke-width: 1.5; stroke-linecap: square"/>
    </g>
    <g id="text_23">
     <!-- $\tau_1$ -->
     <g transform="translate(434.251604 197.993084) scale(0.14 -0.14)">
      <defs>
       <path id="CMMI12-1c" d="M 1837 2408 
L 2899 2408 
C 2982 2408 3194 2408 3194 2612 
C 3194 2752 3072 2752 2957 2752 
L 1197 2752 
C 1050 2752 832 2752 538 2440 
C 371 2255 166 1917 166 1879 
C 166 1841 198 1828 237 1828 
C 282 1828 288 1847 320 1885 
C 653 2408 986 2408 1146 2408 
L 1677 2408 
L 1011 223 
C 979 127 979 114 979 95 
C 979 25 1024 -64 1152 -64 
C 1350 -64 1382 108 1402 203 
L 1837 2408 
z
" transform="scale(0.015625)"/>
      </defs>
      <use xlink:href="#CMMI12-1c" transform="scale(0.996264)"/>
      <use xlink:href="#CMR17-31" transform="translate(42.363841 -14.943915) scale(0.697382)"/>
     </g>
    </g>
    <g id="line2d_54">
     <path d="M 395.051604 212.605112 
L 409.051604 212.605112 
L 423.051604 212.605112 
" style="fill: none; stroke: #ff7f0e; stroke-width: 1.5; stroke-linecap: square"/>
    </g>
    <g id="text_24">
     <!-- $\tau_2$ -->
     <g transform="translate(434.251604 217.505112) scale(0.14 -0.14)">
      <use xlink:href="#CMMI12-1c" transform="scale(0.996264)"/>
      <use xlink:href="#CMR17-32" transform="translate(42.363841 -14.943915) scale(0.697382)"/>
     </g>
    </g>
   </g>
  </g>
 </g>
 <defs>
  <clipPath id="p5e48fbb10b">
   <rect x="27.711654" y="18.941604" width="430.088106" height="131.209635"/>
  </clipPath>
  <clipPath id="p40b96a9320">
   <rect x="27.711654" y="175.593084" width="430.088106" height="131.209635"/>
  </clipPath>
 </defs>
</svg>
