<?xml version="1.0" encoding="utf-8" standalone="no"?>
<!DOCTYPE svg PUBLIC "-//W3C//DTD SVG 1.1//EN"
  "http://www.w3.org/Graphics/SVG/1.1/DTD/svg11.dtd">
<svg xmlns:xlink="http://www.w3.org/1999/xlink" width="432pt" height="432pt" viewBox="0 0 432 432" xmlns="http://www.w3.org/2000/svg" version="1.1">
 <metadata>
  <rdf:RDF xmlns:dc="http://purl.org/dc/elements/1.1/" xmlns:cc="http://creativecommons.org/ns#" xmlns:rdf="http://www.w3.org/1999/02/22-rdf-syntax-ns#">
   <cc:Work>
    <dc:type rdf:resource="http://purl.org/dc/dcmitype/StillImage"/>
    <dc:date>2025-09-24T17:41:42.380009</dc:date>
    <dc:format>image/svg+xml</dc:format>
    <dc:creator>
     <cc:Agent>
      <dc:title>Matplotlib v3.10.3, https://matplotlib.org/</dc:title>
     </cc:Agent>
    </dc:creator>
   </cc:Work>
  </rdf:RDF>
 </metadata>
 <defs>
  <style type="text/css">*{stroke-linejoin: round; stroke-linecap: butt}</style>
 </defs>
 <g id="figure_1">
  <g id="patch_1">
   <path d="M 0 432 
L 432 432 
L 432 0 
L 0 0 
z
" style="fill: #ffffff"/>
  </g>
  <g id="axes_1">
   <g id="patch_2">
    <path d="M 55.08 384.48 
L 387.72 384.48 
L 387.72 51.84 
L 55.08 51.84 
z
" style="fill: #ffffff"/>
   </g>
   <g id="patch_3">
    <path d="M 379.8 218.16 
L 379.780361 215.665726 
L 379.721447 213.17207 
L 379.623274 210.679651 
L 379.485866 208.189087 
L 379.309256 205.700996 
L 379.09349 203.215994 
L 378.838619 200.734698 
L 378.544708 198.257723 
L 378.21183 195.785683 
L 377.840066 193.319191 
L 377.429509 190.858859 
L 376.980261 188.405297 
L 376.492433 185.959114 
L 375.966147 183.520915 
L 375.401532 181.091306 
L 374.798729 178.670889 
L 374.157887 176.260265 
L 373.479166 173.86003 
L 372.762732 171.47078 
L 372.008765 169.093109 
L 371.217451 166.727604 
L 370.388986 164.374853 
L 369.523576 162.03544 
L 368.621435 159.709944 
L 367.682787 157.398942 
L 366.707865 155.103007 
L 365.696911 152.822709 
L 364.650174 150.558613 
L 363.567916 148.31128 
L 362.450403 146.081267 
L 361.297914 143.869128 
L 360.110734 141.675411 
L 358.889157 139.500661 
L 357.633487 137.345416 
L 356.344034 135.21021 
L 355.021119 133.095574 
L 353.66507 131.002032 
L 352.276222 128.930103 
L 350.85492 126.8803 
L 349.401517 124.853132 
L 347.916373 122.849102 
L 346.399857 120.868706 
L 344.852343 118.912436 
L 343.274217 116.980777 
L 341.66587 115.074208 
L 340.027699 113.193201 
L 338.360112 111.338222 
L 336.663522 109.509733 
L 334.93835 107.708187 
L 333.185023 105.934029 
L 331.403977 104.187701 
L 329.595653 102.469634 
L 327.760498 100.780256 
L 325.89897 99.119984 
L 324.011528 97.489232 
L 322.098642 95.888402 
L 320.160785 94.317893 
L 318.198437 92.778093 
L 316.212087 91.269385 
L 314.202225 89.792142 
L 312.169352 88.346731 
L 310.113969 86.93351 
L 308.036588 85.55283 
L 305.937724 84.205033 
L 303.817896 82.890453 
L 301.677631 81.609416 
L 299.517459 80.36224 
L 297.337916 79.149235 
L 295.139543 77.9707 
L 292.922884 76.826929 
L 290.688489 75.718204 
L 288.436913 74.644801 
L 286.168713 73.606986 
L 283.884453 72.605017 
L 281.584698 71.639141 
L 279.270018 70.709598 
L 276.940989 69.816619 
L 274.598187 68.960426 
L 272.242193 68.14123 
L 269.873591 67.359234 
L 267.49297 66.614633 
L 265.100918 65.907612 
L 262.69803 65.238345 
L 260.284901 64.606998 
L 257.86213 64.013728 
L 255.430317 63.458683 
L 252.990065 62.941999 
L 250.54198 62.463805 
L 248.086669 62.02422 
L 245.62474 61.623353 
L 243.156804 61.261302 
L 240.683472 60.938158 
L 238.205359 60.654 
L 235.723079 60.4089 
L 233.237247 60.202919 
L 230.748479 60.036106 
L 228.257394 59.908503 
L 225.764608 59.820143 
L 223.27074 59.771047 
L 220.776407 59.761227 
L 218.28223 59.790686 
L 215.788825 59.859417 
L 213.296812 59.967401 
L 210.806809 60.114613 
L 208.319432 60.301016 
L 205.835298 60.526564 
L 203.355025 60.791201 
L 200.879226 61.094861 
L 198.408516 61.437469 
L 195.943507 61.81894 
L 193.48481 62.23918 
L 191.033036 62.698083 
L 188.588792 63.195538 
L 186.152684 63.731419 
L 183.725317 64.305594 
L 181.307292 64.917921 
L 178.899208 65.568248 
L 176.501664 66.256414 
L 174.115254 66.982248 
L 171.740569 67.74557 
L 169.378198 68.54619 
L 167.028727 69.383911 
L 164.692739 70.258524 
L 162.370812 71.169813 
L 160.063524 72.117552 
L 157.771445 73.101505 
L 155.495144 74.121429 
L 153.235186 75.177071 
L 150.992131 76.268168 
L 148.766535 77.394451 
L 146.558951 78.55564 
L 144.369925 79.751447 
L 142.2 80.981576 
L 140.049715 82.245721 
L 137.919602 83.54357 
L 135.810191 84.8748 
L 133.722003 86.239081 
L 131.655558 87.636075 
L 129.611366 89.065435 
L 127.589936 90.526807 
L 125.591768 92.019829 
L 123.617358 93.544131 
L 121.667195 95.099333 
L 119.741764 96.685052 
L 117.841541 98.300893 
L 115.966998 99.946456 
L 114.118599 101.621333 
L 112.296803 103.325108 
L 110.502062 105.057359 
L 108.734821 106.817657 
L 106.995518 108.605564 
L 105.284584 110.420638 
L 103.602443 112.262429 
L 101.949513 114.130479 
L 100.326204 116.024326 
L 98.732917 117.9435 
L 97.170049 119.887525 
L 95.637987 121.855919 
L 94.13711 123.848194 
L 92.667791 125.863855 
L 91.230394 127.902404 
L 89.825276 129.963334 
L 88.452785 132.046134 
L 87.113261 134.150288 
L 85.807036 136.275275 
L 84.534435 138.420567 
L 83.295774 140.585632 
L 82.091358 142.769933 
L 80.921487 144.972929 
L 79.786451 147.194074 
L 78.686531 149.432816 
L 77.622001 151.6886 
L 76.593124 153.960868 
L 75.600154 156.249056 
L 74.64334 158.552595 
L 73.722917 160.870916 
L 72.839114 163.203443 
L 71.99215 165.549598 
L 71.182236 167.908799 
L 70.409571 170.28046 
L 69.674348 172.663995 
L 68.976749 175.058811 
L 68.316947 177.464315 
L 67.695105 179.879911 
L 67.111378 182.304999 
L 66.56591 184.738978 
L 66.058838 187.181245 
L 65.590285 189.631194 
L 65.16037 192.088217 
L 64.769197 194.551705 
L 64.416865 197.021047 
L 64.10346 199.495632 
L 63.829061 201.974844 
L 63.593735 204.45807 
L 63.397541 206.944694 
L 63.240528 209.434099 
L 63.122733 211.925667 
L 63.044188 214.418782 
L 63.00491 216.912824 
L 63.00491 219.407176 
L 63.044188 221.901218 
L 63.122733 224.394333 
L 63.240528 226.885901 
L 63.397541 229.375306 
L 63.593735 231.86193 
L 63.829061 234.345156 
L 64.10346 236.824368 
L 64.416865 239.298953 
L 64.769197 241.768295 
L 65.16037 244.231783 
L 65.590285 246.688806 
L 66.058838 249.138755 
L 66.56591 251.581022 
L 67.111378 254.015001 
L 67.695105 256.440089 
L 68.316947 258.855685 
L 68.976749 261.261189 
L 69.674348 263.656005 
L 70.409571 266.03954 
L 71.182236 268.411201 
L 71.99215 270.770402 
L 72.839114 273.116557 
L 73.722917 275.449084 
L 74.64334 277.767405 
L 75.600154 280.070944 
L 76.593124 282.359132 
L 77.622001 284.6314 
L 78.686531 286.887184 
L 79.786451 289.125926 
L 80.921487 291.347071 
L 82.091358 293.550067 
L 83.295774 295.734368 
L 84.534435 297.899433 
L 85.807036 300.044725 
L 87.113261 302.169712 
L 88.452785 304.273866 
L 89.825276 306.356666 
L 91.230394 308.417596 
L 92.667791 310.456145 
L 94.13711 312.471806 
L 95.637987 314.464081 
L 97.170049 316.432475 
L 98.732917 318.3765 
L 100.326204 320.295674 
L 101.949513 322.189521 
L 103.602443 324.057571 
L 105.284584 325.899362 
L 106.995518 327.714436 
L 108.734821 329.502343 
L 110.502062 331.262641 
L 112.296803 332.994892 
L 114.118599 334.698667 
L 115.966998 336.373544 
L 117.841541 338.019107 
L 119.741764 339.634948 
L 121.667195 341.220667 
L 123.617358 342.775869 
L 125.591768 344.300171 
L 127.589936 345.793193 
L 129.611366 347.254565 
L 131.655558 348.683925 
L 133.722003 350.080919 
L 135.810191 351.4452 
L 137.919602 352.77643 
L 140.049715 354.074279 
L 142.2 355.338424 
L 144.369925 356.568553 
L 146.558951 357.76436 
L 148.766535 358.925549 
L 150.992131 360.051832 
L 153.235186 361.142929 
L 155.495144 362.198571 
L 157.771445 363.218495 
L 160.063524 364.202448 
L 162.370812 365.150187 
L 164.692739 366.061476 
L 167.028727 366.936089 
L 169.378198 367.77381 
L 171.740569 368.57443 
L 174.115254 369.337752 
L 176.501664 370.063586 
L 178.899208 370.751752 
L 181.307292 371.402079 
L 183.725317 372.014406 
L 186.152684 372.588581 
L 188.588792 373.124462 
L 191.033036 373.621917 
L 193.48481 374.08082 
L 195.943507 374.50106 
L 198.408516 374.882531 
L 200.879226 375.225139 
L 203.355025 375.528799 
L 205.835298 375.793436 
L 208.319432 376.018984 
L 210.806809 376.205387 
L 213.296812 376.352599 
L 215.788825 376.460583 
L 218.28223 376.529314 
L 220.776407 376.558773 
L 223.27074 376.548953 
L 225.764608 376.499857 
L 228.257394 376.411497 
L 230.748479 376.283894 
L 233.237247 376.117081 
L 235.723079 375.9111 
L 238.205359 375.666 
L 240.683472 375.381842 
L 243.156804 375.058698 
L 245.62474 374.696647 
L 248.086669 374.29578 
L 250.54198 373.856195 
L 252.990065 373.378001 
L 255.430317 372.861317 
L 257.86213 372.306272 
L 260.284901 371.713002 
L 262.69803 371.081655 
L 265.100918 370.412388 
L 267.49297 369.705367 
L 269.873591 368.960766 
L 272.242193 368.17877 
L 274.598187 367.359574 
L 276.940989 366.503381 
L 279.270018 365.610402 
L 281.584698 364.680859 
L 283.884453 363.714983 
L 286.168713 362.713014 
L 288.436913 361.675199 
L 290.688489 360.601796 
L 292.922884 359.493071 
L 295.139543 358.3493 
L 297.337916 357.170765 
L 299.517459 355.95776 
L 301.677631 354.710584 
L 303.817896 353.429547 
L 305.937724 352.114967 
L 308.036588 350.76717 
L 310.113969 349.38649 
L 312.169352 347.973269 
L 314.202225 346.527858 
L 316.212087 345.050615 
L 318.198437 343.541907 
L 320.160785 342.002107 
L 322.098642 340.431598 
L 324.011528 338.830768 
L 325.89897 337.200016 
L 327.760498 335.539744 
L 329.595653 333.850366 
L 331.403977 332.132299 
L 333.185023 330.385971 
L 334.93835 328.611813 
L 336.663522 326.810267 
L 338.360112 324.981778 
L 340.027699 323.126799 
L 341.66587 321.245792 
L 343.274217 319.339223 
L 344.852343 317.407564 
L 346.399857 315.451294 
L 347.916373 313.470898 
L 349.401517 311.466868 
L 350.85492 309.4397 
L 352.276222 307.389897 
L 353.66507 305.317968 
L 355.021119 303.224426 
L 356.344034 301.10979 
L 357.633487 298.974584 
L 358.889157 296.819339 
L 360.110734 294.644589 
L 361.297914 292.450872 
L 362.450403 290.238733 
L 363.567916 288.00872 
L 364.650174 285.761387 
L 365.696911 283.497291 
L 366.707865 281.216993 
L 367.682787 278.921058 
L 368.621435 276.610056 
L 369.523576 274.28456 
L 370.388986 271.945147 
L 371.217451 269.592396 
L 372.008765 267.226891 
L 372.762732 264.84922 
L 373.479166 262.45997 
L 374.157887 260.059735 
L 374.798729 257.649111 
L 375.401532 255.228694 
L 375.966147 252.799085 
L 376.492433 250.360886 
L 376.980261 247.914703 
L 377.429509 245.461141 
L 377.840066 243.000809 
L 378.21183 240.534317 
L 378.544708 238.062277 
L 378.838619 235.585302 
L 379.09349 233.104006 
L 379.309256 230.619004 
L 379.485866 228.130913 
L 379.623274 225.640349 
L 379.721447 223.14793 
L 379.780361 220.654274 
L 379.8 218.16 
z
" clip-path="url(#p11e4554c51)" style="fill: #d3d3d3; opacity: 0.4; stroke: #d3d3d3; stroke-linejoin: miter"/>
   </g>
   <g id="patch_4">
    <path d="M 358.578424 218.16 
L 358.561416 215.999895 
L 358.510395 213.840326 
L 358.425375 211.681828 
L 358.306376 209.524936 
L 358.153427 207.370186 
L 357.966568 205.218111 
L 357.745844 203.069246 
L 357.491309 200.924122 
L 357.203028 198.783273 
L 356.881071 196.647228 
L 356.525519 194.516518 
L 356.136458 192.391672 
L 355.713987 190.273214 
L 355.25821 188.161673 
L 354.769239 186.057569 
L 354.247196 183.961427 
L 353.692211 181.873765 
L 353.104421 179.7951 
L 352.483971 177.72595 
L 351.831017 175.666826 
L 351.145719 173.618239 
L 350.428247 171.580697 
L 349.67878 169.554705 
L 348.897503 167.540767 
L 348.08461 165.53938 
L 347.240303 163.551043 
L 346.36479 161.576246 
L 345.45829 159.615481 
L 344.521027 157.669234 
L 343.553232 155.737986 
L 342.555148 153.822218 
L 341.527019 151.922403 
L 340.469103 150.039014 
L 339.381661 148.172517 
L 338.264962 146.323375 
L 337.119284 144.492047 
L 335.94491 142.678986 
L 334.742133 140.884642 
L 333.51125 139.109461 
L 332.252566 137.353882 
L 330.966393 135.618341 
L 329.653051 133.903268 
L 328.312866 132.209089 
L 326.946168 130.536223 
L 325.553298 128.885085 
L 324.134601 127.256085 
L 322.690428 125.649627 
L 321.221138 124.066109 
L 319.727095 122.505924 
L 318.20867 120.969458 
L 316.666239 119.457093 
L 315.100184 117.969204 
L 313.510894 116.50616 
L 311.898763 115.068322 
L 310.26419 113.656049 
L 308.607582 112.26969 
L 306.929348 110.909589 
L 305.229906 109.576084 
L 303.509676 108.269504 
L 301.769085 106.990174 
L 300.008564 105.738411 
L 298.228551 104.514526 
L 296.429486 103.318822 
L 294.611816 102.151595 
L 292.775992 101.013136 
L 290.922468 99.903725 
L 289.051704 98.82364 
L 287.164165 97.773146 
L 285.260317 96.752505 
L 283.340634 95.76197 
L 281.405592 94.801786 
L 279.45567 93.872192 
L 277.491351 92.973418 
L 275.513123 92.105687 
L 273.521477 91.269214 
L 271.516906 90.464206 
L 269.499907 89.690864 
L 267.470981 88.949378 
L 265.43063 88.239934 
L 263.379361 87.562706 
L 261.317683 86.917863 
L 259.246105 86.305564 
L 257.165143 85.725962 
L 255.075312 85.179199 
L 252.977131 84.665413 
L 250.871119 84.184729 
L 248.757799 83.737268 
L 246.637695 83.32314 
L 244.511333 82.942448 
L 242.37924 82.595287 
L 240.241945 82.281742 
L 238.099977 82.001891 
L 235.953868 81.755803 
L 233.80415 81.54354 
L 231.651356 81.365155 
L 229.496021 81.220691 
L 227.338677 81.110184 
L 225.179861 81.033662 
L 223.020108 80.991143 
L 220.859953 80.982639 
L 218.699932 81.008151 
L 216.54058 81.067673 
L 214.382434 81.161191 
L 212.226027 81.28868 
L 210.071896 81.45011 
L 207.920573 81.64544 
L 205.772593 81.874622 
L 203.628488 82.1376 
L 201.488791 82.434307 
L 199.35403 82.764671 
L 197.224736 83.128609 
L 195.101438 83.526031 
L 192.98466 83.956839 
L 190.874929 84.420926 
L 188.772767 84.918176 
L 186.678696 85.448467 
L 184.593235 86.011667 
L 182.516901 86.607636 
L 180.450209 87.236226 
L 178.393671 87.897282 
L 176.347798 88.59064 
L 174.313096 89.316127 
L 172.290071 90.073565 
L 170.279224 90.862764 
L 168.281053 91.68353 
L 166.296055 92.535658 
L 164.32472 93.418938 
L 162.367539 94.333151 
L 160.424997 95.278069 
L 158.497574 96.253459 
L 156.58575 97.259078 
L 154.689998 98.294677 
L 152.810788 99.36 
L 150.948586 100.454782 
L 149.103855 101.578752 
L 147.277051 102.731631 
L 145.468628 103.913133 
L 143.679033 105.122965 
L 141.908711 106.360827 
L 140.158101 107.626413 
L 138.427637 108.919408 
L 136.717748 110.239491 
L 135.028858 111.586336 
L 133.361385 112.959609 
L 131.715744 114.358968 
L 130.092342 115.784068 
L 128.491581 117.234553 
L 126.91386 118.710066 
L 125.359569 120.21024 
L 123.829093 121.734702 
L 122.322812 123.283075 
L 120.8411 124.854976 
L 119.384323 126.450013 
L 117.952844 128.067792 
L 116.547017 129.707912 
L 115.16719 131.369965 
L 113.813707 133.05354 
L 112.486902 134.758219 
L 111.187104 136.48358 
L 109.914637 138.229194 
L 108.669814 139.994629 
L 107.452946 141.779446 
L 106.264334 143.583204 
L 105.104272 145.405456 
L 103.973049 147.245748 
L 102.870944 149.103625 
L 101.798232 150.978626 
L 100.755177 152.870287 
L 99.742039 154.778137 
L 98.759069 156.701705 
L 97.806511 158.640512 
L 96.8846 160.594079 
L 95.993566 162.561921 
L 95.13363 164.543549 
L 94.305004 166.538473 
L 93.507894 168.546198 
L 92.742499 170.566226 
L 92.009006 172.598055 
L 91.3076 174.641183 
L 90.638453 176.695102 
L 90.001731 178.759304 
L 89.397592 180.833276 
L 88.826187 182.916503 
L 88.287656 185.008471 
L 87.782134 187.108659 
L 87.309745 189.216546 
L 86.870607 191.331611 
L 86.464829 193.453329 
L 86.092511 195.581174 
L 85.753746 197.714617 
L 85.448617 199.85313 
L 85.177201 201.996183 
L 84.939564 204.143244 
L 84.735766 206.293781 
L 84.565857 208.44726 
L 84.429879 210.603148 
L 84.327866 212.76091 
L 84.259844 214.92001 
L 84.225828 217.079914 
L 84.225828 219.240086 
L 84.259844 221.39999 
L 84.327866 223.55909 
L 84.429879 225.716852 
L 84.565857 227.87274 
L 84.735766 230.026219 
L 84.939564 232.176756 
L 85.177201 234.323817 
L 85.448617 236.46687 
L 85.753746 238.605383 
L 86.092511 240.738826 
L 86.464829 242.866671 
L 86.870607 244.988389 
L 87.309745 247.103454 
L 87.782134 249.211341 
L 88.287656 251.311529 
L 88.826187 253.403497 
L 89.397592 255.486724 
L 90.001731 257.560696 
L 90.638453 259.624898 
L 91.3076 261.678817 
L 92.009006 263.721945 
L 92.742499 265.753774 
L 93.507894 267.773802 
L 94.305004 269.781527 
L 95.13363 271.776451 
L 95.993566 273.758079 
L 96.8846 275.725921 
L 97.806511 277.679488 
L 98.759069 279.618295 
L 99.742039 281.541863 
L 100.755177 283.449713 
L 101.798232 285.341374 
L 102.870944 287.216375 
L 103.973049 289.074252 
L 105.104272 290.914544 
L 106.264334 292.736796 
L 107.452946 294.540554 
L 108.669814 296.325371 
L 109.914637 298.090806 
L 111.187104 299.83642 
L 112.486902 301.561781 
L 113.813707 303.26646 
L 115.16719 304.950035 
L 116.547017 306.612088 
L 117.952844 308.252208 
L 119.384323 309.869987 
L 120.8411 311.465024 
L 122.322812 313.036925 
L 123.829093 314.585298 
L 125.359569 316.10976 
L 126.91386 317.609934 
L 128.491581 319.085447 
L 130.092342 320.535932 
L 131.715744 321.961032 
L 133.361385 323.360391 
L 135.028858 324.733664 
L 136.717748 326.080509 
L 138.427637 327.400592 
L 140.158101 328.693587 
L 141.908711 329.959173 
L 143.679033 331.197035 
L 145.468628 332.406867 
L 147.277051 333.588369 
L 149.103855 334.741248 
L 150.948586 335.865218 
L 152.810788 336.96 
L 154.689998 338.025323 
L 156.58575 339.060922 
L 158.497574 340.066541 
L 160.424997 341.041931 
L 162.367539 341.986849 
L 164.32472 342.901062 
L 166.296055 343.784342 
L 168.281053 344.63647 
L 170.279224 345.457236 
L 172.290071 346.246435 
L 174.313096 347.003873 
L 176.347798 347.72936 
L 178.393671 348.422718 
L 180.450209 349.083774 
L 182.516901 349.712364 
L 184.593235 350.308333 
L 186.678696 350.871533 
L 188.772767 351.401824 
L 190.874929 351.899074 
L 192.98466 352.363161 
L 195.101438 352.793969 
L 197.224736 353.191391 
L 199.35403 353.555329 
L 201.488791 353.885693 
L 203.628488 354.1824 
L 205.772593 354.445378 
L 207.920573 354.67456 
L 210.071896 354.86989 
L 212.226027 355.03132 
L 214.382434 355.158809 
L 216.54058 355.252327 
L 218.699932 355.311849 
L 220.859953 355.337361 
L 223.020108 355.328857 
L 225.179861 355.286338 
L 227.338677 355.209816 
L 229.496021 355.099309 
L 231.651356 354.954845 
L 233.80415 354.77646 
L 235.953868 354.564197 
L 238.099977 354.318109 
L 240.241945 354.038258 
L 242.37924 353.724713 
L 244.511333 353.377552 
L 246.637695 352.99686 
L 248.757799 352.582732 
L 250.871119 352.135271 
L 252.977131 351.654587 
L 255.075312 351.140801 
L 257.165143 350.594038 
L 259.246105 350.014436 
L 261.317683 349.402137 
L 263.379361 348.757294 
L 265.43063 348.080066 
L 267.470981 347.370622 
L 269.499907 346.629136 
L 271.516906 345.855794 
L 273.521477 345.050786 
L 275.513123 344.214313 
L 277.491351 343.346582 
L 279.45567 342.447808 
L 281.405592 341.518214 
L 283.340634 340.55803 
L 285.260317 339.567495 
L 287.164165 338.546854 
L 289.051704 337.49636 
L 290.922468 336.416275 
L 292.775992 335.306864 
L 294.611816 334.168405 
L 296.429486 333.001178 
L 298.228551 331.805474 
L 300.008564 330.581589 
L 301.769085 329.329826 
L 303.509676 328.050496 
L 305.229906 326.743916 
L 306.929348 325.410411 
L 308.607582 324.05031 
L 310.26419 322.663951 
L 311.898763 321.251678 
L 313.510894 319.81384 
L 315.100184 318.350796 
L 316.666239 316.862907 
L 318.20867 315.350542 
L 319.727095 313.814076 
L 321.221138 312.253891 
L 322.690428 310.670373 
L 324.134601 309.063915 
L 325.553298 307.434915 
L 326.946168 305.783777 
L 328.312866 304.110911 
L 329.653051 302.416732 
L 330.966393 300.701659 
L 332.252566 298.966118 
L 333.51125 297.210539 
L 334.742133 295.435358 
L 335.94491 293.641014 
L 337.119284 291.827953 
L 338.264962 289.996625 
L 339.381661 288.147483 
L 340.469103 286.280986 
L 341.527019 284.397597 
L 342.555148 282.497782 
L 343.553232 280.582014 
L 344.521027 278.650766 
L 345.45829 276.704519 
L 346.36479 274.743754 
L 347.240303 272.768957 
L 348.08461 270.78062 
L 348.897503 268.779233 
L 349.67878 266.765295 
L 350.428247 264.739303 
L 351.145719 262.701761 
L 351.831017 260.653174 
L 352.483971 258.59405 
L 353.104421 256.5249 
L 353.692211 254.446235 
L 354.247196 252.358573 
L 354.769239 250.262431 
L 355.25821 248.158327 
L 355.713987 246.046786 
L 356.136458 243.928328 
L 356.525519 241.803482 
L 356.881071 239.672772 
L 357.203028 237.536727 
L 357.491309 235.395878 
L 357.745844 233.250754 
L 357.966568 231.101889 
L 358.153427 228.949814 
L 358.306376 226.795064 
L 358.425375 224.638172 
L 358.510395 222.479674 
L 358.561416 220.320105 
L 358.578424 218.16 
z
" clip-path="url(#p11e4554c51)" style="fill: #0000ff; opacity: 0.3; stroke: #0000ff; stroke-linejoin: miter"/>
   </g>
   <g id="PathCollection_1">
    <defs>
     <path id="m821435396d" d="M 0 3.535534 
C 0.937635 3.535534 1.836992 3.163008 2.5 2.5 
C 3.163008 1.836992 3.535534 0.937635 3.535534 0 
C 3.535534 -0.937635 3.163008 -1.836992 2.5 -2.5 
C 1.836992 -3.163008 0.937635 -3.535534 0 -3.535534 
C -0.937635 -3.535534 -1.836992 -3.163008 -2.5 -2.5 
C -3.163008 -1.836992 -3.535534 -0.937635 -3.535534 0 
C -3.535534 0.937635 -3.163008 1.836992 -2.5 2.5 
C -1.836992 3.163008 -0.937635 3.535534 0 3.535534 
z
" style="stroke: #008000"/>
    </defs>
    <g clip-path="url(#p11e4554c51)">
     <use xlink:href="#m821435396d" x="221.4" y="218.16" style="fill: #008000; stroke: #008000"/>
    </g>
   </g>
   <g id="matplotlib.axis_1">
    <g id="xtick_1">
     <g id="line2d_1">
      <path d="M 63 384.48 
L 63 51.84 
" clip-path="url(#p11e4554c51)" style="fill: none; stroke: #b0b0b0; stroke-opacity: 0.2; stroke-width: 0.8; stroke-linecap: square"/>
     </g>
     <g id="line2d_2">
      <defs>
       <path id="med267a3595" d="M 0 0 
L 0 3.5 
" style="stroke: #000000; stroke-width: 0.8"/>
      </defs>
      <g>
       <use xlink:href="#med267a3595" x="63" y="384.48" style="stroke: #000000; stroke-width: 0.8"/>
      </g>
     </g>
     <g id="text_1">
      <!-- $\mathdefault{−1.00}$ -->
      <g transform="translate(50.269921 398.398498) scale(0.1 -0.1)">
       <defs>
        <path id="CMSY10-0" d="M 4218 1472 
C 4326 1472 4442 1472 4442 1600 
C 4442 1728 4326 1728 4218 1728 
L 755 1728 
C 646 1728 531 1728 531 1600 
C 531 1472 646 1472 755 1472 
L 4218 1472 
z
" transform="scale(0.015625)"/>
        <path id="CMR17-31" d="M 1702 4058 
C 1702 4192 1696 4192 1606 4192 
C 1357 3916 979 3827 621 3827 
C 602 3827 570 3827 563 3808 
C 557 3795 557 3782 557 3648 
C 755 3648 1088 3686 1344 3839 
L 1344 461 
C 1344 236 1331 160 781 160 
L 589 160 
L 589 0 
C 896 0 1216 0 1523 0 
C 1830 0 2150 0 2458 0 
L 2458 160 
L 2266 160 
C 1715 160 1702 230 1702 458 
L 1702 4058 
z
" transform="scale(0.015625)"/>
        <path id="CMMI12-3a" d="M 1178 307 
C 1178 492 1024 619 870 619 
C 685 619 557 466 557 313 
C 557 128 710 0 864 0 
C 1050 0 1178 153 1178 307 
z
" transform="scale(0.015625)"/>
        <path id="CMR17-30" d="M 2688 2025 
C 2688 2416 2682 3080 2413 3591 
C 2176 4039 1798 4198 1466 4198 
C 1158 4198 768 4058 525 3597 
C 269 3118 243 2524 243 2025 
C 243 1661 250 1106 448 619 
C 723 -39 1216 -128 1466 -128 
C 1760 -128 2208 -7 2470 600 
C 2662 1042 2688 1559 2688 2025 
z
M 1466 -26 
C 1056 -26 813 325 723 812 
C 653 1188 653 1738 653 2096 
C 653 2588 653 2997 736 3387 
C 858 3929 1216 4096 1466 4096 
C 1728 4096 2067 3923 2189 3400 
C 2272 3036 2278 2607 2278 2096 
C 2278 1680 2278 1169 2202 792 
C 2067 95 1690 -26 1466 -26 
z
" transform="scale(0.015625)"/>
       </defs>
       <use xlink:href="#CMSY10-0" transform="scale(0.996264)"/>
       <use xlink:href="#CMR17-31" transform="translate(77.487468 0) scale(0.996264)"/>
       <use xlink:href="#CMMI12-3a" transform="translate(123.177945 0) scale(0.996264)"/>
       <use xlink:href="#CMR17-30" transform="translate(150.275122 0) scale(0.996264)"/>
       <use xlink:href="#CMR17-30" transform="translate(195.965599 0) scale(0.996264)"/>
      </g>
     </g>
    </g>
    <g id="xtick_2">
     <g id="line2d_3">
      <path d="M 102.6 384.48 
L 102.6 51.84 
" clip-path="url(#p11e4554c51)" style="fill: none; stroke: #b0b0b0; stroke-opacity: 0.2; stroke-width: 0.8; stroke-linecap: square"/>
     </g>
     <g id="line2d_4">
      <g>
       <use xlink:href="#med267a3595" x="102.6" y="384.48" style="stroke: #000000; stroke-width: 0.8"/>
      </g>
     </g>
     <g id="text_2">
      <!-- $\mathdefault{−0.75}$ -->
      <g transform="translate(89.869921 398.398498) scale(0.1 -0.1)">
       <defs>
        <path id="CMR17-37" d="M 2886 3941 
L 2886 4081 
L 1382 4081 
C 634 4081 621 4165 595 4288 
L 480 4288 
L 294 3094 
L 410 3094 
C 429 3215 474 3540 550 3661 
C 589 3712 1062 3712 1171 3712 
L 2579 3712 
L 1869 2661 
C 1395 1954 1069 999 1069 165 
C 1069 89 1069 -128 1299 -128 
C 1530 -128 1530 89 1530 171 
L 1530 465 
C 1530 1508 1709 2196 2003 2636 
L 2886 3941 
z
" transform="scale(0.015625)"/>
        <path id="CMR17-35" d="M 730 3692 
C 794 3666 1056 3584 1325 3584 
C 1920 3584 2246 3911 2432 4100 
C 2432 4157 2432 4192 2394 4192 
C 2387 4192 2374 4192 2323 4163 
C 2099 4058 1837 3973 1517 3973 
C 1325 3973 1037 3999 723 4139 
C 653 4171 640 4171 634 4171 
C 602 4171 595 4164 595 4037 
L 595 2203 
C 595 2089 595 2057 659 2057 
C 691 2057 704 2070 736 2114 
C 941 2401 1222 2522 1542 2522 
C 1766 2522 2246 2382 2246 1289 
C 2246 1085 2246 715 2054 421 
C 1894 159 1645 25 1370 25 
C 947 25 518 320 403 814 
C 429 807 480 795 506 795 
C 589 795 749 840 749 1038 
C 749 1210 627 1280 506 1280 
C 358 1280 262 1190 262 1011 
C 262 454 704 -128 1382 -128 
C 2042 -128 2669 440 2669 1264 
C 2669 2030 2170 2624 1549 2624 
C 1222 2624 947 2503 730 2274 
L 730 3692 
z
" transform="scale(0.015625)"/>
       </defs>
       <use xlink:href="#CMSY10-0" transform="scale(0.996264)"/>
       <use xlink:href="#CMR17-30" transform="translate(77.487468 0) scale(0.996264)"/>
       <use xlink:href="#CMMI12-3a" transform="translate(123.177945 0) scale(0.996264)"/>
       <use xlink:href="#CMR17-37" transform="translate(150.275122 0) scale(0.996264)"/>
       <use xlink:href="#CMR17-35" transform="translate(195.965599 0) scale(0.996264)"/>
      </g>
     </g>
    </g>
    <g id="xtick_3">
     <g id="line2d_5">
      <path d="M 142.2 384.48 
L 142.2 51.84 
" clip-path="url(#p11e4554c51)" style="fill: none; stroke: #b0b0b0; stroke-opacity: 0.2; stroke-width: 0.8; stroke-linecap: square"/>
     </g>
     <g id="line2d_6">
      <g>
       <use xlink:href="#med267a3595" x="142.2" y="384.48" style="stroke: #000000; stroke-width: 0.8"/>
      </g>
     </g>
     <g id="text_3">
      <!-- $\mathdefault{−0.50}$ -->
      <g transform="translate(129.469921 398.398498) scale(0.1 -0.1)">
       <use xlink:href="#CMSY10-0" transform="scale(0.996264)"/>
       <use xlink:href="#CMR17-30" transform="translate(77.487468 0) scale(0.996264)"/>
       <use xlink:href="#CMMI12-3a" transform="translate(123.177945 0) scale(0.996264)"/>
       <use xlink:href="#CMR17-35" transform="translate(150.275122 0) scale(0.996264)"/>
       <use xlink:href="#CMR17-30" transform="translate(195.965599 0) scale(0.996264)"/>
      </g>
     </g>
    </g>
    <g id="xtick_4">
     <g id="line2d_7">
      <path d="M 181.8 384.48 
L 181.8 51.84 
" clip-path="url(#p11e4554c51)" style="fill: none; stroke: #b0b0b0; stroke-opacity: 0.2; stroke-width: 0.8; stroke-linecap: square"/>
     </g>
     <g id="line2d_8">
      <g>
       <use xlink:href="#med267a3595" x="181.8" y="384.48" style="stroke: #000000; stroke-width: 0.8"/>
      </g>
     </g>
     <g id="text_4">
      <!-- $\mathdefault{−0.25}$ -->
      <g transform="translate(169.069921 398.398498) scale(0.1 -0.1)">
       <defs>
        <path id="CMR17-32" d="M 2669 989 
L 2554 989 
C 2490 536 2438 459 2413 420 
C 2381 369 1920 369 1830 369 
L 602 369 
C 832 619 1280 1072 1824 1597 
C 2214 1967 2669 2402 2669 3035 
C 2669 3790 2067 4224 1395 4224 
C 691 4224 262 3604 262 3030 
C 262 2780 448 2748 525 2748 
C 589 2748 781 2787 781 3010 
C 781 3207 614 3264 525 3264 
C 486 3264 448 3258 422 3245 
C 544 3790 915 4058 1306 4058 
C 1862 4058 2227 3617 2227 3035 
C 2227 2479 1901 2000 1536 1584 
L 262 146 
L 262 0 
L 2515 0 
L 2669 989 
z
" transform="scale(0.015625)"/>
       </defs>
       <use xlink:href="#CMSY10-0" transform="scale(0.996264)"/>
       <use xlink:href="#CMR17-30" transform="translate(77.487468 0) scale(0.996264)"/>
       <use xlink:href="#CMMI12-3a" transform="translate(123.177945 0) scale(0.996264)"/>
       <use xlink:href="#CMR17-32" transform="translate(150.275122 0) scale(0.996264)"/>
       <use xlink:href="#CMR17-35" transform="translate(195.965599 0) scale(0.996264)"/>
      </g>
     </g>
    </g>
    <g id="xtick_5">
     <g id="line2d_9">
      <path d="M 221.4 384.48 
L 221.4 51.84 
" clip-path="url(#p11e4554c51)" style="fill: none; stroke: #b0b0b0; stroke-opacity: 0.2; stroke-width: 0.8; stroke-linecap: square"/>
     </g>
     <g id="line2d_10">
      <g>
       <use xlink:href="#med267a3595" x="221.4" y="384.48" style="stroke: #000000; stroke-width: 0.8"/>
      </g>
     </g>
     <g id="text_5">
      <!-- $\mathdefault{0.00}$ -->
      <g transform="translate(212.544293 398.398498) scale(0.1 -0.1)">
       <use xlink:href="#CMR17-30" transform="scale(0.996264)"/>
       <use xlink:href="#CMMI12-3a" transform="translate(45.690477 0) scale(0.996264)"/>
       <use xlink:href="#CMR17-30" transform="translate(72.787654 0) scale(0.996264)"/>
       <use xlink:href="#CMR17-30" transform="translate(118.478131 0) scale(0.996264)"/>
      </g>
     </g>
    </g>
    <g id="xtick_6">
     <g id="line2d_11">
      <path d="M 261 384.48 
L 261 51.84 
" clip-path="url(#p11e4554c51)" style="fill: none; stroke: #b0b0b0; stroke-opacity: 0.2; stroke-width: 0.8; stroke-linecap: square"/>
     </g>
     <g id="line2d_12">
      <g>
       <use xlink:href="#med267a3595" x="261" y="384.48" style="stroke: #000000; stroke-width: 0.8"/>
      </g>
     </g>
     <g id="text_6">
      <!-- $\mathdefault{0.25}$ -->
      <g transform="translate(252.144293 398.398498) scale(0.1 -0.1)">
       <use xlink:href="#CMR17-30" transform="scale(0.996264)"/>
       <use xlink:href="#CMMI12-3a" transform="translate(45.690477 0) scale(0.996264)"/>
       <use xlink:href="#CMR17-32" transform="translate(72.787654 0) scale(0.996264)"/>
       <use xlink:href="#CMR17-35" transform="translate(118.478131 0) scale(0.996264)"/>
      </g>
     </g>
    </g>
    <g id="xtick_7">
     <g id="line2d_13">
      <path d="M 300.6 384.48 
L 300.6 51.84 
" clip-path="url(#p11e4554c51)" style="fill: none; stroke: #b0b0b0; stroke-opacity: 0.2; stroke-width: 0.8; stroke-linecap: square"/>
     </g>
     <g id="line2d_14">
      <g>
       <use xlink:href="#med267a3595" x="300.6" y="384.48" style="stroke: #000000; stroke-width: 0.8"/>
      </g>
     </g>
     <g id="text_7">
      <!-- $\mathdefault{0.50}$ -->
      <g transform="translate(291.744293 398.398498) scale(0.1 -0.1)">
       <use xlink:href="#CMR17-30" transform="scale(0.996264)"/>
       <use xlink:href="#CMMI12-3a" transform="translate(45.690477 0) scale(0.996264)"/>
       <use xlink:href="#CMR17-35" transform="translate(72.787654 0) scale(0.996264)"/>
       <use xlink:href="#CMR17-30" transform="translate(118.478131 0) scale(0.996264)"/>
      </g>
     </g>
    </g>
    <g id="xtick_8">
     <g id="line2d_15">
      <path d="M 340.2 384.48 
L 340.2 51.84 
" clip-path="url(#p11e4554c51)" style="fill: none; stroke: #b0b0b0; stroke-opacity: 0.2; stroke-width: 0.8; stroke-linecap: square"/>
     </g>
     <g id="line2d_16">
      <g>
       <use xlink:href="#med267a3595" x="340.2" y="384.48" style="stroke: #000000; stroke-width: 0.8"/>
      </g>
     </g>
     <g id="text_8">
      <!-- $\mathdefault{0.75}$ -->
      <g transform="translate(331.344293 398.398498) scale(0.1 -0.1)">
       <use xlink:href="#CMR17-30" transform="scale(0.996264)"/>
       <use xlink:href="#CMMI12-3a" transform="translate(45.690477 0) scale(0.996264)"/>
       <use xlink:href="#CMR17-37" transform="translate(72.787654 0) scale(0.996264)"/>
       <use xlink:href="#CMR17-35" transform="translate(118.478131 0) scale(0.996264)"/>
      </g>
     </g>
    </g>
    <g id="xtick_9">
     <g id="line2d_17">
      <path d="M 379.8 384.48 
L 379.8 51.84 
" clip-path="url(#p11e4554c51)" style="fill: none; stroke: #b0b0b0; stroke-opacity: 0.2; stroke-width: 0.8; stroke-linecap: square"/>
     </g>
     <g id="line2d_18">
      <g>
       <use xlink:href="#med267a3595" x="379.8" y="384.48" style="stroke: #000000; stroke-width: 0.8"/>
      </g>
     </g>
     <g id="text_9">
      <!-- $\mathdefault{1.00}$ -->
      <g transform="translate(370.944293 398.398498) scale(0.1 -0.1)">
       <use xlink:href="#CMR17-31" transform="scale(0.996264)"/>
       <use xlink:href="#CMMI12-3a" transform="translate(45.690477 0) scale(0.996264)"/>
       <use xlink:href="#CMR17-30" transform="translate(72.787654 0) scale(0.996264)"/>
       <use xlink:href="#CMR17-30" transform="translate(118.478131 0) scale(0.996264)"/>
      </g>
     </g>
    </g>
    <g id="text_10">
     <!-- $x$ -->
     <g transform="translate(216.410935 416.788977) scale(0.18 -0.18)">
      <defs>
       <path id="CMMI12-78" d="M 3034 2606 
C 2829 2567 2752 2414 2752 2293 
C 2752 2139 2874 2088 2963 2088 
C 3155 2088 3290 2254 3290 2427 
C 3290 2695 2982 2816 2714 2816 
C 2323 2816 2106 2433 2048 2312 
C 1901 2816 1504 2816 1389 2816 
C 736 2816 390 1980 390 1839 
C 390 1814 416 1782 461 1782 
C 512 1782 525 1820 538 1846 
C 755 2555 1184 2689 1370 2689 
C 1658 2689 1715 2420 1715 2267 
C 1715 2127 1677 1980 1600 1673 
L 1382 798 
C 1286 415 1101 64 762 64 
C 730 64 570 64 435 147 
C 666 192 717 383 717 460 
C 717 588 621 664 499 664 
C 346 664 179 530 179 326 
C 179 57 480 -64 755 -64 
C 1062 -64 1280 179 1414 441 
C 1517 64 1837 -64 2074 -64 
C 2726 -64 3072 773 3072 913 
C 3072 945 3046 971 3008 971 
C 2950 971 2944 939 2925 888 
C 2752 326 2381 64 2093 64 
C 1869 64 1747 230 1747 492 
C 1747 632 1773 734 1875 1156 
L 2099 2024 
C 2195 2408 2413 2689 2707 2689 
C 2720 2689 2899 2689 3034 2606 
z
" transform="scale(0.015625)"/>
      </defs>
      <use xlink:href="#CMMI12-78" transform="scale(0.996264)"/>
     </g>
    </g>
   </g>
   <g id="matplotlib.axis_2">
    <g id="ytick_1">
     <g id="line2d_19">
      <path d="M 55.08 376.56 
L 387.72 376.56 
" clip-path="url(#p11e4554c51)" style="fill: none; stroke: #b0b0b0; stroke-opacity: 0.2; stroke-width: 0.8; stroke-linecap: square"/>
     </g>
     <g id="line2d_20">
      <defs>
       <path id="m61f20dd04c" d="M 0 0 
L -3.5 0 
" style="stroke: #000000; stroke-width: 0.8"/>
      </defs>
      <g>
       <use xlink:href="#m61f20dd04c" x="55.08" y="376.56" style="stroke: #000000; stroke-width: 0.8"/>
      </g>
     </g>
     <g id="text_11">
      <!-- $\mathdefault{−1.00}$ -->
      <g transform="translate(22.619842 380.019249) scale(0.1 -0.1)">
       <use xlink:href="#CMSY10-0" transform="scale(0.996264)"/>
       <use xlink:href="#CMR17-31" transform="translate(77.487468 0) scale(0.996264)"/>
       <use xlink:href="#CMMI12-3a" transform="translate(123.177945 0) scale(0.996264)"/>
       <use xlink:href="#CMR17-30" transform="translate(150.275122 0) scale(0.996264)"/>
       <use xlink:href="#CMR17-30" transform="translate(195.965599 0) scale(0.996264)"/>
      </g>
     </g>
    </g>
    <g id="ytick_2">
     <g id="line2d_21">
      <path d="M 55.08 336.96 
L 387.72 336.96 
" clip-path="url(#p11e4554c51)" style="fill: none; stroke: #b0b0b0; stroke-opacity: 0.2; stroke-width: 0.8; stroke-linecap: square"/>
     </g>
     <g id="line2d_22">
      <g>
       <use xlink:href="#m61f20dd04c" x="55.08" y="336.96" style="stroke: #000000; stroke-width: 0.8"/>
      </g>
     </g>
     <g id="text_12">
      <!-- $\mathdefault{−0.75}$ -->
      <g transform="translate(22.619842 340.419249) scale(0.1 -0.1)">
       <use xlink:href="#CMSY10-0" transform="scale(0.996264)"/>
       <use xlink:href="#CMR17-30" transform="translate(77.487468 0) scale(0.996264)"/>
       <use xlink:href="#CMMI12-3a" transform="translate(123.177945 0) scale(0.996264)"/>
       <use xlink:href="#CMR17-37" transform="translate(150.275122 0) scale(0.996264)"/>
       <use xlink:href="#CMR17-35" transform="translate(195.965599 0) scale(0.996264)"/>
      </g>
     </g>
    </g>
    <g id="ytick_3">
     <g id="line2d_23">
      <path d="M 55.08 297.36 
L 387.72 297.36 
" clip-path="url(#p11e4554c51)" style="fill: none; stroke: #b0b0b0; stroke-opacity: 0.2; stroke-width: 0.8; stroke-linecap: square"/>
     </g>
     <g id="line2d_24">
      <g>
       <use xlink:href="#m61f20dd04c" x="55.08" y="297.36" style="stroke: #000000; stroke-width: 0.8"/>
      </g>
     </g>
     <g id="text_13">
      <!-- $\mathdefault{−0.50}$ -->
      <g transform="translate(22.619842 300.819249) scale(0.1 -0.1)">
       <use xlink:href="#CMSY10-0" transform="scale(0.996264)"/>
       <use xlink:href="#CMR17-30" transform="translate(77.487468 0) scale(0.996264)"/>
       <use xlink:href="#CMMI12-3a" transform="translate(123.177945 0) scale(0.996264)"/>
       <use xlink:href="#CMR17-35" transform="translate(150.275122 0) scale(0.996264)"/>
       <use xlink:href="#CMR17-30" transform="translate(195.965599 0) scale(0.996264)"/>
      </g>
     </g>
    </g>
    <g id="ytick_4">
     <g id="line2d_25">
      <path d="M 55.08 257.76 
L 387.72 257.76 
" clip-path="url(#p11e4554c51)" style="fill: none; stroke: #b0b0b0; stroke-opacity: 0.2; stroke-width: 0.8; stroke-linecap: square"/>
     </g>
     <g id="line2d_26">
      <g>
       <use xlink:href="#m61f20dd04c" x="55.08" y="257.76" style="stroke: #000000; stroke-width: 0.8"/>
      </g>
     </g>
     <g id="text_14">
      <!-- $\mathdefault{−0.25}$ -->
      <g transform="translate(22.619842 261.219249) scale(0.1 -0.1)">
       <use xlink:href="#CMSY10-0" transform="scale(0.996264)"/>
       <use xlink:href="#CMR17-30" transform="translate(77.487468 0) scale(0.996264)"/>
       <use xlink:href="#CMMI12-3a" transform="translate(123.177945 0) scale(0.996264)"/>
       <use xlink:href="#CMR17-32" transform="translate(150.275122 0) scale(0.996264)"/>
       <use xlink:href="#CMR17-35" transform="translate(195.965599 0) scale(0.996264)"/>
      </g>
     </g>
    </g>
    <g id="ytick_5">
     <g id="line2d_27">
      <path d="M 55.08 218.16 
L 387.72 218.16 
" clip-path="url(#p11e4554c51)" style="fill: none; stroke: #b0b0b0; stroke-opacity: 0.2; stroke-width: 0.8; stroke-linecap: square"/>
     </g>
     <g id="line2d_28">
      <g>
       <use xlink:href="#m61f20dd04c" x="55.08" y="218.16" style="stroke: #000000; stroke-width: 0.8"/>
      </g>
     </g>
     <g id="text_15">
      <!-- $\mathdefault{0.00}$ -->
      <g transform="translate(30.368586 221.619249) scale(0.1 -0.1)">
       <use xlink:href="#CMR17-30" transform="scale(0.996264)"/>
       <use xlink:href="#CMMI12-3a" transform="translate(45.690477 0) scale(0.996264)"/>
       <use xlink:href="#CMR17-30" transform="translate(72.787654 0) scale(0.996264)"/>
       <use xlink:href="#CMR17-30" transform="translate(118.478131 0) scale(0.996264)"/>
      </g>
     </g>
    </g>
    <g id="ytick_6">
     <g id="line2d_29">
      <path d="M 55.08 178.56 
L 387.72 178.56 
" clip-path="url(#p11e4554c51)" style="fill: none; stroke: #b0b0b0; stroke-opacity: 0.2; stroke-width: 0.8; stroke-linecap: square"/>
     </g>
     <g id="line2d_30">
      <g>
       <use xlink:href="#m61f20dd04c" x="55.08" y="178.56" style="stroke: #000000; stroke-width: 0.8"/>
      </g>
     </g>
     <g id="text_16">
      <!-- $\mathdefault{0.25}$ -->
      <g transform="translate(30.368586 182.019249) scale(0.1 -0.1)">
       <use xlink:href="#CMR17-30" transform="scale(0.996264)"/>
       <use xlink:href="#CMMI12-3a" transform="translate(45.690477 0) scale(0.996264)"/>
       <use xlink:href="#CMR17-32" transform="translate(72.787654 0) scale(0.996264)"/>
       <use xlink:href="#CMR17-35" transform="translate(118.478131 0) scale(0.996264)"/>
      </g>
     </g>
    </g>
    <g id="ytick_7">
     <g id="line2d_31">
      <path d="M 55.08 138.96 
L 387.72 138.96 
" clip-path="url(#p11e4554c51)" style="fill: none; stroke: #b0b0b0; stroke-opacity: 0.2; stroke-width: 0.8; stroke-linecap: square"/>
     </g>
     <g id="line2d_32">
      <g>
       <use xlink:href="#m61f20dd04c" x="55.08" y="138.96" style="stroke: #000000; stroke-width: 0.8"/>
      </g>
     </g>
     <g id="text_17">
      <!-- $\mathdefault{0.50}$ -->
      <g transform="translate(30.368586 142.419249) scale(0.1 -0.1)">
       <use xlink:href="#CMR17-30" transform="scale(0.996264)"/>
       <use xlink:href="#CMMI12-3a" transform="translate(45.690477 0) scale(0.996264)"/>
       <use xlink:href="#CMR17-35" transform="translate(72.787654 0) scale(0.996264)"/>
       <use xlink:href="#CMR17-30" transform="translate(118.478131 0) scale(0.996264)"/>
      </g>
     </g>
    </g>
    <g id="ytick_8">
     <g id="line2d_33">
      <path d="M 55.08 99.36 
L 387.72 99.36 
" clip-path="url(#p11e4554c51)" style="fill: none; stroke: #b0b0b0; stroke-opacity: 0.2; stroke-width: 0.8; stroke-linecap: square"/>
     </g>
     <g id="line2d_34">
      <g>
       <use xlink:href="#m61f20dd04c" x="55.08" y="99.36" style="stroke: #000000; stroke-width: 0.8"/>
      </g>
     </g>
     <g id="text_18">
      <!-- $\mathdefault{0.75}$ -->
      <g transform="translate(30.368586 102.819249) scale(0.1 -0.1)">
       <use xlink:href="#CMR17-30" transform="scale(0.996264)"/>
       <use xlink:href="#CMMI12-3a" transform="translate(45.690477 0) scale(0.996264)"/>
       <use xlink:href="#CMR17-37" transform="translate(72.787654 0) scale(0.996264)"/>
       <use xlink:href="#CMR17-35" transform="translate(118.478131 0) scale(0.996264)"/>
      </g>
     </g>
    </g>
    <g id="ytick_9">
     <g id="line2d_35">
      <path d="M 55.08 59.76 
L 387.72 59.76 
" clip-path="url(#p11e4554c51)" style="fill: none; stroke: #b0b0b0; stroke-opacity: 0.2; stroke-width: 0.8; stroke-linecap: square"/>
     </g>
     <g id="line2d_36">
      <g>
       <use xlink:href="#m61f20dd04c" x="55.08" y="59.76" style="stroke: #000000; stroke-width: 0.8"/>
      </g>
     </g>
     <g id="text_19">
      <!-- $\mathdefault{1.00}$ -->
      <g transform="translate(30.368586 63.219249) scale(0.1 -0.1)">
       <use xlink:href="#CMR17-31" transform="scale(0.996264)"/>
       <use xlink:href="#CMMI12-3a" transform="translate(45.690477 0) scale(0.996264)"/>
       <use xlink:href="#CMR17-30" transform="translate(72.787654 0) scale(0.996264)"/>
       <use xlink:href="#CMR17-30" transform="translate(118.478131 0) scale(0.996264)"/>
      </g>
     </g>
    </g>
    <g id="text_20">
     <!-- $y$ -->
     <g transform="translate(15.131778 222.440776) rotate(-90) scale(0.18 -0.18)">
      <defs>
       <path id="CMMI12-79" d="M 1683 -700 
C 1510 -939 1261 -1152 947 -1152 
C 870 -1152 563 -1152 467 -889 
C 486 -895 518 -895 531 -895 
C 723 -895 851 -729 851 -582 
C 851 -435 730 -384 634 -384 
C 531 -384 307 -458 307 -759 
C 307 -1071 582 -1286 947 -1286 
C 1587 -1286 2234 -700 2413 6 
L 3040 2485 
C 3046 2517 3059 2556 3059 2594 
C 3059 2689 2982 2753 2886 2753 
C 2829 2753 2694 2727 2643 2535 
L 2170 658 
C 2138 543 2138 530 2086 460 
C 1958 281 1747 64 1440 64 
C 1082 64 1050 415 1050 588 
C 1050 952 1222 1443 1395 1903 
C 1466 2088 1504 2178 1504 2305 
C 1504 2574 1312 2816 998 2816 
C 410 2816 173 1890 173 1839 
C 173 1814 198 1782 243 1782 
C 301 1782 307 1807 333 1897 
C 486 2433 730 2689 979 2689 
C 1037 2689 1146 2689 1146 2478 
C 1146 2312 1075 2127 979 1884 
C 666 1047 666 837 666 683 
C 666 77 1101 -64 1421 -64 
C 1606 -64 1837 -6 2061 230 
L 2067 224 
C 1971 -147 1907 -392 1683 -700 
z
" transform="scale(0.015625)"/>
      </defs>
      <use xlink:href="#CMMI12-79" transform="scale(0.996264)"/>
     </g>
    </g>
   </g>
   <g id="line2d_37">
    <path d="M 358.578424 218.16 
L 358.425375 211.681828 
L 357.966568 205.218111 
L 357.203028 198.783273 
L 356.136458 192.391672 
L 354.769239 186.057569 
L 353.104421 179.7951 
L 351.145719 173.618239 
L 348.897503 167.540767 
L 346.36479 161.576246 
L 343.553232 155.737986 
L 340.469103 150.039014 
L 337.119284 144.492047 
L 333.51125 139.109461 
L 329.653051 133.903268 
L 325.553298 128.885085 
L 321.221138 124.066109 
L 316.666239 119.457093 
L 311.898763 115.068322 
L 306.929348 110.909589 
L 301.769085 106.990174 
L 296.429486 103.318822 
L 290.922468 99.903725 
L 285.260317 96.752505 
L 279.45567 93.872192 
L 273.521477 91.269214 
L 267.470981 88.949378 
L 261.317683 86.917863 
L 255.075312 85.179199 
L 248.757799 83.737268 
L 242.37924 82.595287 
L 235.953868 81.755803 
L 229.496021 81.220691 
L 223.020108 80.991143 
L 216.54058 81.067673 
L 210.071896 81.45011 
L 203.628488 82.1376 
L 197.224736 83.128609 
L 190.874929 84.420926 
L 184.593235 86.011667 
L 178.393671 87.897282 
L 172.290071 90.073565 
L 166.296055 92.535658 
L 160.424997 95.278069 
L 154.689998 98.294677 
L 149.103855 101.578752 
L 143.679033 105.122965 
L 138.427637 108.919408 
L 133.361385 112.959609 
L 128.491581 117.234553 
L 123.829093 121.734702 
L 119.384323 126.450013 
L 115.16719 131.369965 
L 111.187104 136.48358 
L 107.452946 141.779446 
L 103.973049 147.245748 
L 100.755177 152.870287 
L 97.806511 158.640512 
L 95.13363 164.543549 
L 92.742499 170.566226 
L 90.638453 176.695102 
L 88.826187 182.916503 
L 87.309745 189.216546 
L 86.092511 195.581174 
L 85.177201 201.996183 
L 84.565857 208.44726 
L 84.259844 214.92001 
L 84.259844 221.39999 
L 84.565857 227.87274 
L 85.177201 234.323817 
L 86.092511 240.738826 
L 87.309745 247.103454 
L 88.826187 253.403497 
L 90.638453 259.624898 
L 92.742499 265.753774 
L 95.13363 271.776451 
L 97.806511 277.679488 
L 100.755177 283.449713 
L 103.973049 289.074252 
L 107.452946 294.540554 
L 111.187104 299.83642 
L 115.16719 304.950035 
L 119.384323 309.869987 
L 123.829093 314.585298 
L 128.491581 319.085447 
L 133.361385 323.360391 
L 138.427637 327.400592 
L 143.679033 331.197035 
L 149.103855 334.741248 
L 154.689998 338.025323 
L 160.424997 341.041931 
L 166.296055 343.784342 
L 172.290071 346.246435 
L 178.393671 348.422718 
L 184.593235 350.308333 
L 190.874929 351.899074 
L 197.224736 353.191391 
L 203.628488 354.1824 
L 210.071896 354.86989 
L 216.54058 355.252327 
L 223.020108 355.328857 
L 229.496021 355.099309 
L 235.953868 354.564197 
L 242.37924 353.724713 
L 248.757799 352.582732 
L 255.075312 351.140801 
L 261.317683 349.402137 
L 267.470981 347.370622 
L 273.521477 345.050786 
L 279.45567 342.447808 
L 285.260317 339.567495 
L 290.922468 336.416275 
L 296.429486 333.001178 
L 301.769085 329.329826 
L 306.929348 325.410411 
L 311.898763 321.251678 
L 316.666239 316.862907 
L 321.221138 312.253891 
L 325.553298 307.434915 
L 329.653051 302.416732 
L 333.51125 297.210539 
L 337.119284 291.827953 
L 340.469103 286.280986 
L 343.553232 280.582014 
L 346.36479 274.743754 
L 348.897503 268.779233 
L 351.145719 262.701761 
L 353.104421 256.5249 
L 354.769239 250.262431 
L 356.136458 243.928328 
L 357.203028 237.536727 
L 357.966568 231.101889 
L 358.425375 224.638172 
L 358.578424 218.16 
L 358.578424 218.16 
" clip-path="url(#p11e4554c51)" style="fill: none; stroke: #000000; stroke-width: 1.5; stroke-linecap: square"/>
   </g>
   <g id="line2d_38">
    <path d="M 358.578424 218.16 
L 360.107528 215.379918 
L 361.509421 212.541383 
L 362.769485 209.650578 
L 363.875833 206.714566 
L 364.819322 203.741038 
L 365.593453 200.738068 
L 366.19418 197.713898 
L 366.619631 194.676756 
L 366.869771 191.634719 
L 366.946022 188.595624 
L 366.850868 185.567021 
L 366.587466 182.556182 
L 366.159289 179.570136 
L 365.569813 176.615747 
L 364.822273 173.699798 
L 363.9195 170.829094 
L 362.863838 168.010548 
L 361.657148 165.251255 
L 360.300901 162.558525 
L 358.796346 159.939888 
L 357.144738 157.403036 
L 355.347621 154.955721 
L 353.407138 152.605596 
L 351.326345 150.360003 
L 349.109522 148.225723 
L 346.762437 146.208685 
L 344.292567 144.313662 
L 341.709241 142.543958 
L 339.023704 140.901109 
L 336.249083 139.384618 
L 333.400266 137.991732 
L 330.49368 136.717283 
L 324.578715 134.490552 
L 318.65316 132.61379 
L 304.720838 128.569213 
L 299.78349 126.795206 
L 297.480954 125.796392 
L 295.290561 124.700515 
L 293.209647 123.493391 
L 291.232713 122.163487 
L 289.351619 120.702258 
L 287.555856 119.104406 
L 285.832864 117.368057 
L 284.168417 115.494852 
L 280.952401 111.361886 
L 277.776839 106.786408 
L 271.042709 96.850232 
L 267.278871 91.828092 
L 265.266983 89.381565 
L 263.162308 87.00622 
L 260.962895 84.721332 
L 258.668793 82.544243 
L 256.281881 80.4901 
L 253.805656 78.571684 
L 251.244979 76.799358 
L 248.605818 75.18111 
L 245.894983 73.722703 
L 243.119867 72.427899 
L 240.288226 71.298763 
L 237.407983 70.336003 
L 234.487081 69.539338 
L 231.533377 68.907866 
L 228.554584 68.440412 
L 225.558257 68.135827 
L 222.551813 67.993226 
L 219.542576 68.012162 
L 216.537844 68.192693 
L 213.54496 68.535384 
L 210.571367 69.041196 
L 207.624657 69.711308 
L 204.712581 70.546863 
L 201.843023 71.548648 
L 199.02393 72.716746 
L 196.263204 74.050162 
L 193.568532 75.546463 
L 190.947194 77.201443 
L 188.405824 79.008834 
L 185.950154 80.960101 
L 183.584751 83.044315 
L 181.312752 85.248129 
L 179.135624 87.555865 
L 177.052962 89.949698 
L 173.159145 94.915487 
L 169.586116 99.973327 
L 161.475139 111.871453 
L 158.245679 115.946237 
L 156.568853 117.78768 
L 154.830016 119.491565 
L 153.015298 121.057078 
L 151.112588 122.486908 
L 149.111904 123.787135 
L 147.005706 124.967029 
L 144.789144 126.038779 
L 142.460239 127.017136 
L 137.472356 128.762982 
L 129.267833 131.148272 
L 120.496204 133.737053 
L 114.559303 135.817075 
L 111.620379 137.005908 
L 108.725796 138.307538 
L 105.892958 139.729041 
L 103.137955 141.275005 
L 100.475279 142.947639 
L 97.917623 144.746942 
L 95.475782 146.670936 
L 93.158642 148.715947 
L 90.973263 150.876901 
L 88.925042 153.147644 
L 87.017947 155.521237 
L 85.254791 157.990244 
L 83.637547 160.546973 
L 82.167666 163.183672 
L 80.846378 165.892681 
L 79.674963 168.666519 
L 78.654974 171.497926 
L 77.788378 174.379857 
L 77.077638 177.305429 
L 76.525687 180.267853 
L 76.135838 183.260334 
L 75.91159 186.275979 
L 75.85637 189.307705 
L 75.973212 192.348179 
L 76.264387 195.389781 
L 76.73101 198.424613 
L 77.372648 201.444553 
L 78.186948 204.441355 
L 79.16931 207.406798 
L 80.31263 210.332879 
L 81.607125 213.212031 
L 83.040264 216.037375 
L 84.596801 218.80297 
L 88.006535 224.137368 
L 91.668535 229.195548 
L 102.249901 242.946307 
L 105.050598 247.272352 
L 106.240429 249.439622 
L 107.278387 251.6272 
L 108.160546 253.847894 
L 108.886863 256.113804 
L 109.461164 258.435945 
L 109.891018 260.823898 
L 110.187528 263.285501 
L 110.440684 268.450742 
L 110.366643 273.950948 
L 109.951794 285.844361 
L 109.979479 292.096369 
L 110.381868 298.41705 
L 110.763285 301.567294 
L 111.28082 304.691713 
L 111.942994 307.776624 
L 112.75559 310.809208 
L 113.72178 313.777729 
L 114.842344 316.671683 
L 116.11594 319.481868 
L 117.539436 322.200377 
L 119.108259 324.82052 
L 120.816757 327.336677 
L 122.658548 329.74411 
L 124.626833 332.038732 
L 126.714672 334.216864 
L 128.9152 336.274992 
L 131.221776 338.209548 
L 133.628072 340.016731 
L 136.128091 341.692372 
L 138.716128 343.231879 
L 141.386678 344.630245 
L 144.134308 345.882141 
L 146.953502 346.982085 
L 149.838494 347.924684 
L 152.783111 348.704938 
L 155.780636 349.318589 
L 158.823703 349.762507 
L 161.904245 350.035081 
L 165.013488 350.136595 
L 168.142013 350.069574 
L 171.279872 349.83907 
L 174.416765 349.452868 
L 177.542264 348.921603 
L 180.646079 348.258778 
L 186.749969 346.606063 
L 192.660192 344.653536 
L 208.897481 338.912762 
L 211.396138 338.221972 
L 213.850659 337.660335 
L 216.270326 337.241721 
L 218.665524 336.976479 
L 221.04741 336.871167 
L 223.427566 336.928391 
L 225.817628 337.146734 
L 228.228918 337.520798 
L 230.672084 338.041334 
L 235.691297 339.467098 
L 240.935157 341.28427 
L 252.193381 345.363296 
L 258.178386 347.23056 
L 261.239519 348.039348 
L 264.334986 348.738166 
L 267.455117 349.309963 
L 270.589719 349.740404 
L 273.728376 350.017999 
L 276.860725 350.134126 
L 279.976693 350.082941 
L 283.066688 349.861197 
L 286.121737 349.467979 
L 289.13356 348.904375 
L 292.094588 348.173106 
L 294.99792 347.278134 
L 297.837235 346.224279 
L 300.606661 345.016851 
L 303.300626 343.661336 
L 305.91369 342.163127 
L 308.440382 340.52734 
L 310.875071 338.758696 
L 313.211851 336.861484 
L 315.444493 334.839606 
L 317.566444 332.696682 
L 319.570891 330.436218 
L 321.450897 328.061821 
L 323.199596 325.577431 
L 324.810451 322.98757 
L 326.277557 320.297572 
L 327.595985 317.513794 
L 328.762137 314.643771 
L 329.774107 311.696316 
L 330.632013 308.681551 
L 331.338293 305.610859 
L 331.897938 302.496758 
L 332.318651 299.352703 
L 332.610906 296.192814 
L 332.865539 289.883384 
L 332.797383 283.68161 
L 332.353632 269.244809 
L 332.548171 264.030233 
L 332.807773 261.545584 
L 333.196791 259.136531 
L 333.727322 256.795807 
L 334.408007 254.51432 
L 335.2438 252.281443 
L 336.235811 250.08536 
L 337.381262 247.913432 
L 338.673528 245.752587 
L 341.653801 241.412034 
L 345.054854 236.965079 
L 352.436832 227.447733 
L 356.031 222.291816 
L 357.720657 219.610536 
L 359.310459 216.863622 
L 360.781885 214.055419 
L 362.118908 211.191537 
L 363.308183 208.278604 
L 364.339115 205.324009 
L 365.20382 202.335651 
L 365.89698 199.321707 
L 366.415605 196.290435 
L 366.758732 193.250004 
L 366.927058 190.208388 
L 366.922552 187.173292 
L 366.748061 184.152132 
L 366.406932 181.152059 
L 365.902673 178.180014 
L 365.238675 175.242812 
L 364.417999 172.347233 
L 363.443252 169.500124 
L 362.316545 166.708474 
L 361.03954 163.979478 
L 359.613579 161.320553 
L 358.039881 158.739312 
L 356.3198 156.243495 
L 354.455122 153.840827 
L 352.448378 151.538847 
L 350.303162 149.344667 
L 348.024421 147.264704 
L 345.618701 145.304386 
L 343.094337 143.467834 
L 340.461551 141.757558 
L 337.732483 140.174173 
L 334.921106 138.716146 
L 332.043064 137.379608 
L 326.156247 135.043162 
L 320.218757 133.084432 
L 301.051613 127.291634 
L 298.689463 126.337798 
L 296.439673 125.295376 
L 294.30114 124.148931 
L 292.26985 122.885478 
L 290.339035 121.494847 
L 288.499407 119.969989 
L 286.739453 118.307194 
L 285.04578 116.506233 
L 281.796745 112.506458 
L 278.623393 108.037769 
L 270.189127 95.663639 
L 266.346534 90.672969 
L 264.2915 88.257322 
L 262.142505 85.922117 
L 259.898556 83.685761 
L 257.560583 81.564596 
L 255.131254 79.572672 
L 252.614737 77.721636 
L 250.016446 76.020727 
L 247.342778 74.476863 
L 244.600843 73.094837 
L 241.798234 71.877574 
L 238.942805 70.826458 
L 236.042505 69.941687 
L 233.105247 69.222643 
L 230.138824 68.668256 
L 227.150876 68.277327 
L 224.148887 68.048808 
L 221.140224 67.982002 
L 218.13219 68.076695 
L 215.132096 68.33319 
L 212.147325 68.752255 
L 209.185387 69.334981 
L 206.253948 70.082567 
L 203.360827 70.996029 
L 200.51395 72.07587 
L 197.721259 73.321714 
L 194.990578 74.731936 
L 192.329431 76.303309 
L 189.744825 78.030692 
L 187.243004 79.906776 
L 184.829187 81.921911 
L 182.507301 84.064031 
L 180.279729 86.318679 
L 178.147082 88.66914 
L 174.159103 93.580876 
L 170.507243 98.631793 
L 160.727692 112.871512 
L 157.465939 116.826907 
L 155.76185 118.604153 
L 153.98905 120.243021 
L 152.134445 121.744347 
L 150.186881 123.112429 
L 148.137485 124.354873 
L 145.979953 125.482359 
L 143.710762 126.508324 
L 138.838026 128.320899 
L 133.550188 129.939515 
L 122.070549 133.241328 
L 116.131467 135.228527 
L 113.176419 136.361206 
L 110.256057 137.601906 
L 107.38834 138.959035 
L 104.590099 140.438494 
L 101.876704 142.043737 
L 99.261822 143.775912 
L 96.757263 145.634059 
L 94.372921 147.615366 
L 92.11681 149.715466 
L 89.995187 151.928737 
L 88.012745 154.248623 
L 86.172873 156.667917 
L 84.477951 159.179036 
L 82.929668 161.774237 
L 81.529335 164.445798 
L 80.278173 167.186134 
L 79.177569 169.987865 
L 78.229255 172.843836 
L 77.435427 175.747086 
L 76.798776 178.690788 
L 76.32243 181.66816 
L 76.009819 184.672374 
L 75.864443 187.696458 
L 75.889589 190.733217 
L 76.087981 193.775187 
L 76.461397 196.814612 
L 77.010274 199.843481 
L 77.733322 202.853597 
L 78.627173 205.836706 
L 79.686078 208.784662 
L 80.901692 211.689637 
L 82.262947 214.544355 
L 83.756026 217.342346 
L 85.364454 220.0782 
L 88.849517 225.348615 
L 92.543563 230.342123 
L 101.422108 241.789566 
L 104.359641 246.125401 
L 105.627199 248.287219 
L 106.746527 250.46239 
L 107.71166 252.663941 
L 108.520489 254.904395 
L 109.174794 257.195388 
L 109.680177 259.547305 
L 110.045899 261.968945 
L 110.284617 264.467231 
L 110.446557 269.710688 
L 110.320482 275.288138 
L 109.932493 287.298596 
L 109.941524 290.42531 
L 109.941524 290.42531 
" clip-path="url(#p11e4554c51)" style="fill: none; stroke-dasharray: 1.5,2.475; stroke-dashoffset: 0; stroke: #0000ff; stroke-width: 1.5"/>
   </g>
   <g id="line2d_39">
    <path d="M 221.4 218.16 
L 226.496164 216.828555 
L 232.849475 214.955318 
L 238.822467 212.96604 
L 244.44888 210.856387 
L 249.584675 208.69339 
L 254.189323 206.5225 
L 258.471697 204.263586 
L 262.403615 201.93552 
L 265.796456 199.67672 
L 268.843931 197.388028 
L 271.538909 195.084965 
L 273.763757 192.903592 
L 275.669002 190.735371 
L 277.256912 188.592233 
L 278.469207 186.601399 
L 279.407759 184.652013 
L 280.079342 182.752449 
L 280.492009 180.91044 
L 280.654972 179.133033 
L 280.578497 177.426554 
L 280.27381 175.796567 
L 279.753019 174.247831 
L 279.02905 172.784258 
L 278.056246 171.330754 
L 276.888071 169.978529 
L 275.462798 168.662341 
L 273.77289 167.399956 
L 271.720365 166.15438 
L 269.39567 165.005946 
L 266.599602 163.88354 
L 263.34224 162.826104 
L 259.330575 161.768831 
L 252.302639 160.20001 
L 247.844977 159.087992 
L 245.124514 158.188438 
L 243.08623 157.29145 
L 241.405878 156.312197 
L 240.037702 155.265023 
L 238.826374 154.052533 
L 237.813564 152.72966 
L 236.889337 151.152069 
L 236.060826 149.282653 
L 235.29951 146.984136 
L 234.5877 144.07526 
L 233.883865 140.200852 
L 232.925164 133.469021 
L 231.565893 124.256363 
L 230.53182 118.790326 
L 229.429591 114.117202 
L 228.190611 109.83852 
L 226.844669 105.999854 
L 225.430898 102.617701 
L 224.06633 99.872561 
L 222.820016 97.847974 
L 221.584796 96.240018 
L 220.214076 94.824575 
L 218.789249 93.671393 
L 217.226575 92.691354 
L 215.520942 91.880915 
L 213.572501 91.206552 
L 211.365798 90.688018 
L 208.884214 90.340226 
L 206.109915 90.175818 
L 202.915697 90.212244 
L 199.270269 90.485216 
L 195.259217 91.015887 
L 191.84393 91.668353 
L 189.246523 92.390415 
L 186.790241 93.301474 
L 184.372631 94.436167 
L 182.006257 95.791243 
L 179.593836 97.43815 
L 177.260228 99.304648 
L 174.914923 101.473329 
L 172.579817 103.950277 
L 170.277002 106.733058 
L 168.027306 109.808616 
L 165.770618 113.277182 
L 163.465157 117.235172 
L 160.951347 122.00396 
L 153.146167 137.218661 
L 151.432203 139.796211 
L 149.80544 141.837409 
L 148.201626 143.492476 
L 146.551585 144.876964 
L 144.772384 146.073762 
L 142.851724 147.094215 
L 140.683219 147.989782 
L 138.134368 148.791122 
L 135.043458 149.517981 
L 130.847557 150.255271 
L 118.558544 152.25536 
L 116.439246 152.949001 
L 114.529293 153.805114 
L 112.712836 154.865313 
L 110.986221 156.131237 
L 109.266307 157.675552 
L 107.562762 159.515303 
L 105.88038 161.665376 
L 104.1649 164.23094 
L 102.484416 167.145703 
L 100.793828 170.526463 
L 99.155285 174.298848 
L 97.58018 178.483206 
L 96.122352 182.985567 
L 94.79563 187.816811 
L 93.64761 192.85935 
L 93.034489 196.378994 
L 92.753372 199.30917 
L 92.710937 202.147411 
L 92.900774 205.013962 
L 93.323737 207.896345 
L 93.975278 210.781945 
L 94.84739 213.658295 
L 95.985818 216.648507 
L 97.405287 219.735204 
L 99.113451 222.898221 
L 101.108612 226.115199 
L 103.467821 229.485355 
L 106.27434 233.088839 
L 109.68993 237.094419 
L 114.857607 242.763683 
L 119.846773 248.328856 
L 122.292394 251.387329 
L 124.057799 253.94451 
L 125.371115 256.22782 
L 126.390377 258.447892 
L 127.141289 260.619789 
L 127.674554 262.856099 
L 127.99732 265.172083 
L 128.123485 267.692705 
L 128.039441 270.561181 
L 127.712716 273.944889 
L 127.043633 278.435694 
L 124.856599 292.098847 
L 124.819475 294.514809 
L 125.01732 296.776408 
L 125.425278 298.899104 
L 126.051869 301.011993 
L 126.942546 303.221651 
L 128.118561 305.519485 
L 129.596525 307.901287 
L 131.390456 310.365402 
L 133.590097 312.997244 
L 136.145483 315.703561 
L 139.07215 318.482241 
L 142.3897 321.328048 
L 146.12274 324.231597 
L 150.086261 327.033396 
L 154.390274 329.798771 
L 158.108596 331.948826 
L 160.797374 333.24782 
L 163.474992 334.289999 
L 166.120661 335.085705 
L 168.850195 335.683348 
L 171.794247 336.096762 
L 174.804398 336.293391 
L 178.012739 336.272802 
L 181.260107 336.02962 
L 184.677775 335.551143 
L 188.247542 334.827211 
L 192.093669 333.813711 
L 196.181662 332.499741 
L 200.748284 330.78742 
L 206.246645 328.472897 
L 218.410282 323.255176 
L 221.846363 322.082128 
L 224.725569 321.330839 
L 227.320682 320.886065 
L 229.663388 320.704226 
L 231.987958 320.746895 
L 234.311028 321.016318 
L 236.649301 321.508795 
L 239.23646 322.289016 
L 242.10383 323.397293 
L 245.522943 324.970228 
L 250.306919 327.440878 
L 260.022065 332.503638 
L 262.375514 333.436052 
L 264.5311 334.059986 
L 266.743366 334.465374 
L 269.010496 334.644543 
L 271.335102 334.599502 
L 273.834296 334.318748 
L 276.507484 333.782557 
L 279.356208 332.975784 
L 282.383102 331.885453 
L 285.697411 330.448897 
L 289.193278 328.687762 
L 292.872275 326.584678 
L 296.734017 324.116788 
L 300.672028 321.331426 
L 304.579018 318.296414 
L 308.44533 315.010323 
L 310.792953 312.754233 
L 312.704662 310.612596 
L 314.374625 308.41956 
L 315.885522 306.080958 
L 317.29408 303.478481 
L 318.517135 300.738452 
L 319.55405 297.875851 
L 320.44267 294.763234 
L 321.160781 291.406149 
L 321.690329 287.816597 
L 322.019648 284.0139 
L 322.146969 279.8717 
L 322.054297 275.275576 
L 321.714443 269.992491 
L 320.957282 262.179132 
L 320.329958 254.962122 
L 320.210391 251.014994 
L 320.33657 247.878769 
L 320.661655 245.233101 
L 321.185457 242.812438 
L 321.896043 240.589447 
L 322.820426 238.442085 
L 323.961734 236.353759 
L 325.383941 234.214013 
L 327.183901 231.913736 
L 329.575178 229.242709 
L 332.925914 225.862656 
L 342.630968 216.268369 
L 344.155495 214.306639 
L 345.331469 212.440034 
L 346.32193 210.451978 
L 347.12215 208.341406 
L 347.73534 206.10629 
L 348.183692 203.631153 
L 348.448293 200.910538 
L 348.514669 197.938436 
L 348.361555 194.592601 
L 347.971527 190.980119 
L 347.308643 186.975885 
L 346.365077 182.688988 
L 345.153583 178.233941 
L 343.663213 173.609108 
L 341.925543 168.938568 
L 340.093474 164.61034 
L 338.679427 161.819297 
L 337.181809 159.361435 
L 335.562068 157.120613 
L 333.755949 154.988734 
L 331.667298 152.8761 
L 329.393798 150.898958 
L 326.950044 149.06206 
L 324.225332 147.291183 
L 321.219258 145.608585 
L 317.938974 144.034305 
L 314.400669 142.584254 
L 310.484667 141.220893 
L 306.07915 139.924542 
L 300.813827 138.612663 
L 283.866333 134.592145 
L 280.87235 133.535456 
L 278.411682 132.445097 
L 276.229473 131.239388 
L 274.297055 129.919459 
L 272.505861 128.422427 
L 270.841974 126.738952 
L 269.219841 124.774893 
L 267.566314 122.404868 
L 265.810497 119.471854 
L 263.746522 115.552921 
L 259.571343 106.974142 
L 257.438856 102.873712 
L 256.071688 100.745944 
L 254.683847 98.984236 
L 253.121458 97.365404 
L 251.381661 95.896047 
L 249.46359 94.572883 
L 247.265256 93.336736 
L 244.775635 92.203979 
L 241.984659 91.186132 
L 238.88265 90.292379 
L 235.344064 89.509561 
L 231.467781 88.882548 
L 227.242371 88.424749 
L 222.654763 88.155145 
L 217.819303 88.098151 
L 212.863012 88.261989 
L 207.928016 88.641182 
L 204.69961 89.091308 
L 201.892401 89.706129 
L 199.25118 90.504834 
L 196.653513 91.514887 
L 193.983905 92.798766 
L 191.383895 94.302717 
L 188.862766 96.014903 
L 186.314986 98.016342 
L 183.761771 100.315439 
L 181.224741 102.912908 
L 178.724611 105.799753 
L 176.188482 109.079088 
L 173.563509 112.853676 
L 170.73441 117.327317 
L 166.613282 124.330436 
L 163.01605 130.2853 
L 160.78857 133.540831 
L 158.838395 135.996446 
L 157.015306 137.938829 
L 155.163222 139.582621 
L 153.275903 140.957138 
L 151.259628 142.145106 
L 149.102231 143.158264 
L 146.686846 144.048305 
L 143.870818 144.84664 
L 140.357435 145.597974 
L 135.649723 146.360255 
L 122.286462 148.393498 
L 119.893576 149.080905 
L 117.839156 149.896757 
L 115.863727 150.92027 
L 113.970656 152.155154 
L 112.156183 153.601151 
L 110.334268 155.338532 
L 108.517026 157.382819 
L 106.712631 159.747347 
L 104.866287 162.54345 
L 103.055143 165.694711 
L 101.234601 169.323395 
L 99.475167 173.345798 
L 97.833843 177.661729 
L 96.318451 182.278901 
L 94.976375 187.078364 
L 93.885308 191.789376 
L 93.395372 194.880884 
L 93.169557 197.751422 
L 93.170144 200.517694 
L 93.385602 203.304993 
L 93.841195 206.242412 
L 94.525734 209.178434 
L 95.430108 212.100646 
L 96.600462 215.134143 
L 98.050032 218.261123 
L 99.784595 221.461162 
L 101.800161 224.711888 
L 104.171346 228.113961 
L 106.97664 231.748993 
L 110.563859 236.013355 
L 121.577857 248.815145 
L 123.464765 251.528032 
L 124.878915 253.953456 
L 125.938369 256.211496 
L 126.728524 258.414891 
L 127.300293 260.678346 
L 127.659374 263.017619 
L 127.819676 265.559146 
L 127.766664 268.447332 
L 127.465296 271.850865 
L 126.833385 276.23283 
L 125.194726 285.477832 
L 124.48115 290.196536 
L 124.332521 292.724357 
L 124.362309 294.192106 
L 124.362309 294.192106 
" clip-path="url(#p11e4554c51)" style="fill: none; stroke: #ff0000; stroke-width: 1.5; stroke-linecap: square"/>
   </g>
   <g id="patch_5">
    <path d="M 55.08 384.48 
L 55.08 51.84 
" style="fill: none; stroke: #000000; stroke-width: 0.8; stroke-linejoin: miter; stroke-linecap: square"/>
   </g>
   <g id="patch_6">
    <path d="M 387.72 384.48 
L 387.72 51.84 
" style="fill: none; stroke: #000000; stroke-width: 0.8; stroke-linejoin: miter; stroke-linecap: square"/>
   </g>
   <g id="patch_7">
    <path d="M 55.08 384.48 
L 387.72 384.48 
" style="fill: none; stroke: #000000; stroke-width: 0.8; stroke-linejoin: miter; stroke-linecap: square"/>
   </g>
   <g id="patch_8">
    <path d="M 55.08 51.84 
L 387.72 51.84 
" style="fill: none; stroke: #000000; stroke-width: 0.8; stroke-linejoin: miter; stroke-linecap: square"/>
   </g>
   <g id="text_21">
    <!-- Top-Down View of Safe Trajectory on the Sphere -->
    <g transform="translate(43.606437 48.351936) scale(0.18 -0.18)">
     <defs>
      <path id="CMR17-54" d="M 3981 4326 
L 288 4326 
L 179 2918 
L 294 2918 
C 378 3976 467 4160 1453 4160 
C 1568 4160 1754 4160 1805 4154 
C 1926 4135 1926 4058 1926 3912 
L 1926 459 
C 1926 230 1907 160 1376 160 
L 1197 160 
L 1197 0 
C 1504 0 1824 0 2138 0 
C 2451 0 2771 0 3078 0 
L 3078 160 
L 2899 160 
C 2368 160 2349 230 2349 459 
L 2349 3912 
C 2349 4052 2349 4129 2464 4154 
C 2515 4160 2701 4160 2816 4160 
C 3795 4160 3891 3976 3974 2918 
L 4090 2918 
L 3981 4326 
z
" transform="scale(0.015625)"/>
      <path id="CMR17-6f" d="M 2758 1356 
C 2758 2176 2163 2816 1466 2816 
C 768 2816 173 2176 173 1356 
C 173 551 768 -64 1466 -64 
C 2163 -64 2758 551 2758 1356 
z
M 1466 51 
C 1165 51 909 230 762 480 
C 602 767 582 1126 582 1408 
C 582 1677 595 2010 762 2298 
C 890 2509 1139 2714 1466 2714 
C 1754 2714 1997 2554 2150 2330 
C 2349 2029 2349 1607 2349 1408 
C 2349 1158 2336 775 2163 467 
C 1984 173 1709 51 1466 51 
z
" transform="scale(0.015625)"/>
      <path id="CMR17-70" d="M 1408 -1063 
C 998 -1063 973 -1037 973 -789 
L 973 402 
C 1158 134 1427 -38 1766 -38 
C 2406 -38 3053 523 3053 1388 
C 3053 2191 2496 2802 1837 2802 
C 1453 2802 1139 2592 960 2338 
L 960 2802 
L 198 2732 
L 198 2567 
C 576 2567 634 2528 634 2223 
L 634 -789 
C 634 -1031 608 -1063 198 -1063 
L 198 -1228 
C 352 -1216 634 -1216 800 -1216 
C 966 -1216 1254 -1216 1408 -1228 
L 1408 -1063 
z
M 973 2012 
C 973 2102 973 2235 1222 2471 
C 1254 2497 1472 2688 1792 2688 
C 2259 2688 2643 2108 2643 1382 
C 2643 656 2234 64 1728 64 
C 1498 64 1248 172 1056 472 
C 973 612 973 650 973 752 
L 973 2012 
z
" transform="scale(0.015625)"/>
      <path id="CMR17-2d" d="M 1632 1216 
L 1632 1496 
L 26 1496 
L 26 1216 
L 1632 1216 
z
" transform="scale(0.015625)"/>
      <path id="CMR17-44" d="M 333 4352 
L 333 4186 
C 774 4186 845 4186 845 3900 
L 845 452 
C 845 166 774 166 333 166 
L 333 0 
L 2368 0 
C 3398 0 4224 943 4224 2141 
C 4224 3346 3411 4352 2368 4352 
L 333 4352 
z
M 1523 166 
C 1267 166 1254 197 1254 414 
L 1254 3938 
C 1254 4155 1267 4186 1523 4186 
L 2240 4186 
C 2771 4186 3750 3874 3750 2141 
C 3750 1242 3488 879 3366 707 
C 3213 510 2848 166 2240 166 
L 1523 166 
z
" transform="scale(0.015625)"/>
      <path id="CMR17-77" d="M 3725 2183 
C 3853 2560 4109 2560 4205 2560 
L 4205 2732 
C 4077 2732 3949 2732 3821 2732 
C 3699 2732 3424 2732 3315 2738 
L 3315 2560 
C 3514 2560 3622 2445 3622 2286 
C 3622 2241 3610 2184 3597 2140 
L 2995 407 
L 2342 2275 
C 2330 2319 2310 2370 2310 2395 
C 2310 2560 2528 2560 2630 2560 
L 2630 2738 
C 2483 2732 2214 2732 2061 2732 
C 1901 2732 1734 2732 1587 2738 
L 1587 2560 
C 1939 2560 1939 2547 2074 2149 
L 1485 451 
L 851 2281 
C 819 2363 819 2376 819 2395 
C 819 2560 1037 2560 1139 2560 
L 1139 2738 
C 986 2732 717 2732 557 2732 
C 416 2732 198 2732 64 2738 
L 64 2560 
C 346 2560 416 2541 486 2331 
L 1274 49 
C 1299 -33 1318 -52 1370 -52 
C 1414 -52 1440 -39 1472 56 
L 2131 1980 
L 2797 56 
C 2829 -39 2854 -52 2899 -52 
C 2950 -52 2970 -33 2995 50 
L 3725 2183 
z
" transform="scale(0.015625)"/>
      <path id="CMR17-6e" d="M 2656 1933 
C 2656 2259 2592 2790 1837 2790 
C 1331 2790 1069 2400 973 2144 
L 966 2144 
L 966 2790 
L 211 2720 
L 211 2554 
C 589 2554 646 2515 646 2208 
L 646 428 
C 646 184 621 153 211 153 
L 211 -13 
C 365 0 646 0 813 0 
C 979 0 1267 0 1421 -13 
L 1421 153 
C 1011 153 986 178 986 428 
L 986 1658 
C 986 2247 1344 2688 1792 2688 
C 2266 2688 2317 2266 2317 1958 
L 2317 428 
C 2317 184 2291 153 1882 153 
L 1882 -13 
C 2035 0 2317 0 2483 0 
C 2650 0 2938 0 3091 -13 
L 3091 153 
C 2682 153 2656 178 2656 428 
L 2656 1933 
z
" transform="scale(0.015625)"/>
      <path id="CMR17-56" d="M 3776 3745 
C 3834 3886 3936 4160 4365 4160 
L 4365 4332 
C 4218 4319 4051 4319 3891 4319 
C 3738 4319 3475 4319 3328 4332 
L 3328 4160 
C 3648 4160 3661 3936 3661 3898 
C 3661 3827 3642 3783 3622 3732 
L 2362 446 
L 1043 3886 
C 1024 3931 1011 3963 1011 3994 
C 1011 4160 1267 4160 1402 4160 
L 1402 4319 
C 1197 4319 896 4319 685 4319 
C 518 4319 218 4319 64 4332 
L 64 4160 
C 435 4160 506 4135 582 3931 
L 2106 -26 
C 2138 -115 2144 -128 2214 -128 
C 2285 -128 2291 -115 2323 -26 
L 3776 3745 
z
" transform="scale(0.015625)"/>
      <path id="CMR17-69" d="M 992 3909 
C 992 4049 877 4170 730 4170 
C 589 4170 467 4056 467 3909 
C 467 3769 582 3648 730 3648 
C 870 3648 992 3763 992 3909 
z
M 243 2706 
L 243 2541 
C 602 2541 653 2502 653 2197 
L 653 427 
C 653 184 627 153 218 153 
L 218 -13 
C 371 0 646 0 806 0 
C 960 0 1222 0 1370 -13 
L 1370 153 
C 992 153 979 191 979 420 
L 979 2776 
L 243 2706 
z
" transform="scale(0.015625)"/>
      <path id="CMR17-65" d="M 2438 1472 
C 2464 1498 2464 1511 2464 1576 
C 2464 2238 2118 2816 1389 2816 
C 710 2816 173 2169 173 1383 
C 173 551 781 -64 1459 -64 
C 2176 -64 2458 607 2458 740 
C 2458 784 2419 784 2406 784 
C 2362 784 2355 771 2330 696 
C 2189 265 1837 51 1504 51 
C 1229 51 954 203 781 480 
C 582 803 582 1176 582 1472 
L 2438 1472 
z
M 589 1568 
C 634 2505 1126 2714 1382 2714 
C 1818 2714 2112 2297 2118 1568 
L 589 1568 
z
" transform="scale(0.015625)"/>
      <path id="CMR17-66" d="M 979 2560 
L 1709 2560 
L 1709 2725 
L 966 2725 
L 966 3494 
C 966 4022 1235 4352 1510 4352 
C 1594 4352 1690 4327 1754 4282 
C 1702 4269 1568 4225 1568 4067 
C 1568 3901 1696 3850 1786 3850 
C 1875 3850 2003 3901 2003 4067 
C 2003 4308 1773 4454 1517 4454 
C 1152 4454 653 4156 653 3481 
L 653 2725 
L 141 2725 
L 141 2560 
L 653 2560 
L 653 427 
C 653 184 627 153 218 153 
L 218 -13 
C 371 0 666 0 832 0 
C 1018 0 1344 0 1517 -13 
L 1517 153 
C 1056 153 979 153 979 439 
L 979 2560 
z
" transform="scale(0.015625)"/>
      <path id="CMR17-53" d="M 2803 4290 
C 2803 4404 2797 4411 2758 4411 
C 2720 4411 2707 4385 2682 4328 
L 2490 3907 
C 2246 4257 1875 4416 1472 4416 
C 819 4416 294 3901 294 3253 
C 294 3056 339 2776 557 2510 
C 794 2218 1018 2167 1530 2033 
C 1722 1982 2042 1899 2106 1874 
C 2470 1722 2662 1341 2662 985 
C 2662 527 2336 38 1779 38 
C 1094 38 454 419 410 1311 
C 403 1413 397 1419 352 1419 
C 301 1419 294 1413 294 1285 
L 294 -1 
C 294 -115 301 -122 339 -122 
C 384 -122 397 -90 486 108 
C 493 127 493 140 614 381 
C 934 -39 1472 -128 1779 -128 
C 2477 -128 2970 451 2970 1124 
C 2970 1454 2848 1708 2778 1823 
C 2509 2230 2221 2306 1914 2382 
C 1869 2402 1856 2402 1498 2490 
C 1152 2579 1005 2624 845 2796 
C 666 2992 602 3196 602 3399 
C 602 3812 934 4263 1478 4263 
C 2157 4263 2579 3786 2675 2993 
C 2694 2878 2701 2872 2746 2872 
C 2803 2872 2803 2891 2803 2999 
L 2803 4290 
z
" transform="scale(0.015625)"/>
      <path id="CMR17-61" d="M 2304 1653 
C 2304 2072 2304 2294 2035 2543 
C 1798 2752 1523 2816 1306 2816 
C 800 2816 435 2407 435 1971 
C 435 1728 627 1728 666 1728 
C 749 1728 896 1778 896 1954 
C 896 2112 774 2181 666 2181 
C 640 2181 608 2174 589 2168 
C 723 2592 1069 2714 1293 2714 
C 1613 2714 1965 2429 1965 1885 
L 1965 1600 
C 1587 1600 1133 1549 774 1357 
C 371 1133 256 813 256 570 
C 256 77 832 -64 1171 -64 
C 1523 -64 1850 139 1990 511 
C 2003 233 2182 -18 2464 -18 
C 2598 -18 2938 70 2938 567 
L 2938 920 
L 2822 920 
L 2822 562 
C 2822 178 2650 128 2566 128 
C 2304 128 2304 458 2304 738 
L 2304 1653 
z
M 1965 870 
C 1965 317 1568 38 1216 38 
C 896 38 646 275 646 570 
C 646 761 730 1100 1101 1305 
C 1408 1478 1760 1504 1965 1504 
L 1965 870 
z
" transform="scale(0.015625)"/>
      <path id="CMR17-72" d="M 960 1497 
C 960 2112 1222 2688 1702 2688 
C 1747 2688 1792 2682 1837 2662 
C 1837 2662 1696 2617 1696 2452 
C 1696 2298 1818 2234 1914 2234 
C 1990 2234 2131 2279 2131 2458 
C 2131 2663 1926 2790 1709 2790 
C 1222 2790 1011 2317 947 2093 
L 941 2093 
L 941 2790 
L 198 2720 
L 198 2554 
C 576 2554 634 2515 634 2208 
L 634 428 
C 634 184 608 153 198 153 
L 198 -13 
C 352 0 646 0 813 0 
C 998 0 1325 0 1498 -13 
L 1498 153 
C 1037 153 960 153 960 440 
L 960 1497 
z
" transform="scale(0.015625)"/>
      <path id="CMR17-6a" d="M 1165 3963 
C 1165 4103 1050 4224 902 4224 
C 762 4224 640 4110 640 3963 
C 640 3823 755 3702 902 3702 
C 1043 3702 1165 3817 1165 3963 
z
M 365 2754 
L 365 2588 
C 787 2588 838 2543 838 2235 
L 838 -359 
C 838 -678 781 -1178 403 -1178 
C 358 -1178 186 -1178 45 -1082 
C 90 -1075 250 -1031 250 -851 
C 250 -729 166 -621 19 -621 
C -122 -621 -211 -717 -211 -858 
C -211 -1114 70 -1280 397 -1280 
C 838 -1280 1165 -877 1165 -332 
L 1165 2825 
L 365 2754 
z
" transform="scale(0.015625)"/>
      <path id="CMR17-63" d="M 2234 2240 
C 2112 2240 1933 2240 1933 2017 
C 1933 1838 2080 1787 2163 1787 
C 2208 1787 2394 1807 2394 2024 
C 2394 2467 1958 2803 1466 2803 
C 787 2803 211 2178 211 1363 
C 211 516 813 -64 1466 -64 
C 2259 -64 2458 677 2458 748 
C 2458 774 2451 793 2406 793 
C 2362 793 2355 787 2330 703 
C 2163 180 1798 51 1523 51 
C 1114 51 621 427 621 1369 
C 621 2338 1094 2688 1472 2688 
C 1722 2688 2093 2573 2234 2240 
z
" transform="scale(0.015625)"/>
      <path id="CMR17-74" d="M 966 2560 
L 1862 2560 
L 1862 2725 
L 966 2725 
L 966 3904 
L 851 3904 
C 838 3245 614 2668 70 2668 
L 70 2560 
L 627 2560 
L 627 771 
C 627 650 627 -64 1370 -64 
C 1747 -64 1965 306 1965 777 
L 1965 1140 
L 1850 1140 
L 1850 783 
C 1850 344 1677 51 1408 51 
C 1222 51 966 178 966 758 
L 966 2560 
z
" transform="scale(0.015625)"/>
      <path id="CMR17-79" d="M 2496 2197 
C 2656 2586 2944 2586 3034 2586 
L 3034 2752 
C 2912 2752 2752 2752 2630 2752 
C 2496 2752 2285 2752 2157 2758 
L 2157 2592 
C 2400 2573 2406 2394 2406 2343 
C 2406 2280 2394 2248 2362 2171 
L 1664 449 
L 902 2306 
C 870 2382 870 2426 870 2433 
C 870 2573 1018 2586 1171 2586 
L 1171 2758 
C 1018 2752 742 2752 582 2752 
C 410 2752 205 2752 64 2758 
L 64 2586 
C 410 2586 448 2554 531 2350 
L 1485 15 
C 1197 -738 1030 -1178 627 -1178 
C 557 -1178 397 -1159 282 -1044 
C 429 -1031 493 -942 493 -833 
C 493 -725 416 -629 288 -629 
C 147 -629 77 -725 77 -840 
C 77 -1095 339 -1280 627 -1280 
C 998 -1280 1229 -922 1357 -604 
L 2496 2197 
z
" transform="scale(0.015625)"/>
      <path id="CMR17-68" d="M 2656 1933 
C 2656 2259 2592 2790 1837 2790 
C 1312 2790 1056 2368 979 2157 
L 973 2157 
L 973 4396 
L 211 4326 
L 211 4160 
C 589 4160 646 4122 646 3817 
L 646 426 
C 646 184 621 153 211 153 
L 211 -13 
C 365 0 646 0 813 0 
C 979 0 1267 0 1421 -13 
L 1421 153 
C 1011 153 986 178 986 428 
L 986 1658 
C 986 2247 1344 2688 1792 2688 
C 2266 2688 2317 2266 2317 1958 
L 2317 428 
C 2317 184 2291 153 1882 153 
L 1882 -13 
C 2035 0 2317 0 2483 0 
C 2650 0 2938 0 3091 -13 
L 3091 153 
C 2682 153 2656 178 2656 428 
L 2656 1933 
z
" transform="scale(0.015625)"/>
     </defs>
     <use xlink:href="#CMR17-54" transform="scale(0.996264)"/>
     <use xlink:href="#CMR17-6f" transform="translate(58.702625 0) scale(0.996264)"/>
     <use xlink:href="#CMR17-70" transform="translate(104.393102 0) scale(0.996264)"/>
     <use xlink:href="#CMR17-2d" transform="translate(155.288472 0) scale(0.996264)"/>
     <use xlink:href="#CMR17-44" transform="translate(185.364438 0) scale(0.996264)"/>
     <use xlink:href="#CMR17-6f" transform="translate(255.757994 0) scale(0.996264)"/>
     <use xlink:href="#CMR17-77" transform="translate(298.846017 0) scale(0.996264)"/>
     <use xlink:href="#CMR17-6e" transform="translate(365.355898 0) scale(0.996264)"/>
     <use xlink:href="#CMR17-56" transform="translate(446.327234 0) scale(0.996264)"/>
     <use xlink:href="#CMR17-69" transform="translate(515.399664 0) scale(0.996264)"/>
     <use xlink:href="#CMR17-65" transform="translate(540.270722 0) scale(0.996264)"/>
     <use xlink:href="#CMR17-77" transform="translate(580.756383 0) scale(0.996264)"/>
     <use xlink:href="#CMR17-6f" transform="translate(677.34223 0) scale(0.996264)"/>
     <use xlink:href="#CMR17-66" transform="translate(723.032707 0) scale(0.996264)"/>
     <use xlink:href="#CMR17-53" transform="translate(780.582186 0) scale(0.996264)"/>
     <use xlink:href="#CMR17-61" transform="translate(831.477555 0) scale(0.996264)"/>
     <use xlink:href="#CMR17-66" transform="translate(877.168033 0) scale(0.996264)"/>
     <use xlink:href="#CMR17-65" transform="translate(904.641545 0) scale(0.996264)"/>
     <use xlink:href="#CMR17-54" transform="translate(975.203172 0) scale(0.996264)"/>
     <use xlink:href="#CMR17-72" transform="translate(1033.905797 0) scale(0.996264)"/>
     <use xlink:href="#CMR17-61" transform="translate(1069.186565 0) scale(0.996264)"/>
     <use xlink:href="#CMR17-6a" transform="translate(1120.081843 0) scale(0.996264)"/>
     <use xlink:href="#CMR17-65" transform="translate(1147.555356 0) scale(0.996264)"/>
     <use xlink:href="#CMR17-63" transform="translate(1188.041016 0) scale(0.996264)"/>
     <use xlink:href="#CMR17-74" transform="translate(1228.526677 0) scale(0.996264)"/>
     <use xlink:href="#CMR17-6f" transform="translate(1263.807444 0) scale(0.996264)"/>
     <use xlink:href="#CMR17-72" transform="translate(1309.497922 0) scale(0.996264)"/>
     <use xlink:href="#CMR17-79" transform="translate(1344.778689 0) scale(0.996264)"/>
     <use xlink:href="#CMR17-6f" transform="translate(1423.147572 0) scale(0.996264)"/>
     <use xlink:href="#CMR17-6e" transform="translate(1468.838049 0) scale(0.996264)"/>
     <use xlink:href="#CMR17-74" transform="translate(1549.809385 0) scale(0.996264)"/>
     <use xlink:href="#CMR17-68" transform="translate(1585.090153 0) scale(0.996264)"/>
     <use xlink:href="#CMR17-65" transform="translate(1635.985522 0) scale(0.996264)"/>
     <use xlink:href="#CMR17-53" transform="translate(1706.547149 0) scale(0.996264)"/>
     <use xlink:href="#CMR17-70" transform="translate(1757.442519 0) scale(0.996264)"/>
     <use xlink:href="#CMR17-68" transform="translate(1808.337889 0) scale(0.996264)"/>
     <use xlink:href="#CMR17-65" transform="translate(1859.233259 0) scale(0.996264)"/>
     <use xlink:href="#CMR17-72" transform="translate(1899.718919 0) scale(0.996264)"/>
     <use xlink:href="#CMR17-65" transform="translate(1934.999687 0) scale(0.996264)"/>
    </g>
   </g>
  </g>
 </g>
 <defs>
  <clipPath id="p11e4554c51">
   <rect x="55.08" y="51.84" width="332.64" height="332.64"/>
  </clipPath>
 </defs>
</svg>
