<?xml version="1.0" encoding="utf-8" standalone="no"?>
<!DOCTYPE svg PUBLIC "-//W3C//DTD SVG 1.1//EN"
  "http://www.w3.org/Graphics/SVG/1.1/DTD/svg11.dtd">
<svg xmlns:xlink="http://www.w3.org/1999/xlink" width="432pt" height="432pt" viewBox="0 0 432 432" xmlns="http://www.w3.org/2000/svg" version="1.1">
 <metadata>
  <rdf:RDF xmlns:dc="http://purl.org/dc/elements/1.1/" xmlns:cc="http://creativecommons.org/ns#" xmlns:rdf="http://www.w3.org/1999/02/22-rdf-syntax-ns#">
   <cc:Work>
    <dc:type rdf:resource="http://purl.org/dc/dcmitype/StillImage"/>
    <dc:date>2025-09-24T23:20:14.951999</dc:date>
    <dc:format>image/svg+xml</dc:format>
    <dc:creator>
     <cc:Agent>
      <dc:title>Matplotlib v3.10.3, https://matplotlib.org/</dc:title>
     </cc:Agent>
    </dc:creator>
   </cc:Work>
  </rdf:RDF>
 </metadata>
 <defs>
  <style type="text/css">*{stroke-linejoin: round; stroke-linecap: butt}</style>
 </defs>
 <g id="figure_1">
  <g id="patch_1">
   <path d="M 0 432 
L 432 432 
L 432 0 
L 0 0 
z
" style="fill: #ffffff"/>
  </g>
  <g id="axes_1">
   <g id="patch_2">
    <path d="M 55.08 384.48 
L 387.72 384.48 
L 387.72 51.84 
L 55.08 51.84 
z
" style="fill: #ffffff"/>
   </g>
   <g id="patch_3">
    <path d="M 379.8 218.16 
L 379.780361 215.665726 
L 379.721447 213.17207 
L 379.623274 210.679651 
L 379.485866 208.189087 
L 379.309256 205.700996 
L 379.09349 203.215994 
L 378.838619 200.734698 
L 378.544708 198.257723 
L 378.21183 195.785683 
L 377.840066 193.319191 
L 377.429509 190.858859 
L 376.980261 188.405297 
L 376.492433 185.959114 
L 375.966147 183.520915 
L 375.401532 181.091306 
L 374.798729 178.670889 
L 374.157887 176.260265 
L 373.479166 173.86003 
L 372.762732 171.47078 
L 372.008765 169.093109 
L 371.217451 166.727604 
L 370.388986 164.374853 
L 369.523576 162.03544 
L 368.621435 159.709944 
L 367.682787 157.398942 
L 366.707865 155.103007 
L 365.696911 152.822709 
L 364.650174 150.558613 
L 363.567916 148.31128 
L 362.450403 146.081267 
L 361.297914 143.869128 
L 360.110734 141.675411 
L 358.889157 139.500661 
L 357.633487 137.345416 
L 356.344034 135.21021 
L 355.021119 133.095574 
L 353.66507 131.002032 
L 352.276222 128.930103 
L 350.85492 126.8803 
L 349.401517 124.853132 
L 347.916373 122.849102 
L 346.399857 120.868706 
L 344.852343 118.912436 
L 343.274217 116.980777 
L 341.66587 115.074208 
L 340.027699 113.193201 
L 338.360112 111.338222 
L 336.663522 109.509733 
L 334.93835 107.708187 
L 333.185023 105.934029 
L 331.403977 104.187701 
L 329.595653 102.469634 
L 327.760498 100.780256 
L 325.89897 99.119984 
L 324.011528 97.489232 
L 322.098642 95.888402 
L 320.160785 94.317893 
L 318.198437 92.778093 
L 316.212087 91.269385 
L 314.202225 89.792142 
L 312.169352 88.346731 
L 310.113969 86.93351 
L 308.036588 85.55283 
L 305.937724 84.205033 
L 303.817896 82.890453 
L 301.677631 81.609416 
L 299.517459 80.36224 
L 297.337916 79.149235 
L 295.139543 77.9707 
L 292.922884 76.826929 
L 290.688489 75.718204 
L 288.436913 74.644801 
L 286.168713 73.606986 
L 283.884453 72.605017 
L 281.584698 71.639141 
L 279.270018 70.709598 
L 276.940989 69.816619 
L 274.598187 68.960426 
L 272.242193 68.14123 
L 269.873591 67.359234 
L 267.49297 66.614633 
L 265.100918 65.907612 
L 262.69803 65.238345 
L 260.284901 64.606998 
L 257.86213 64.013728 
L 255.430317 63.458683 
L 252.990065 62.941999 
L 250.54198 62.463805 
L 248.086669 62.02422 
L 245.62474 61.623353 
L 243.156804 61.261302 
L 240.683472 60.938158 
L 238.205359 60.654 
L 235.723079 60.4089 
L 233.237247 60.202919 
L 230.748479 60.036106 
L 228.257394 59.908503 
L 225.764608 59.820143 
L 223.27074 59.771047 
L 220.776407 59.761227 
L 218.28223 59.790686 
L 215.788825 59.859417 
L 213.296812 59.967401 
L 210.806809 60.114613 
L 208.319432 60.301016 
L 205.835298 60.526564 
L 203.355025 60.791201 
L 200.879226 61.094861 
L 198.408516 61.437469 
L 195.943507 61.81894 
L 193.48481 62.23918 
L 191.033036 62.698083 
L 188.588792 63.195538 
L 186.152684 63.731419 
L 183.725317 64.305594 
L 181.307292 64.917921 
L 178.899208 65.568248 
L 176.501664 66.256414 
L 174.115254 66.982248 
L 171.740569 67.74557 
L 169.378198 68.54619 
L 167.028727 69.383911 
L 164.692739 70.258524 
L 162.370812 71.169813 
L 160.063524 72.117552 
L 157.771445 73.101505 
L 155.495144 74.121429 
L 153.235186 75.177071 
L 150.992131 76.268168 
L 148.766535 77.394451 
L 146.558951 78.55564 
L 144.369925 79.751447 
L 142.2 80.981576 
L 140.049715 82.245721 
L 137.919602 83.54357 
L 135.810191 84.8748 
L 133.722003 86.239081 
L 131.655558 87.636075 
L 129.611366 89.065435 
L 127.589936 90.526807 
L 125.591768 92.019829 
L 123.617358 93.544131 
L 121.667195 95.099333 
L 119.741764 96.685052 
L 117.841541 98.300893 
L 115.966998 99.946456 
L 114.118599 101.621333 
L 112.296803 103.325108 
L 110.502062 105.057359 
L 108.734821 106.817657 
L 106.995518 108.605564 
L 105.284584 110.420638 
L 103.602443 112.262429 
L 101.949513 114.130479 
L 100.326204 116.024326 
L 98.732917 117.9435 
L 97.170049 119.887525 
L 95.637987 121.855919 
L 94.13711 123.848194 
L 92.667791 125.863855 
L 91.230394 127.902404 
L 89.825276 129.963334 
L 88.452785 132.046134 
L 87.113261 134.150288 
L 85.807036 136.275275 
L 84.534435 138.420567 
L 83.295774 140.585632 
L 82.091358 142.769933 
L 80.921487 144.972929 
L 79.786451 147.194074 
L 78.686531 149.432816 
L 77.622001 151.6886 
L 76.593124 153.960868 
L 75.600154 156.249056 
L 74.64334 158.552595 
L 73.722917 160.870916 
L 72.839114 163.203443 
L 71.99215 165.549598 
L 71.182236 167.908799 
L 70.409571 170.28046 
L 69.674348 172.663995 
L 68.976749 175.058811 
L 68.316947 177.464315 
L 67.695105 179.879911 
L 67.111378 182.304999 
L 66.56591 184.738978 
L 66.058838 187.181245 
L 65.590285 189.631194 
L 65.16037 192.088217 
L 64.769197 194.551705 
L 64.416865 197.021047 
L 64.10346 199.495632 
L 63.829061 201.974844 
L 63.593735 204.45807 
L 63.397541 206.944694 
L 63.240528 209.434099 
L 63.122733 211.925667 
L 63.044188 214.418782 
L 63.00491 216.912824 
L 63.00491 219.407176 
L 63.044188 221.901218 
L 63.122733 224.394333 
L 63.240528 226.885901 
L 63.397541 229.375306 
L 63.593735 231.86193 
L 63.829061 234.345156 
L 64.10346 236.824368 
L 64.416865 239.298953 
L 64.769197 241.768295 
L 65.16037 244.231783 
L 65.590285 246.688806 
L 66.058838 249.138755 
L 66.56591 251.581022 
L 67.111378 254.015001 
L 67.695105 256.440089 
L 68.316947 258.855685 
L 68.976749 261.261189 
L 69.674348 263.656005 
L 70.409571 266.03954 
L 71.182236 268.411201 
L 71.99215 270.770402 
L 72.839114 273.116557 
L 73.722917 275.449084 
L 74.64334 277.767405 
L 75.600154 280.070944 
L 76.593124 282.359132 
L 77.622001 284.6314 
L 78.686531 286.887184 
L 79.786451 289.125926 
L 80.921487 291.347071 
L 82.091358 293.550067 
L 83.295774 295.734368 
L 84.534435 297.899433 
L 85.807036 300.044725 
L 87.113261 302.169712 
L 88.452785 304.273866 
L 89.825276 306.356666 
L 91.230394 308.417596 
L 92.667791 310.456145 
L 94.13711 312.471806 
L 95.637987 314.464081 
L 97.170049 316.432475 
L 98.732917 318.3765 
L 100.326204 320.295674 
L 101.949513 322.189521 
L 103.602443 324.057571 
L 105.284584 325.899362 
L 106.995518 327.714436 
L 108.734821 329.502343 
L 110.502062 331.262641 
L 112.296803 332.994892 
L 114.118599 334.698667 
L 115.966998 336.373544 
L 117.841541 338.019107 
L 119.741764 339.634948 
L 121.667195 341.220667 
L 123.617358 342.775869 
L 125.591768 344.300171 
L 127.589936 345.793193 
L 129.611366 347.254565 
L 131.655558 348.683925 
L 133.722003 350.080919 
L 135.810191 351.4452 
L 137.919602 352.77643 
L 140.049715 354.074279 
L 142.2 355.338424 
L 144.369925 356.568553 
L 146.558951 357.76436 
L 148.766535 358.925549 
L 150.992131 360.051832 
L 153.235186 361.142929 
L 155.495144 362.198571 
L 157.771445 363.218495 
L 160.063524 364.202448 
L 162.370812 365.150187 
L 164.692739 366.061476 
L 167.028727 366.936089 
L 169.378198 367.77381 
L 171.740569 368.57443 
L 174.115254 369.337752 
L 176.501664 370.063586 
L 178.899208 370.751752 
L 181.307292 371.402079 
L 183.725317 372.014406 
L 186.152684 372.588581 
L 188.588792 373.124462 
L 191.033036 373.621917 
L 193.48481 374.08082 
L 195.943507 374.50106 
L 198.408516 374.882531 
L 200.879226 375.225139 
L 203.355025 375.528799 
L 205.835298 375.793436 
L 208.319432 376.018984 
L 210.806809 376.205387 
L 213.296812 376.352599 
L 215.788825 376.460583 
L 218.28223 376.529314 
L 220.776407 376.558773 
L 223.27074 376.548953 
L 225.764608 376.499857 
L 228.257394 376.411497 
L 230.748479 376.283894 
L 233.237247 376.117081 
L 235.723079 375.9111 
L 238.205359 375.666 
L 240.683472 375.381842 
L 243.156804 375.058698 
L 245.62474 374.696647 
L 248.086669 374.29578 
L 250.54198 373.856195 
L 252.990065 373.378001 
L 255.430317 372.861317 
L 257.86213 372.306272 
L 260.284901 371.713002 
L 262.69803 371.081655 
L 265.100918 370.412388 
L 267.49297 369.705367 
L 269.873591 368.960766 
L 272.242193 368.17877 
L 274.598187 367.359574 
L 276.940989 366.503381 
L 279.270018 365.610402 
L 281.584698 364.680859 
L 283.884453 363.714983 
L 286.168713 362.713014 
L 288.436913 361.675199 
L 290.688489 360.601796 
L 292.922884 359.493071 
L 295.139543 358.3493 
L 297.337916 357.170765 
L 299.517459 355.95776 
L 301.677631 354.710584 
L 303.817896 353.429547 
L 305.937724 352.114967 
L 308.036588 350.76717 
L 310.113969 349.38649 
L 312.169352 347.973269 
L 314.202225 346.527858 
L 316.212087 345.050615 
L 318.198437 343.541907 
L 320.160785 342.002107 
L 322.098642 340.431598 
L 324.011528 338.830768 
L 325.89897 337.200016 
L 327.760498 335.539744 
L 329.595653 333.850366 
L 331.403977 332.132299 
L 333.185023 330.385971 
L 334.93835 328.611813 
L 336.663522 326.810267 
L 338.360112 324.981778 
L 340.027699 323.126799 
L 341.66587 321.245792 
L 343.274217 319.339223 
L 344.852343 317.407564 
L 346.399857 315.451294 
L 347.916373 313.470898 
L 349.401517 311.466868 
L 350.85492 309.4397 
L 352.276222 307.389897 
L 353.66507 305.317968 
L 355.021119 303.224426 
L 356.344034 301.10979 
L 357.633487 298.974584 
L 358.889157 296.819339 
L 360.110734 294.644589 
L 361.297914 292.450872 
L 362.450403 290.238733 
L 363.567916 288.00872 
L 364.650174 285.761387 
L 365.696911 283.497291 
L 366.707865 281.216993 
L 367.682787 278.921058 
L 368.621435 276.610056 
L 369.523576 274.28456 
L 370.388986 271.945147 
L 371.217451 269.592396 
L 372.008765 267.226891 
L 372.762732 264.84922 
L 373.479166 262.45997 
L 374.157887 260.059735 
L 374.798729 257.649111 
L 375.401532 255.228694 
L 375.966147 252.799085 
L 376.492433 250.360886 
L 376.980261 247.914703 
L 377.429509 245.461141 
L 377.840066 243.000809 
L 378.21183 240.534317 
L 378.544708 238.062277 
L 378.838619 235.585302 
L 379.09349 233.104006 
L 379.309256 230.619004 
L 379.485866 228.130913 
L 379.623274 225.640349 
L 379.721447 223.14793 
L 379.780361 220.654274 
L 379.8 218.16 
z
" clip-path="url(#p09d238229a)" style="fill: #d3d3d3; opacity: 0.4; stroke: #d3d3d3; stroke-linejoin: miter"/>
   </g>
   <g id="patch_4">
    <path d="M 312.852283 218.16 
L 312.840944 216.71993 
L 312.80693 215.280217 
L 312.75025 213.841219 
L 312.670917 212.403291 
L 312.568952 210.966791 
L 312.444379 209.532074 
L 312.297229 208.099497 
L 312.12754 206.669415 
L 311.935352 205.242182 
L 311.720714 203.818152 
L 311.483679 202.397679 
L 311.224306 200.981114 
L 310.942658 199.56881 
L 310.638807 198.161115 
L 310.312826 196.75838 
L 309.964798 195.360951 
L 309.594807 193.969176 
L 309.202947 192.5834 
L 308.789314 191.203966 
L 308.354011 189.831217 
L 307.897146 188.465492 
L 307.418831 187.107131 
L 306.919186 185.75647 
L 306.398335 184.413844 
L 305.856407 183.079587 
L 305.293535 181.754028 
L 304.70986 180.437497 
L 304.105527 179.130321 
L 303.480684 177.832822 
L 302.835488 176.545324 
L 302.170098 175.268145 
L 301.48468 174.001602 
L 300.779402 172.746009 
L 300.05444 171.501678 
L 299.309975 170.268917 
L 298.546189 169.048031 
L 297.763274 167.839324 
L 296.961422 166.643095 
L 296.140833 165.459641 
L 295.30171 164.289255 
L 294.444262 163.132227 
L 293.568701 161.988845 
L 292.675244 160.859392 
L 291.764112 159.744148 
L 290.835532 158.64339 
L 289.889734 157.55739 
L 288.926952 156.486418 
L 287.947426 155.430739 
L 286.951397 154.390616 
L 285.939113 153.366305 
L 284.910826 152.358062 
L 283.866789 151.366136 
L 282.807262 150.390773 
L 281.732508 149.432215 
L 280.642793 148.4907 
L 279.538388 147.56646 
L 278.419566 146.659726 
L 277.286604 145.770722 
L 276.139784 144.899669 
L 274.97939 144.046783 
L 273.80571 143.212274 
L 272.619034 142.396351 
L 271.419658 141.599215 
L 270.207878 140.821064 
L 268.983994 140.06209 
L 267.748312 139.322484 
L 266.501136 138.602426 
L 265.242776 137.902097 
L 263.973545 137.22167 
L 262.693756 136.561313 
L 261.403728 135.921191 
L 260.10378 135.301461 
L 258.794234 134.702279 
L 257.475416 134.123791 
L 256.147651 133.566143 
L 254.811271 133.029471 
L 253.466605 132.513909 
L 252.113987 132.019586 
L 250.753754 131.546623 
L 249.386241 131.095137 
L 248.011788 130.665242 
L 246.630737 130.257043 
L 245.243429 129.870641 
L 243.850208 129.506133 
L 242.45142 129.163609 
L 241.047413 128.843153 
L 239.638533 128.544845 
L 238.22513 128.26876 
L 236.807555 128.014966 
L 235.38616 127.783524 
L 233.961296 127.574494 
L 232.533318 127.387927 
L 231.102579 127.223869 
L 229.669433 127.08236 
L 228.234238 126.963436 
L 226.797347 126.867127 
L 225.359118 126.793456 
L 223.919908 126.742441 
L 222.480072 126.714096 
L 221.039969 126.708426 
L 219.599954 126.725434 
L 218.160387 126.765116 
L 216.721622 126.82746 
L 215.284018 126.912453 
L 213.84793 127.020073 
L 212.413715 127.150293 
L 210.981729 127.303082 
L 209.552326 127.4784 
L 208.12586 127.676205 
L 206.702687 127.896447 
L 205.283158 128.139072 
L 203.867625 128.404021 
L 202.45644 128.691226 
L 201.049953 129.000617 
L 199.648511 129.332117 
L 198.252464 129.685645 
L 196.862157 130.061111 
L 195.477934 130.458424 
L 194.100139 130.877484 
L 192.729114 131.318188 
L 191.365199 131.780427 
L 190.008731 132.264085 
L 188.660047 132.769043 
L 187.319483 133.295176 
L 185.987369 133.842353 
L 184.664036 134.410439 
L 183.349814 134.999292 
L 182.045026 135.608767 
L 180.749998 136.238713 
L 179.46505 136.888972 
L 178.1905 137.559385 
L 176.926665 138.249785 
L 175.673859 138.96 
L 174.432391 139.689855 
L 173.20257 140.439168 
L 171.984701 141.207754 
L 170.779085 141.995422 
L 169.586022 142.801977 
L 168.405808 143.627218 
L 167.238734 144.470942 
L 166.085091 145.332938 
L 164.945165 146.212994 
L 163.819238 147.110891 
L 162.70759 148.026406 
L 161.610496 148.959312 
L 160.528228 149.909378 
L 159.461054 150.876369 
L 158.40924 151.860044 
L 157.373046 152.86016 
L 156.352729 153.876468 
L 155.348541 154.908717 
L 154.360733 155.956651 
L 153.389549 157.020009 
L 152.435229 158.098528 
L 151.498011 159.191941 
L 150.578127 160.299977 
L 149.675804 161.42236 
L 148.791268 162.558813 
L 147.924736 163.709053 
L 147.076424 164.872796 
L 146.246543 166.049752 
L 145.435298 167.239631 
L 144.642889 168.442136 
L 143.869515 169.65697 
L 143.115366 170.883832 
L 142.380629 172.122417 
L 141.665488 173.372418 
L 140.970118 174.633524 
L 140.294693 175.905425 
L 139.639379 177.187803 
L 139.00434 178.480342 
L 138.389733 179.78272 
L 137.795711 181.094614 
L 137.22242 182.4157 
L 136.670003 183.745649 
L 136.138596 185.084132 
L 135.628332 186.430817 
L 135.139338 187.78537 
L 134.671733 189.147455 
L 134.225635 190.516735 
L 133.801154 191.892869 
L 133.398395 193.275517 
L 133.017458 194.664336 
L 132.658437 196.05898 
L 132.321422 197.459106 
L 132.006497 198.864364 
L 131.713738 200.274408 
L 131.443219 201.688886 
L 131.195007 203.107449 
L 130.969164 204.529745 
L 130.765745 205.95542 
L 130.584801 207.384122 
L 130.426376 208.815496 
L 130.290511 210.249187 
L 130.177238 211.68484 
L 130.086586 213.122099 
L 130.018578 214.560606 
L 129.973229 216.000007 
L 129.950552 217.439943 
L 129.950552 218.880057 
L 129.973229 220.319993 
L 130.018578 221.759394 
L 130.086586 223.197901 
L 130.177238 224.63516 
L 130.290511 226.070813 
L 130.426376 227.504504 
L 130.584801 228.935878 
L 130.765745 230.36458 
L 130.969164 231.790255 
L 131.195007 233.212551 
L 131.443219 234.631114 
L 131.713738 236.045592 
L 132.006497 237.455636 
L 132.321422 238.860894 
L 132.658437 240.26102 
L 133.017458 241.655664 
L 133.398395 243.044483 
L 133.801154 244.427131 
L 134.225635 245.803265 
L 134.671733 247.172545 
L 135.139338 248.53463 
L 135.628332 249.889183 
L 136.138596 251.235868 
L 136.670003 252.574351 
L 137.22242 253.9043 
L 137.795711 255.225386 
L 138.389733 256.53728 
L 139.00434 257.839658 
L 139.639379 259.132197 
L 140.294693 260.414575 
L 140.970118 261.686476 
L 141.665488 262.947582 
L 142.380629 264.197583 
L 143.115366 265.436168 
L 143.869515 266.66303 
L 144.642889 267.877864 
L 145.435298 269.080369 
L 146.246543 270.270248 
L 147.076424 271.447204 
L 147.924736 272.610947 
L 148.791268 273.761187 
L 149.675804 274.89764 
L 150.578127 276.020023 
L 151.498011 277.128059 
L 152.435229 278.221472 
L 153.389549 279.299991 
L 154.360733 280.363349 
L 155.348541 281.411283 
L 156.352729 282.443532 
L 157.373046 283.45984 
L 158.40924 284.459956 
L 159.461054 285.443631 
L 160.528228 286.410622 
L 161.610496 287.360688 
L 162.70759 288.293594 
L 163.819238 289.209109 
L 164.945165 290.107006 
L 166.085091 290.987062 
L 167.238734 291.849058 
L 168.405808 292.692782 
L 169.586022 293.518023 
L 170.779085 294.324578 
L 171.984701 295.112246 
L 173.20257 295.880832 
L 174.432391 296.630145 
L 175.673859 297.36 
L 176.926665 298.070215 
L 178.1905 298.760615 
L 179.46505 299.431028 
L 180.749998 300.081287 
L 182.045026 300.711233 
L 183.349814 301.320708 
L 184.664036 301.909561 
L 185.987369 302.477647 
L 187.319483 303.024824 
L 188.660047 303.550957 
L 190.008731 304.055915 
L 191.365199 304.539573 
L 192.729114 305.001812 
L 194.100139 305.442516 
L 195.477934 305.861576 
L 196.862157 306.258889 
L 198.252464 306.634355 
L 199.648511 306.987883 
L 201.049953 307.319383 
L 202.45644 307.628774 
L 203.867625 307.915979 
L 205.283158 308.180928 
L 206.702687 308.423553 
L 208.12586 308.643795 
L 209.552326 308.8416 
L 210.981729 309.016918 
L 212.413715 309.169707 
L 213.84793 309.299927 
L 215.284018 309.407547 
L 216.721622 309.49254 
L 218.160387 309.554884 
L 219.599954 309.594566 
L 221.039969 309.611574 
L 222.480072 309.605904 
L 223.919908 309.577559 
L 225.359118 309.526544 
L 226.797347 309.452873 
L 228.234238 309.356564 
L 229.669433 309.23764 
L 231.102579 309.096131 
L 232.533318 308.932073 
L 233.961296 308.745506 
L 235.38616 308.536476 
L 236.807555 308.305034 
L 238.22513 308.05124 
L 239.638533 307.775155 
L 241.047413 307.476847 
L 242.45142 307.156391 
L 243.850208 306.813867 
L 245.243429 306.449359 
L 246.630737 306.062957 
L 248.011788 305.654758 
L 249.386241 305.224863 
L 250.753754 304.773377 
L 252.113987 304.300414 
L 253.466605 303.806091 
L 254.811271 303.290529 
L 256.147651 302.753857 
L 257.475416 302.196209 
L 258.794234 301.617721 
L 260.10378 301.018539 
L 261.403728 300.398809 
L 262.693756 299.758687 
L 263.973545 299.09833 
L 265.242776 298.417903 
L 266.501136 297.717574 
L 267.748312 296.997516 
L 268.983994 296.25791 
L 270.207878 295.498936 
L 271.419658 294.720785 
L 272.619034 293.923649 
L 273.80571 293.107726 
L 274.97939 292.273217 
L 276.139784 291.420331 
L 277.286604 290.549278 
L 278.419566 289.660274 
L 279.538388 288.75354 
L 280.642793 287.8293 
L 281.732508 286.887785 
L 282.807262 285.929227 
L 283.866789 284.953864 
L 284.910826 283.961938 
L 285.939113 282.953695 
L 286.951397 281.929384 
L 287.947426 280.889261 
L 288.926952 279.833582 
L 289.889734 278.76261 
L 290.835532 277.67661 
L 291.764112 276.575852 
L 292.675244 275.460608 
L 293.568701 274.331155 
L 294.444262 273.187773 
L 295.30171 272.030745 
L 296.140833 270.860359 
L 296.961422 269.676905 
L 297.763274 268.480676 
L 298.546189 267.271969 
L 299.309975 266.051083 
L 300.05444 264.818322 
L 300.779402 263.573991 
L 301.48468 262.318398 
L 302.170098 261.051855 
L 302.835488 259.774676 
L 303.480684 258.487178 
L 304.105527 257.189679 
L 304.70986 255.882503 
L 305.293535 254.565972 
L 305.856407 253.240413 
L 306.398335 251.906156 
L 306.919186 250.56353 
L 307.418831 249.212869 
L 307.897146 247.854508 
L 308.354011 246.488783 
L 308.789314 245.116034 
L 309.202947 243.7366 
L 309.594807 242.350824 
L 309.964798 240.959049 
L 310.312826 239.56162 
L 310.638807 238.158885 
L 310.942658 236.75119 
L 311.224306 235.338886 
L 311.483679 233.922321 
L 311.720714 232.501848 
L 311.935352 231.077818 
L 312.12754 229.650585 
L 312.297229 228.220503 
L 312.444379 226.787926 
L 312.568952 225.353209 
L 312.670917 223.916709 
L 312.75025 222.478781 
L 312.80693 221.039783 
L 312.840944 219.60007 
L 312.852283 218.16 
z
" clip-path="url(#p09d238229a)" style="fill: #0000ff; opacity: 0.3; stroke: #0000ff; stroke-linejoin: miter"/>
   </g>
   <g id="PathCollection_1">
    <defs>
     <path id="m31316e26bf" d="M 0 3.535534 
C 0.937635 3.535534 1.836992 3.163008 2.5 2.5 
C 3.163008 1.836992 3.535534 0.937635 3.535534 0 
C 3.535534 -0.937635 3.163008 -1.836992 2.5 -2.5 
C 1.836992 -3.163008 0.937635 -3.535534 0 -3.535534 
C -0.937635 -3.535534 -1.836992 -3.163008 -2.5 -2.5 
C -3.163008 -1.836992 -3.535534 -0.937635 -3.535534 0 
C -3.535534 0.937635 -3.163008 1.836992 -2.5 2.5 
C -1.836992 3.163008 -0.937635 3.535534 0 3.535534 
z
" style="stroke: #008000"/>
    </defs>
    <g clip-path="url(#p09d238229a)">
     <use xlink:href="#m31316e26bf" x="297.68142" y="218.16" style="fill: #008000; stroke: #008000"/>
    </g>
   </g>
   <g id="matplotlib.axis_1">
    <g id="xtick_1">
     <g id="line2d_1">
      <path d="M 63 384.48 
L 63 51.84 
" clip-path="url(#p09d238229a)" style="fill: none; stroke: #b0b0b0; stroke-opacity: 0.2; stroke-width: 0.8; stroke-linecap: square"/>
     </g>
     <g id="line2d_2">
      <defs>
       <path id="mfa0cf8db62" d="M 0 0 
L 0 3.5 
" style="stroke: #000000; stroke-width: 0.8"/>
      </defs>
      <g>
       <use xlink:href="#mfa0cf8db62" x="63" y="384.48" style="stroke: #000000; stroke-width: 0.8"/>
      </g>
     </g>
     <g id="text_1">
      <!-- $\mathdefault{−1.00}$ -->
      <g transform="translate(50.269921 398.398498) scale(0.1 -0.1)">
       <defs>
        <path id="CMSY10-0" d="M 4218 1472 
C 4326 1472 4442 1472 4442 1600 
C 4442 1728 4326 1728 4218 1728 
L 755 1728 
C 646 1728 531 1728 531 1600 
C 531 1472 646 1472 755 1472 
L 4218 1472 
z
" transform="scale(0.015625)"/>
        <path id="CMR17-31" d="M 1702 4058 
C 1702 4192 1696 4192 1606 4192 
C 1357 3916 979 3827 621 3827 
C 602 3827 570 3827 563 3808 
C 557 3795 557 3782 557 3648 
C 755 3648 1088 3686 1344 3839 
L 1344 461 
C 1344 236 1331 160 781 160 
L 589 160 
L 589 0 
C 896 0 1216 0 1523 0 
C 1830 0 2150 0 2458 0 
L 2458 160 
L 2266 160 
C 1715 160 1702 230 1702 458 
L 1702 4058 
z
" transform="scale(0.015625)"/>
        <path id="CMMI12-3a" d="M 1178 307 
C 1178 492 1024 619 870 619 
C 685 619 557 466 557 313 
C 557 128 710 0 864 0 
C 1050 0 1178 153 1178 307 
z
" transform="scale(0.015625)"/>
        <path id="CMR17-30" d="M 2688 2025 
C 2688 2416 2682 3080 2413 3591 
C 2176 4039 1798 4198 1466 4198 
C 1158 4198 768 4058 525 3597 
C 269 3118 243 2524 243 2025 
C 243 1661 250 1106 448 619 
C 723 -39 1216 -128 1466 -128 
C 1760 -128 2208 -7 2470 600 
C 2662 1042 2688 1559 2688 2025 
z
M 1466 -26 
C 1056 -26 813 325 723 812 
C 653 1188 653 1738 653 2096 
C 653 2588 653 2997 736 3387 
C 858 3929 1216 4096 1466 4096 
C 1728 4096 2067 3923 2189 3400 
C 2272 3036 2278 2607 2278 2096 
C 2278 1680 2278 1169 2202 792 
C 2067 95 1690 -26 1466 -26 
z
" transform="scale(0.015625)"/>
       </defs>
       <use xlink:href="#CMSY10-0" transform="scale(0.996264)"/>
       <use xlink:href="#CMR17-31" transform="translate(77.487468 0) scale(0.996264)"/>
       <use xlink:href="#CMMI12-3a" transform="translate(123.177945 0) scale(0.996264)"/>
       <use xlink:href="#CMR17-30" transform="translate(150.275122 0) scale(0.996264)"/>
       <use xlink:href="#CMR17-30" transform="translate(195.965599 0) scale(0.996264)"/>
      </g>
     </g>
    </g>
    <g id="xtick_2">
     <g id="line2d_3">
      <path d="M 102.6 384.48 
L 102.6 51.84 
" clip-path="url(#p09d238229a)" style="fill: none; stroke: #b0b0b0; stroke-opacity: 0.2; stroke-width: 0.8; stroke-linecap: square"/>
     </g>
     <g id="line2d_4">
      <g>
       <use xlink:href="#mfa0cf8db62" x="102.6" y="384.48" style="stroke: #000000; stroke-width: 0.8"/>
      </g>
     </g>
     <g id="text_2">
      <!-- $\mathdefault{−0.75}$ -->
      <g transform="translate(89.869921 398.398498) scale(0.1 -0.1)">
       <defs>
        <path id="CMR17-37" d="M 2886 3941 
L 2886 4081 
L 1382 4081 
C 634 4081 621 4165 595 4288 
L 480 4288 
L 294 3094 
L 410 3094 
C 429 3215 474 3540 550 3661 
C 589 3712 1062 3712 1171 3712 
L 2579 3712 
L 1869 2661 
C 1395 1954 1069 999 1069 165 
C 1069 89 1069 -128 1299 -128 
C 1530 -128 1530 89 1530 171 
L 1530 465 
C 1530 1508 1709 2196 2003 2636 
L 2886 3941 
z
" transform="scale(0.015625)"/>
        <path id="CMR17-35" d="M 730 3692 
C 794 3666 1056 3584 1325 3584 
C 1920 3584 2246 3911 2432 4100 
C 2432 4157 2432 4192 2394 4192 
C 2387 4192 2374 4192 2323 4163 
C 2099 4058 1837 3973 1517 3973 
C 1325 3973 1037 3999 723 4139 
C 653 4171 640 4171 634 4171 
C 602 4171 595 4164 595 4037 
L 595 2203 
C 595 2089 595 2057 659 2057 
C 691 2057 704 2070 736 2114 
C 941 2401 1222 2522 1542 2522 
C 1766 2522 2246 2382 2246 1289 
C 2246 1085 2246 715 2054 421 
C 1894 159 1645 25 1370 25 
C 947 25 518 320 403 814 
C 429 807 480 795 506 795 
C 589 795 749 840 749 1038 
C 749 1210 627 1280 506 1280 
C 358 1280 262 1190 262 1011 
C 262 454 704 -128 1382 -128 
C 2042 -128 2669 440 2669 1264 
C 2669 2030 2170 2624 1549 2624 
C 1222 2624 947 2503 730 2274 
L 730 3692 
z
" transform="scale(0.015625)"/>
       </defs>
       <use xlink:href="#CMSY10-0" transform="scale(0.996264)"/>
       <use xlink:href="#CMR17-30" transform="translate(77.487468 0) scale(0.996264)"/>
       <use xlink:href="#CMMI12-3a" transform="translate(123.177945 0) scale(0.996264)"/>
       <use xlink:href="#CMR17-37" transform="translate(150.275122 0) scale(0.996264)"/>
       <use xlink:href="#CMR17-35" transform="translate(195.965599 0) scale(0.996264)"/>
      </g>
     </g>
    </g>
    <g id="xtick_3">
     <g id="line2d_5">
      <path d="M 142.2 384.48 
L 142.2 51.84 
" clip-path="url(#p09d238229a)" style="fill: none; stroke: #b0b0b0; stroke-opacity: 0.2; stroke-width: 0.8; stroke-linecap: square"/>
     </g>
     <g id="line2d_6">
      <g>
       <use xlink:href="#mfa0cf8db62" x="142.2" y="384.48" style="stroke: #000000; stroke-width: 0.8"/>
      </g>
     </g>
     <g id="text_3">
      <!-- $\mathdefault{−0.50}$ -->
      <g transform="translate(129.469921 398.398498) scale(0.1 -0.1)">
       <use xlink:href="#CMSY10-0" transform="scale(0.996264)"/>
       <use xlink:href="#CMR17-30" transform="translate(77.487468 0) scale(0.996264)"/>
       <use xlink:href="#CMMI12-3a" transform="translate(123.177945 0) scale(0.996264)"/>
       <use xlink:href="#CMR17-35" transform="translate(150.275122 0) scale(0.996264)"/>
       <use xlink:href="#CMR17-30" transform="translate(195.965599 0) scale(0.996264)"/>
      </g>
     </g>
    </g>
    <g id="xtick_4">
     <g id="line2d_7">
      <path d="M 181.8 384.48 
L 181.8 51.84 
" clip-path="url(#p09d238229a)" style="fill: none; stroke: #b0b0b0; stroke-opacity: 0.2; stroke-width: 0.8; stroke-linecap: square"/>
     </g>
     <g id="line2d_8">
      <g>
       <use xlink:href="#mfa0cf8db62" x="181.8" y="384.48" style="stroke: #000000; stroke-width: 0.8"/>
      </g>
     </g>
     <g id="text_4">
      <!-- $\mathdefault{−0.25}$ -->
      <g transform="translate(169.069921 398.398498) scale(0.1 -0.1)">
       <defs>
        <path id="CMR17-32" d="M 2669 989 
L 2554 989 
C 2490 536 2438 459 2413 420 
C 2381 369 1920 369 1830 369 
L 602 369 
C 832 619 1280 1072 1824 1597 
C 2214 1967 2669 2402 2669 3035 
C 2669 3790 2067 4224 1395 4224 
C 691 4224 262 3604 262 3030 
C 262 2780 448 2748 525 2748 
C 589 2748 781 2787 781 3010 
C 781 3207 614 3264 525 3264 
C 486 3264 448 3258 422 3245 
C 544 3790 915 4058 1306 4058 
C 1862 4058 2227 3617 2227 3035 
C 2227 2479 1901 2000 1536 1584 
L 262 146 
L 262 0 
L 2515 0 
L 2669 989 
z
" transform="scale(0.015625)"/>
       </defs>
       <use xlink:href="#CMSY10-0" transform="scale(0.996264)"/>
       <use xlink:href="#CMR17-30" transform="translate(77.487468 0) scale(0.996264)"/>
       <use xlink:href="#CMMI12-3a" transform="translate(123.177945 0) scale(0.996264)"/>
       <use xlink:href="#CMR17-32" transform="translate(150.275122 0) scale(0.996264)"/>
       <use xlink:href="#CMR17-35" transform="translate(195.965599 0) scale(0.996264)"/>
      </g>
     </g>
    </g>
    <g id="xtick_5">
     <g id="line2d_9">
      <path d="M 221.4 384.48 
L 221.4 51.84 
" clip-path="url(#p09d238229a)" style="fill: none; stroke: #b0b0b0; stroke-opacity: 0.2; stroke-width: 0.8; stroke-linecap: square"/>
     </g>
     <g id="line2d_10">
      <g>
       <use xlink:href="#mfa0cf8db62" x="221.4" y="384.48" style="stroke: #000000; stroke-width: 0.8"/>
      </g>
     </g>
     <g id="text_5">
      <!-- $\mathdefault{0.00}$ -->
      <g transform="translate(212.544293 398.398498) scale(0.1 -0.1)">
       <use xlink:href="#CMR17-30" transform="scale(0.996264)"/>
       <use xlink:href="#CMMI12-3a" transform="translate(45.690477 0) scale(0.996264)"/>
       <use xlink:href="#CMR17-30" transform="translate(72.787654 0) scale(0.996264)"/>
       <use xlink:href="#CMR17-30" transform="translate(118.478131 0) scale(0.996264)"/>
      </g>
     </g>
    </g>
    <g id="xtick_6">
     <g id="line2d_11">
      <path d="M 261 384.48 
L 261 51.84 
" clip-path="url(#p09d238229a)" style="fill: none; stroke: #b0b0b0; stroke-opacity: 0.2; stroke-width: 0.8; stroke-linecap: square"/>
     </g>
     <g id="line2d_12">
      <g>
       <use xlink:href="#mfa0cf8db62" x="261" y="384.48" style="stroke: #000000; stroke-width: 0.8"/>
      </g>
     </g>
     <g id="text_6">
      <!-- $\mathdefault{0.25}$ -->
      <g transform="translate(252.144293 398.398498) scale(0.1 -0.1)">
       <use xlink:href="#CMR17-30" transform="scale(0.996264)"/>
       <use xlink:href="#CMMI12-3a" transform="translate(45.690477 0) scale(0.996264)"/>
       <use xlink:href="#CMR17-32" transform="translate(72.787654 0) scale(0.996264)"/>
       <use xlink:href="#CMR17-35" transform="translate(118.478131 0) scale(0.996264)"/>
      </g>
     </g>
    </g>
    <g id="xtick_7">
     <g id="line2d_13">
      <path d="M 300.6 384.48 
L 300.6 51.84 
" clip-path="url(#p09d238229a)" style="fill: none; stroke: #b0b0b0; stroke-opacity: 0.2; stroke-width: 0.8; stroke-linecap: square"/>
     </g>
     <g id="line2d_14">
      <g>
       <use xlink:href="#mfa0cf8db62" x="300.6" y="384.48" style="stroke: #000000; stroke-width: 0.8"/>
      </g>
     </g>
     <g id="text_7">
      <!-- $\mathdefault{0.50}$ -->
      <g transform="translate(291.744293 398.398498) scale(0.1 -0.1)">
       <use xlink:href="#CMR17-30" transform="scale(0.996264)"/>
       <use xlink:href="#CMMI12-3a" transform="translate(45.690477 0) scale(0.996264)"/>
       <use xlink:href="#CMR17-35" transform="translate(72.787654 0) scale(0.996264)"/>
       <use xlink:href="#CMR17-30" transform="translate(118.478131 0) scale(0.996264)"/>
      </g>
     </g>
    </g>
    <g id="xtick_8">
     <g id="line2d_15">
      <path d="M 340.2 384.48 
L 340.2 51.84 
" clip-path="url(#p09d238229a)" style="fill: none; stroke: #b0b0b0; stroke-opacity: 0.2; stroke-width: 0.8; stroke-linecap: square"/>
     </g>
     <g id="line2d_16">
      <g>
       <use xlink:href="#mfa0cf8db62" x="340.2" y="384.48" style="stroke: #000000; stroke-width: 0.8"/>
      </g>
     </g>
     <g id="text_8">
      <!-- $\mathdefault{0.75}$ -->
      <g transform="translate(331.344293 398.398498) scale(0.1 -0.1)">
       <use xlink:href="#CMR17-30" transform="scale(0.996264)"/>
       <use xlink:href="#CMMI12-3a" transform="translate(45.690477 0) scale(0.996264)"/>
       <use xlink:href="#CMR17-37" transform="translate(72.787654 0) scale(0.996264)"/>
       <use xlink:href="#CMR17-35" transform="translate(118.478131 0) scale(0.996264)"/>
      </g>
     </g>
    </g>
    <g id="xtick_9">
     <g id="line2d_17">
      <path d="M 379.8 384.48 
L 379.8 51.84 
" clip-path="url(#p09d238229a)" style="fill: none; stroke: #b0b0b0; stroke-opacity: 0.2; stroke-width: 0.8; stroke-linecap: square"/>
     </g>
     <g id="line2d_18">
      <g>
       <use xlink:href="#mfa0cf8db62" x="379.8" y="384.48" style="stroke: #000000; stroke-width: 0.8"/>
      </g>
     </g>
     <g id="text_9">
      <!-- $\mathdefault{1.00}$ -->
      <g transform="translate(370.944293 398.398498) scale(0.1 -0.1)">
       <use xlink:href="#CMR17-31" transform="scale(0.996264)"/>
       <use xlink:href="#CMMI12-3a" transform="translate(45.690477 0) scale(0.996264)"/>
       <use xlink:href="#CMR17-30" transform="translate(72.787654 0) scale(0.996264)"/>
       <use xlink:href="#CMR17-30" transform="translate(118.478131 0) scale(0.996264)"/>
      </g>
     </g>
    </g>
    <g id="text_10">
     <!-- $x$ -->
     <g transform="translate(216.410935 416.788977) scale(0.18 -0.18)">
      <defs>
       <path id="CMMI12-78" d="M 3034 2606 
C 2829 2567 2752 2414 2752 2293 
C 2752 2139 2874 2088 2963 2088 
C 3155 2088 3290 2254 3290 2427 
C 3290 2695 2982 2816 2714 2816 
C 2323 2816 2106 2433 2048 2312 
C 1901 2816 1504 2816 1389 2816 
C 736 2816 390 1980 390 1839 
C 390 1814 416 1782 461 1782 
C 512 1782 525 1820 538 1846 
C 755 2555 1184 2689 1370 2689 
C 1658 2689 1715 2420 1715 2267 
C 1715 2127 1677 1980 1600 1673 
L 1382 798 
C 1286 415 1101 64 762 64 
C 730 64 570 64 435 147 
C 666 192 717 383 717 460 
C 717 588 621 664 499 664 
C 346 664 179 530 179 326 
C 179 57 480 -64 755 -64 
C 1062 -64 1280 179 1414 441 
C 1517 64 1837 -64 2074 -64 
C 2726 -64 3072 773 3072 913 
C 3072 945 3046 971 3008 971 
C 2950 971 2944 939 2925 888 
C 2752 326 2381 64 2093 64 
C 1869 64 1747 230 1747 492 
C 1747 632 1773 734 1875 1156 
L 2099 2024 
C 2195 2408 2413 2689 2707 2689 
C 2720 2689 2899 2689 3034 2606 
z
" transform="scale(0.015625)"/>
      </defs>
      <use xlink:href="#CMMI12-78" transform="scale(0.996264)"/>
     </g>
    </g>
   </g>
   <g id="matplotlib.axis_2">
    <g id="ytick_1">
     <g id="line2d_19">
      <path d="M 55.08 376.56 
L 387.72 376.56 
" clip-path="url(#p09d238229a)" style="fill: none; stroke: #b0b0b0; stroke-opacity: 0.2; stroke-width: 0.8; stroke-linecap: square"/>
     </g>
     <g id="line2d_20">
      <defs>
       <path id="md916ceb446" d="M 0 0 
L -3.5 0 
" style="stroke: #000000; stroke-width: 0.8"/>
      </defs>
      <g>
       <use xlink:href="#md916ceb446" x="55.08" y="376.56" style="stroke: #000000; stroke-width: 0.8"/>
      </g>
     </g>
     <g id="text_11">
      <!-- $\mathdefault{−1.00}$ -->
      <g transform="translate(22.619842 380.019249) scale(0.1 -0.1)">
       <use xlink:href="#CMSY10-0" transform="scale(0.996264)"/>
       <use xlink:href="#CMR17-31" transform="translate(77.487468 0) scale(0.996264)"/>
       <use xlink:href="#CMMI12-3a" transform="translate(123.177945 0) scale(0.996264)"/>
       <use xlink:href="#CMR17-30" transform="translate(150.275122 0) scale(0.996264)"/>
       <use xlink:href="#CMR17-30" transform="translate(195.965599 0) scale(0.996264)"/>
      </g>
     </g>
    </g>
    <g id="ytick_2">
     <g id="line2d_21">
      <path d="M 55.08 336.96 
L 387.72 336.96 
" clip-path="url(#p09d238229a)" style="fill: none; stroke: #b0b0b0; stroke-opacity: 0.2; stroke-width: 0.8; stroke-linecap: square"/>
     </g>
     <g id="line2d_22">
      <g>
       <use xlink:href="#md916ceb446" x="55.08" y="336.96" style="stroke: #000000; stroke-width: 0.8"/>
      </g>
     </g>
     <g id="text_12">
      <!-- $\mathdefault{−0.75}$ -->
      <g transform="translate(22.619842 340.419249) scale(0.1 -0.1)">
       <use xlink:href="#CMSY10-0" transform="scale(0.996264)"/>
       <use xlink:href="#CMR17-30" transform="translate(77.487468 0) scale(0.996264)"/>
       <use xlink:href="#CMMI12-3a" transform="translate(123.177945 0) scale(0.996264)"/>
       <use xlink:href="#CMR17-37" transform="translate(150.275122 0) scale(0.996264)"/>
       <use xlink:href="#CMR17-35" transform="translate(195.965599 0) scale(0.996264)"/>
      </g>
     </g>
    </g>
    <g id="ytick_3">
     <g id="line2d_23">
      <path d="M 55.08 297.36 
L 387.72 297.36 
" clip-path="url(#p09d238229a)" style="fill: none; stroke: #b0b0b0; stroke-opacity: 0.2; stroke-width: 0.8; stroke-linecap: square"/>
     </g>
     <g id="line2d_24">
      <g>
       <use xlink:href="#md916ceb446" x="55.08" y="297.36" style="stroke: #000000; stroke-width: 0.8"/>
      </g>
     </g>
     <g id="text_13">
      <!-- $\mathdefault{−0.50}$ -->
      <g transform="translate(22.619842 300.819249) scale(0.1 -0.1)">
       <use xlink:href="#CMSY10-0" transform="scale(0.996264)"/>
       <use xlink:href="#CMR17-30" transform="translate(77.487468 0) scale(0.996264)"/>
       <use xlink:href="#CMMI12-3a" transform="translate(123.177945 0) scale(0.996264)"/>
       <use xlink:href="#CMR17-35" transform="translate(150.275122 0) scale(0.996264)"/>
       <use xlink:href="#CMR17-30" transform="translate(195.965599 0) scale(0.996264)"/>
      </g>
     </g>
    </g>
    <g id="ytick_4">
     <g id="line2d_25">
      <path d="M 55.08 257.76 
L 387.72 257.76 
" clip-path="url(#p09d238229a)" style="fill: none; stroke: #b0b0b0; stroke-opacity: 0.2; stroke-width: 0.8; stroke-linecap: square"/>
     </g>
     <g id="line2d_26">
      <g>
       <use xlink:href="#md916ceb446" x="55.08" y="257.76" style="stroke: #000000; stroke-width: 0.8"/>
      </g>
     </g>
     <g id="text_14">
      <!-- $\mathdefault{−0.25}$ -->
      <g transform="translate(22.619842 261.219249) scale(0.1 -0.1)">
       <use xlink:href="#CMSY10-0" transform="scale(0.996264)"/>
       <use xlink:href="#CMR17-30" transform="translate(77.487468 0) scale(0.996264)"/>
       <use xlink:href="#CMMI12-3a" transform="translate(123.177945 0) scale(0.996264)"/>
       <use xlink:href="#CMR17-32" transform="translate(150.275122 0) scale(0.996264)"/>
       <use xlink:href="#CMR17-35" transform="translate(195.965599 0) scale(0.996264)"/>
      </g>
     </g>
    </g>
    <g id="ytick_5">
     <g id="line2d_27">
      <path d="M 55.08 218.16 
L 387.72 218.16 
" clip-path="url(#p09d238229a)" style="fill: none; stroke: #b0b0b0; stroke-opacity: 0.2; stroke-width: 0.8; stroke-linecap: square"/>
     </g>
     <g id="line2d_28">
      <g>
       <use xlink:href="#md916ceb446" x="55.08" y="218.16" style="stroke: #000000; stroke-width: 0.8"/>
      </g>
     </g>
     <g id="text_15">
      <!-- $\mathdefault{0.00}$ -->
      <g transform="translate(30.368586 221.619249) scale(0.1 -0.1)">
       <use xlink:href="#CMR17-30" transform="scale(0.996264)"/>
       <use xlink:href="#CMMI12-3a" transform="translate(45.690477 0) scale(0.996264)"/>
       <use xlink:href="#CMR17-30" transform="translate(72.787654 0) scale(0.996264)"/>
       <use xlink:href="#CMR17-30" transform="translate(118.478131 0) scale(0.996264)"/>
      </g>
     </g>
    </g>
    <g id="ytick_6">
     <g id="line2d_29">
      <path d="M 55.08 178.56 
L 387.72 178.56 
" clip-path="url(#p09d238229a)" style="fill: none; stroke: #b0b0b0; stroke-opacity: 0.2; stroke-width: 0.8; stroke-linecap: square"/>
     </g>
     <g id="line2d_30">
      <g>
       <use xlink:href="#md916ceb446" x="55.08" y="178.56" style="stroke: #000000; stroke-width: 0.8"/>
      </g>
     </g>
     <g id="text_16">
      <!-- $\mathdefault{0.25}$ -->
      <g transform="translate(30.368586 182.019249) scale(0.1 -0.1)">
       <use xlink:href="#CMR17-30" transform="scale(0.996264)"/>
       <use xlink:href="#CMMI12-3a" transform="translate(45.690477 0) scale(0.996264)"/>
       <use xlink:href="#CMR17-32" transform="translate(72.787654 0) scale(0.996264)"/>
       <use xlink:href="#CMR17-35" transform="translate(118.478131 0) scale(0.996264)"/>
      </g>
     </g>
    </g>
    <g id="ytick_7">
     <g id="line2d_31">
      <path d="M 55.08 138.96 
L 387.72 138.96 
" clip-path="url(#p09d238229a)" style="fill: none; stroke: #b0b0b0; stroke-opacity: 0.2; stroke-width: 0.8; stroke-linecap: square"/>
     </g>
     <g id="line2d_32">
      <g>
       <use xlink:href="#md916ceb446" x="55.08" y="138.96" style="stroke: #000000; stroke-width: 0.8"/>
      </g>
     </g>
     <g id="text_17">
      <!-- $\mathdefault{0.50}$ -->
      <g transform="translate(30.368586 142.419249) scale(0.1 -0.1)">
       <use xlink:href="#CMR17-30" transform="scale(0.996264)"/>
       <use xlink:href="#CMMI12-3a" transform="translate(45.690477 0) scale(0.996264)"/>
       <use xlink:href="#CMR17-35" transform="translate(72.787654 0) scale(0.996264)"/>
       <use xlink:href="#CMR17-30" transform="translate(118.478131 0) scale(0.996264)"/>
      </g>
     </g>
    </g>
    <g id="ytick_8">
     <g id="line2d_33">
      <path d="M 55.08 99.36 
L 387.72 99.36 
" clip-path="url(#p09d238229a)" style="fill: none; stroke: #b0b0b0; stroke-opacity: 0.2; stroke-width: 0.8; stroke-linecap: square"/>
     </g>
     <g id="line2d_34">
      <g>
       <use xlink:href="#md916ceb446" x="55.08" y="99.36" style="stroke: #000000; stroke-width: 0.8"/>
      </g>
     </g>
     <g id="text_18">
      <!-- $\mathdefault{0.75}$ -->
      <g transform="translate(30.368586 102.819249) scale(0.1 -0.1)">
       <use xlink:href="#CMR17-30" transform="scale(0.996264)"/>
       <use xlink:href="#CMMI12-3a" transform="translate(45.690477 0) scale(0.996264)"/>
       <use xlink:href="#CMR17-37" transform="translate(72.787654 0) scale(0.996264)"/>
       <use xlink:href="#CMR17-35" transform="translate(118.478131 0) scale(0.996264)"/>
      </g>
     </g>
    </g>
    <g id="ytick_9">
     <g id="line2d_35">
      <path d="M 55.08 59.76 
L 387.72 59.76 
" clip-path="url(#p09d238229a)" style="fill: none; stroke: #b0b0b0; stroke-opacity: 0.2; stroke-width: 0.8; stroke-linecap: square"/>
     </g>
     <g id="line2d_36">
      <g>
       <use xlink:href="#md916ceb446" x="55.08" y="59.76" style="stroke: #000000; stroke-width: 0.8"/>
      </g>
     </g>
     <g id="text_19">
      <!-- $\mathdefault{1.00}$ -->
      <g transform="translate(30.368586 63.219249) scale(0.1 -0.1)">
       <use xlink:href="#CMR17-31" transform="scale(0.996264)"/>
       <use xlink:href="#CMMI12-3a" transform="translate(45.690477 0) scale(0.996264)"/>
       <use xlink:href="#CMR17-30" transform="translate(72.787654 0) scale(0.996264)"/>
       <use xlink:href="#CMR17-30" transform="translate(118.478131 0) scale(0.996264)"/>
      </g>
     </g>
    </g>
    <g id="text_20">
     <!-- $y$ -->
     <g transform="translate(15.131778 222.440776) rotate(-90) scale(0.18 -0.18)">
      <defs>
       <path id="CMMI12-79" d="M 1683 -700 
C 1510 -939 1261 -1152 947 -1152 
C 870 -1152 563 -1152 467 -889 
C 486 -895 518 -895 531 -895 
C 723 -895 851 -729 851 -582 
C 851 -435 730 -384 634 -384 
C 531 -384 307 -458 307 -759 
C 307 -1071 582 -1286 947 -1286 
C 1587 -1286 2234 -700 2413 6 
L 3040 2485 
C 3046 2517 3059 2556 3059 2594 
C 3059 2689 2982 2753 2886 2753 
C 2829 2753 2694 2727 2643 2535 
L 2170 658 
C 2138 543 2138 530 2086 460 
C 1958 281 1747 64 1440 64 
C 1082 64 1050 415 1050 588 
C 1050 952 1222 1443 1395 1903 
C 1466 2088 1504 2178 1504 2305 
C 1504 2574 1312 2816 998 2816 
C 410 2816 173 1890 173 1839 
C 173 1814 198 1782 243 1782 
C 301 1782 307 1807 333 1897 
C 486 2433 730 2689 979 2689 
C 1037 2689 1146 2689 1146 2478 
C 1146 2312 1075 2127 979 1884 
C 666 1047 666 837 666 683 
C 666 77 1101 -64 1421 -64 
C 1606 -64 1837 -6 2061 230 
L 2067 224 
C 1971 -147 1907 -392 1683 -700 
z
" transform="scale(0.015625)"/>
      </defs>
      <use xlink:href="#CMMI12-79" transform="scale(0.996264)"/>
     </g>
    </g>
   </g>
   <g id="line2d_37">
    <path d="M 312.852283 218.16 
L 312.75025 213.841219 
L 312.444379 209.532074 
L 311.935352 205.242182 
L 311.224306 200.981114 
L 310.312826 196.75838 
L 309.202947 192.5834 
L 307.897146 188.465492 
L 306.398335 184.413844 
L 304.70986 180.437497 
L 302.835488 176.545324 
L 300.779402 172.746009 
L 298.546189 169.048031 
L 296.140833 165.459641 
L 293.568701 161.988845 
L 290.835532 158.64339 
L 287.947426 155.430739 
L 284.910826 152.358062 
L 281.732508 149.432215 
L 278.419566 146.659726 
L 274.97939 144.046783 
L 271.419658 141.599215 
L 267.748312 139.322484 
L 263.973545 137.22167 
L 260.10378 135.301461 
L 256.147651 133.566143 
L 252.113987 132.019586 
L 248.011788 130.665242 
L 243.850208 129.506133 
L 239.638533 128.544845 
L 235.38616 127.783524 
L 231.102579 127.223869 
L 226.797347 126.867127 
L 222.480072 126.714096 
L 218.160387 126.765116 
L 213.84793 127.020073 
L 209.552326 127.4784 
L 205.283158 128.139072 
L 201.049953 129.000617 
L 196.862157 130.061111 
L 192.729114 131.318188 
L 188.660047 132.769043 
L 184.664036 134.410439 
L 180.749998 136.238713 
L 176.926665 138.249785 
L 173.20257 140.439168 
L 169.586022 142.801977 
L 166.085091 145.332938 
L 162.70759 148.026406 
L 159.461054 150.876369 
L 156.352729 153.876468 
L 153.389549 157.020009 
L 150.578127 160.299977 
L 147.924736 163.709053 
L 145.435298 167.239631 
L 143.115366 170.883832 
L 140.970118 174.633524 
L 139.00434 178.480342 
L 137.22242 182.4157 
L 135.628332 186.430817 
L 134.225635 190.516735 
L 133.017458 194.664336 
L 132.006497 198.864364 
L 131.195007 203.107449 
L 130.584801 207.384122 
L 130.177238 211.68484 
L 129.973229 216.000007 
L 129.973229 220.319993 
L 130.177238 224.63516 
L 130.584801 228.935878 
L 131.195007 233.212551 
L 132.006497 237.455636 
L 133.017458 241.655664 
L 134.225635 245.803265 
L 135.628332 249.889183 
L 137.22242 253.9043 
L 139.00434 257.839658 
L 140.970118 261.686476 
L 143.115366 265.436168 
L 145.435298 269.080369 
L 147.924736 272.610947 
L 150.578127 276.020023 
L 153.389549 279.299991 
L 156.352729 282.443532 
L 159.461054 285.443631 
L 162.70759 288.293594 
L 166.085091 290.987062 
L 169.586022 293.518023 
L 173.20257 295.880832 
L 176.926665 298.070215 
L 180.749998 300.081287 
L 184.664036 301.909561 
L 188.660047 303.550957 
L 192.729114 305.001812 
L 196.862157 306.258889 
L 201.049953 307.319383 
L 205.283158 308.180928 
L 209.552326 308.8416 
L 213.84793 309.299927 
L 218.160387 309.554884 
L 222.480072 309.605904 
L 226.797347 309.452873 
L 231.102579 309.096131 
L 235.38616 308.536476 
L 239.638533 307.775155 
L 243.850208 306.813867 
L 248.011788 305.654758 
L 252.113987 304.300414 
L 256.147651 302.753857 
L 260.10378 301.018539 
L 263.973545 299.09833 
L 267.748312 296.997516 
L 271.419658 294.720785 
L 274.97939 292.273217 
L 278.419566 289.660274 
L 281.732508 286.887785 
L 284.910826 283.961938 
L 287.947426 280.889261 
L 290.835532 277.67661 
L 293.568701 274.331155 
L 296.140833 270.860359 
L 298.546189 267.271969 
L 300.779402 263.573991 
L 302.835488 259.774676 
L 304.70986 255.882503 
L 306.398335 251.906156 
L 307.897146 247.854508 
L 309.202947 243.7366 
L 310.312826 239.56162 
L 311.224306 235.338886 
L 311.935352 231.077818 
L 312.444379 226.787926 
L 312.75025 222.478781 
L 312.852283 218.16 
L 312.852283 218.16 
" clip-path="url(#p09d238229a)" style="fill: none; stroke: #000000; stroke-width: 1.5; stroke-linecap: square"/>
   </g>
   <g id="line2d_38">
    <path d="M 312.852283 218.16 
L 317.029061 214.325118 
L 319.039731 212.282793 
L 320.965911 210.161626 
L 322.782812 207.967267 
L 324.465846 205.707242 
L 325.991031 203.390906 
L 327.335424 201.029345 
L 328.477578 198.635237 
L 329.398007 196.222652 
L 330.07964 193.806806 
L 330.508251 191.403763 
L 330.672831 189.0301 
L 330.565909 186.702539 
L 330.183769 184.437564 
L 329.526578 182.251027 
L 328.598408 180.157769 
L 327.407137 178.171274 
L 325.964253 176.303348 
L 324.28455 174.563862 
L 322.38575 172.960549 
L 320.288046 171.498868 
L 318.013615 170.181928 
L 315.5861 169.010481 
L 313.03009 167.982973 
L 310.37062 167.095636 
L 307.632701 166.342633 
L 304.840899 165.716227 
L 299.189487 164.803923 
L 293.591197 164.266436 
L 288.195602 163.994263 
L 274.267825 163.550346 
L 270.569615 163.118647 
L 268.906645 162.78565 
L 267.364675 162.358081 
L 265.939448 161.824877 
L 264.625269 161.176157 
L 263.415119 160.40333 
L 262.300764 159.499204 
L 261.272879 158.458079 
L 260.321178 157.275836 
L 259.434547 155.950014 
L 257.808754 152.866474 
L 256.295483 149.223265 
L 254.009464 142.817336 
L 251.402424 135.545425 
L 249.336654 130.425437 
L 246.925964 125.274703 
L 245.575568 122.74519 
L 244.123223 120.279047 
L 242.567175 117.901748 
L 240.907541 115.639042 
L 239.146384 113.516543 
L 237.287739 111.559275 
L 235.33761 109.791185 
L 233.303909 108.234634 
L 231.196344 106.909892 
L 229.026257 105.834647 
L 226.806401 105.023556 
L 224.550679 104.487851 
L 222.27383 104.235038 
L 219.991092 104.268682 
L 217.717842 104.588309 
L 215.469234 105.189415 
L 213.259841 106.063598 
L 211.10332 107.198791 
L 209.012117 108.579589 
L 206.997209 110.187657 
L 205.067894 112.002188 
L 203.231646 114.000404 
L 201.494009 116.158061 
L 199.858557 118.449953 
L 198.32689 120.850397 
L 196.898679 123.333671 
L 194.342168 128.448003 
L 192.151439 133.60042 
L 190.265417 138.618159 
L 185.5781 151.536377 
L 184.007505 154.837591 
L 183.162742 156.27391 
L 182.261887 157.565928 
L 181.293288 158.714792 
L 180.246013 159.723357 
L 179.10999 160.596122 
L 177.876139 161.339144 
L 176.536499 161.959952 
L 175.084352 162.467449 
L 173.514332 162.871804 
L 170.006599 163.417408 
L 166.001259 163.698932 
L 148.560194 164.3135 
L 142.947396 164.889542 
L 137.300783 165.852245 
L 134.519451 166.507554 
L 131.797703 167.291434 
L 129.160243 168.211195 
L 126.63213 169.272202 
L 124.238337 170.477715 
L 122.003277 171.828755 
L 119.950295 173.324019 
L 118.10115 174.959844 
L 116.475498 176.730228 
L 115.090412 178.626923 
L 113.959943 180.639583 
L 113.094756 182.755983 
L 112.50185 184.962292 
L 112.184385 187.243398 
L 112.141613 189.583265 
L 112.368921 191.96532 
L 112.857984 194.372841 
L 113.59701 196.789338 
L 114.571069 199.198918 
L 115.762482 201.586608 
L 117.151264 203.938644 
L 118.715574 206.242707 
L 120.432185 208.488105 
L 122.276935 210.665905 
L 124.225155 212.76902 
L 128.333114 216.732228 
L 132.562498 220.358289 
L 138.743821 225.19111 
L 145.897142 230.733869 
L 148.750755 233.272925 
L 151.02229 235.76955 
L 151.926718 237.03032 
L 152.673678 238.314618 
L 153.263049 239.633649 
L 153.696526 240.998261 
L 153.977581 242.418798 
L 154.111418 243.90495 
L 154.104914 245.465611 
L 153.966543 247.108736 
L 153.335632 250.668723 
L 152.315307 254.624878 
L 147.489234 271.591452 
L 146.345872 277.137576 
L 145.907213 279.968823 
L 145.581196 282.81636 
L 145.384686 285.661225 
L 145.333315 288.483029 
L 145.441188 291.260227 
L 145.720587 293.970436 
L 146.181677 296.590822 
L 146.832253 299.098521 
L 147.677501 301.471105 
L 148.71983 303.687072 
L 149.958746 305.726342 
L 151.390817 307.570736 
L 153.009697 309.20443 
L 154.806253 310.614348 
L 156.768758 311.790491 
L 158.883166 312.72618 
L 161.133453 313.418198 
L 163.502009 313.866841 
L 165.970061 314.075866 
L 168.518118 314.052347 
L 171.126414 313.806455 
L 173.775336 313.351165 
L 176.445815 312.701922 
L 179.119685 311.876265 
L 181.77998 310.893442 
L 184.411189 309.77402 
L 189.532684 307.212007 
L 194.395214 304.367403 
L 198.940316 301.417011 
L 210.527436 293.538971 
L 213.787466 291.683943 
L 215.334216 290.958879 
L 216.837522 290.380567 
L 218.307264 289.955663 
L 219.753811 289.68903 
L 221.187861 289.58371 
L 222.620293 289.640901 
L 224.062009 289.859951 
L 225.523776 290.238366 
L 227.016078 290.771819 
L 230.131855 292.277556 
L 233.481678 294.307215 
L 239.067546 298.116245 
L 245.420022 302.456186 
L 250.081534 305.389145 
L 255.043415 308.154702 
L 257.61654 309.419099 
L 260.236386 310.574912 
L 262.889606 311.60042 
L 265.561159 312.474739 
L 268.234489 313.178188 
L 270.891755 313.692681 
L 273.514122 314.002114 
L 276.082097 314.092742 
L 278.575917 313.953531 
L 280.975964 313.57646 
L 283.263206 312.956772 
L 285.419642 312.093135 
L 287.428734 310.987724 
L 289.275814 309.646205 
L 290.948435 308.077613 
L 292.43667 306.294141 
L 293.733332 304.310839 
L 294.834117 302.14523 
L 295.737662 299.816883 
L 296.445524 297.346929 
L 296.962082 294.757572 
L 297.29438 292.071597 
L 297.451906 289.311894 
L 297.446344 286.501021 
L 297.291289 283.660808 
L 297.001951 280.812017 
L 296.087576 275.164757 
L 294.846095 269.694563 
L 293.428245 264.507145 
L 289.593616 251.229374 
L 288.898378 247.612679 
L 288.722774 245.943735 
L 288.676227 244.359414 
L 288.767674 242.852064 
L 289.004472 241.413055 
L 289.392326 240.032917 
L 289.935229 238.701487 
L 290.635407 237.408049 
L 291.49328 236.141488 
L 292.50743 234.890442 
L 294.989606 232.389139 
L 298.033389 229.814188 
L 305.464686 224.118404 
L 309.611577 220.867207 
L 313.843165 217.291021 
L 317.981121 213.37726 
L 319.955245 211.29737 
L 321.83325 209.141053 
L 323.590395 206.914843 
L 325.202323 204.627132 
L 326.645483 202.288101 
L 327.897577 199.909606 
L 328.93802 197.505003 
L 329.748403 195.088934 
L 330.312938 192.677054 
L 330.618866 190.285709 
L 330.656803 187.931594 
L 330.421017 185.631367 
L 329.909604 183.401262 
L 329.124567 181.256705 
L 328.071781 179.211941 
L 326.76085 177.279703 
L 325.204855 175.47092 
L 323.420015 173.79448 
L 321.425271 172.257062 
L 319.24181 170.863029 
L 316.892561 169.614382 
L 314.401674 168.510782 
L 311.794009 167.54962 
L 309.094646 166.72614 
L 306.328436 166.03359 
L 303.519604 165.463406 
L 297.865793 164.648037 
L 292.302656 164.1831 
L 284.432402 163.89381 
L 275.333329 163.623046 
L 271.50274 163.261132 
L 268.168537 162.597574 
L 266.681946 162.121765 
L 265.309598 161.535532 
L 264.045166 160.829586 
L 262.881044 159.99598 
L 261.80847 159.028209 
L 260.817654 157.921306 
L 259.897903 156.671919 
L 259.037765 155.27839 
L 257.447561 152.06109 
L 255.945682 148.29211 
L 249.916208 131.794826 
L 247.602658 126.634944 
L 246.305067 124.081933 
L 244.907186 121.579005 
L 243.406304 119.151336 
L 241.801537 116.824579 
L 240.093907 114.624473 
L 238.286399 112.576415 
L 236.383977 110.704984 
L 234.393551 109.033448 
L 232.323891 107.58325 
L 230.185496 106.373508 
L 227.9904 105.420541 
L 225.751931 104.737442 
L 223.484425 104.333731 
L 221.202899 104.215083 
L 218.922702 104.383175 
L 216.659151 104.835633 
L 214.427171 105.566103 
L 212.240944 106.564428 
L 210.113595 107.81693 
L 208.05691 109.306775 
L 206.0811 111.014408 
L 204.194624 112.918035 
L 202.404059 114.994126 
L 200.714028 117.217926 
L 199.127176 119.563944 
L 197.644191 122.006429 
L 194.983187 127.078946 
L 192.700427 132.239035 
L 190.740605 137.308009 
L 185.220141 152.361077 
L 183.617486 155.529272 
L 182.747903 156.897874 
L 181.816683 158.122497 
L 180.812493 159.205096 
L 179.724787 160.149307 
L 178.543943 160.960369 
L 177.26139 161.645042 
L 175.869735 162.211513 
L 174.36288 162.669291 
L 170.986301 163.302768 
L 167.112726 163.643667 
L 160.395883 163.853162 
L 152.737566 164.067133 
L 147.255403 164.419353 
L 141.619953 165.076953 
L 138.793481 165.553523 
L 135.990315 166.144147 
L 133.233893 166.858737 
L 130.548574 167.705556 
L 127.959277 168.691026 
L 125.49108 169.819542 
L 123.168755 171.093328 
L 121.016277 172.512323 
L 119.056312 174.074117 
L 117.309696 175.773945 
L 115.794932 177.604735 
L 114.527724 179.557232 
L 113.520576 181.620179 
L 112.782463 183.78056 
L 112.318598 186.023899 
L 112.13031 188.334605 
L 112.215025 190.696343 
L 112.566365 193.09242 
L 113.174343 195.506176 
L 114.025648 197.921358 
L 115.10401 200.322467 
L 116.390612 202.695065 
L 117.864541 205.026038 
L 119.503248 207.30381 
L 121.283012 209.518502 
L 123.179382 211.662039 
L 127.222923 215.712694 
L 131.438364 219.428525 
L 135.640744 222.810984 
L 146.61554 231.337844 
L 149.337631 233.858935 
L 150.478687 235.105804 
L 151.466041 236.358711 
L 152.29674 237.629105 
L 152.969686 238.928317 
L 153.485614 240.267404 
L 153.847057 241.656997 
L 154.058308 243.10715 
L 154.125363 244.627197 
L 154.055855 246.225609 
L 153.545442 249.686279 
L 152.617904 253.534596 
L 150.69299 260.078299 
L 149.246242 264.94167 
L 149.246242 264.94167 
" clip-path="url(#p09d238229a)" style="fill: none; stroke-dasharray: 1.5,2.475; stroke-dashoffset: 0; stroke: #0000ff; stroke-width: 1.5"/>
   </g>
   <g id="line2d_39">
    <path d="M 297.68142 218.16 
L 298.474745 217.494161 
L 299.575523 216.263947 
L 300.77136 214.597697 
L 301.933197 212.592572 
L 302.915332 210.452991 
L 303.71059 208.19424 
L 304.316577 205.818711 
L 304.741886 203.238528 
L 304.959015 200.535151 
L 304.964127 197.704843 
L 304.750954 194.743297 
L 304.294176 191.554462 
L 303.584933 188.224247 
L 302.83414 185.624538 
L 302.08969 183.838883 
L 301.187953 182.23469 
L 300.098144 180.734368 
L 298.760553 179.275194 
L 297.166277 177.879946 
L 295.314412 176.569703 
L 293.212318 175.36299 
L 290.775974 174.232888 
L 288.018551 173.210145 
L 284.866503 172.288595 
L 281.26782 171.472195 
L 276.711157 170.676045 
L 266.795419 169.027238 
L 264.26095 168.32643 
L 262.330444 167.567274 
L 260.777644 166.728011 
L 259.436013 165.756823 
L 258.232304 164.606597 
L 257.152867 163.26286 
L 256.144355 161.648476 
L 255.16421 159.653968 
L 254.141455 157.045689 
L 252.968884 153.402085 
L 251.167274 147.712214 
L 250.166836 145.485079 
L 248.991106 143.419638 
L 247.691099 141.57773 
L 246.222599 139.871622 
L 244.5238 138.245187 
L 242.646348 136.761151 
L 240.589427 135.416391 
L 238.2799 134.174152 
L 235.704931 133.050017 
L 232.929324 132.084442 
L 229.947579 131.280133 
L 226.666009 130.628933 
L 223.153604 130.165319 
L 219.493412 129.90833 
L 215.787084 129.867914 
L 213.671406 130.044591 
L 211.773165 130.429756 
L 209.917902 131.04405 
L 208.11872 131.880981 
L 206.300907 132.982484 
L 204.4844 134.356521 
L 202.689219 136.002139 
L 200.864027 137.992021 
L 199.042334 140.323396 
L 197.195958 143.065482 
L 195.31322 146.270235 
L 193.157566 150.404361 
L 188.438453 159.654196 
L 187.041355 161.795115 
L 185.731205 163.409007 
L 184.459794 164.636413 
L 183.127127 165.620912 
L 181.666072 166.418154 
L 180.0587 167.036785 
L 178.21535 167.504086 
L 176.018857 167.82702 
L 173.225207 168.001416 
L 169.400444 167.99971 
L 163.559459 167.975507 
L 161.142037 168.245867 
L 158.823001 168.731844 
L 156.676732 169.403946 
L 154.606566 170.277457 
L 152.540265 171.394002 
L 150.553272 172.723761 
L 148.642442 174.266617 
L 146.750368 176.080868 
L 144.887901 178.183534 
L 143.113518 180.525469 
L 141.384474 183.185183 
L 139.75518 186.109462 
L 138.232396 189.310867 
L 136.859956 192.716288 
L 135.679378 196.232122 
L 135.197572 198.300619 
L 134.981498 200.226345 
L 134.99669 202.181726 
L 135.240806 204.152286 
L 135.730722 206.22207 
L 136.480054 208.374557 
L 137.493972 210.590403 
L 138.825753 212.940882 
L 140.482935 215.393262 
L 142.522516 217.995728 
L 144.990053 220.775453 
L 148.255868 224.101547 
L 155.588008 231.445703 
L 157.189042 233.436135 
L 158.315809 235.181387 
L 159.087156 236.770635 
L 159.608606 238.343336 
L 159.912291 239.98055 
L 160.000956 241.701987 
L 159.872795 243.601408 
L 159.498209 245.792477 
L 158.797793 248.506167 
L 157.611321 252.146972 
L 155.811789 257.596906 
L 155.315482 259.98283 
L 155.055109 262.341511 
L 155.025836 264.592977 
L 155.212042 266.834045 
L 155.63079 269.146386 
L 156.277166 271.448985 
L 157.150032 273.74483 
L 158.286926 276.10661 
L 159.707354 278.529271 
L 161.382696 280.941986 
L 163.374241 283.409731 
L 165.648223 285.864308 
L 168.218614 288.303223 
L 171.029485 290.662227 
L 174.004365 292.874003 
L 175.819127 293.977173 
L 177.580512 294.784306 
L 179.441944 295.380953 
L 181.389073 295.764469 
L 183.507013 295.944889 
L 185.78435 295.903965 
L 188.20435 295.630617 
L 190.745465 295.121919 
L 193.59177 294.317157 
L 196.5989 293.233607 
L 200.015867 291.758968 
L 204.113717 289.733653 
L 213.947221 284.750456 
L 216.32248 283.873628 
L 218.254518 283.384958 
L 220.00106 283.163492 
L 221.656556 283.174749 
L 223.307945 283.413571 
L 224.974857 283.883008 
L 226.746095 284.614164 
L 228.793201 285.713283 
L 231.172505 287.252683 
L 234.37469 289.606813 
L 238.498703 292.635635 
L 240.617049 293.863351 
L 242.782024 294.856908 
L 244.915974 295.595487 
L 247.106302 296.124699 
L 249.436054 296.454138 
L 251.826658 296.563071 
L 254.280647 296.453668 
L 256.878794 296.113163 
L 259.544075 295.541557 
L 262.356975 294.710233 
L 265.241788 293.627615 
L 268.279124 292.246111 
L 271.39305 290.578201 
L 274.505487 288.656979 
L 277.609454 286.478507 
L 279.306715 285.04827 
L 280.631787 283.635865 
L 281.735019 282.144978 
L 282.724774 280.430118 
L 283.538722 278.583608 
L 284.20943 276.525315 
L 284.738777 274.159145 
L 285.079561 271.599135 
L 285.230633 268.761209 
L 285.170797 265.566515 
L 284.871877 261.957598 
L 284.273473 257.606725 
L 282.370063 245.008448 
L 282.345276 242.68715 
L 282.543684 240.739273 
L 282.941159 239.042859 
L 283.534158 237.498559 
L 284.345788 236.022751 
L 285.38358 234.597158 
L 286.761963 233.091284 
L 288.604629 231.428543 
L 291.074157 229.51343 
L 294.99678 226.783122 
L 297.464122 224.953426 
L 299.293505 223.319416 
L 300.914064 221.568673 
L 302.281714 219.768572 
L 303.467171 217.850124 
L 304.505449 215.737348 
L 305.352415 213.49852 
L 306.010979 211.131905 
L 306.494143 208.556779 
L 306.778027 205.846376 
L 306.860459 202.915357 
L 306.726012 199.838315 
L 306.354506 196.523924 
L 305.734325 193.048224 
L 304.872792 189.495638 
L 303.76457 185.871172 
L 302.935097 183.812697 
L 302.007801 182.112801 
L 300.936936 180.599323 
L 299.617884 179.124125 
L 298.118684 177.775338 
L 296.373322 176.497125 
L 294.291006 175.257902 
L 291.965208 174.138132 
L 289.315572 173.112898 
L 286.260359 172.178065 
L 282.735866 171.342916 
L 278.514782 170.580299 
L 265.597685 168.423485 
L 263.40103 167.716709 
L 261.686407 166.943223 
L 260.204329 166.031828 
L 258.926433 164.980845 
L 257.78049 163.742307 
L 256.751294 162.3036 
L 255.750307 160.514847 
L 254.742613 158.234494 
L 253.656802 155.185556 
L 252.046887 149.858735 
L 251.127234 147.322545 
L 250.104689 145.141034 
L 248.908559 143.116839 
L 247.537555 141.244961 
L 245.990969 139.519789 
L 244.268171 137.93658 
L 242.368424 136.491655 
L 240.221808 135.143153 
L 237.888495 133.940001 
L 235.290183 132.853013 
L 232.491979 131.922128 
L 229.404973 131.13246 
L 226.096849 130.519118 
L 222.557565 130.093202 
L 218.870956 129.873766 
L 215.337674 129.876884 
L 213.32055 130.090634 
L 211.42861 130.519581 
L 209.582463 131.177463 
L 207.794536 132.055538 
L 205.990328 133.196464 
L 204.189543 134.606971 
L 202.411868 136.28501 
L 200.606301 138.303256 
L 198.805716 140.657148 
L 196.981701 143.414559 
L 195.069988 146.71973 
L 192.852991 151.02516 
L 188.656899 159.284587 
L 187.227247 161.536447 
L 185.930444 163.187452 
L 184.625001 164.492964 
L 183.307068 165.501927 
L 181.863215 166.322806 
L 180.275208 166.963744 
L 178.453915 167.452336 
L 176.282852 167.795485 
L 173.610626 167.985634 
L 169.937849 168.007357 
L 163.27931 167.99282 
L 160.883664 168.286068 
L 158.584443 168.793376 
L 156.376507 169.51444 
L 154.254236 170.448158 
L 152.212864 171.593623 
L 150.248611 172.95036 
L 148.299926 174.571788 
L 146.431994 176.415875 
L 144.592748 178.547931 
L 142.840328 180.918419 
L 141.132992 183.607154 
L 139.525055 186.560648 
L 138.023904 189.791841 
L 136.673547 193.226962 
L 135.580441 196.585268 
L 135.15377 198.56815 
L 134.96978 200.498945 
L 135.017595 202.457388 
L 135.293114 204.428967 
L 135.813756 206.497717 
L 136.592216 208.647007 
L 137.632817 210.857478 
L 138.988903 213.200152 
L 140.666611 215.642343 
L 142.72194 218.232078 
L 145.272624 221.075133 
L 148.682857 224.518551 
L 155.307878 231.129202 
L 157.004145 233.184375 
L 158.170218 234.928007 
L 159.0051 236.573452 
L 159.554261 238.139416 
L 159.88563 239.767312 
L 160.001383 241.476981 
L 159.900168 243.361768 
L 159.552537 245.534666 
L 158.904567 248.137416 
L 157.787209 251.640561 
L 155.743014 257.871545 
L 155.275202 260.243666 
L 155.041248 262.589911 
L 155.041248 262.589911 
" clip-path="url(#p09d238229a)" style="fill: none; stroke: #ff0000; stroke-width: 1.5; stroke-linecap: square"/>
   </g>
   <g id="patch_5">
    <path d="M 55.08 384.48 
L 55.08 51.84 
" style="fill: none; stroke: #000000; stroke-width: 0.8; stroke-linejoin: miter; stroke-linecap: square"/>
   </g>
   <g id="patch_6">
    <path d="M 387.72 384.48 
L 387.72 51.84 
" style="fill: none; stroke: #000000; stroke-width: 0.8; stroke-linejoin: miter; stroke-linecap: square"/>
   </g>
   <g id="patch_7">
    <path d="M 55.08 384.48 
L 387.72 384.48 
" style="fill: none; stroke: #000000; stroke-width: 0.8; stroke-linejoin: miter; stroke-linecap: square"/>
   </g>
   <g id="patch_8">
    <path d="M 55.08 51.84 
L 387.72 51.84 
" style="fill: none; stroke: #000000; stroke-width: 0.8; stroke-linejoin: miter; stroke-linecap: square"/>
   </g>
   <g id="text_21">
    <!-- Stereographic Projection on $\mathbb S^2$ -->
    <g transform="translate(110.504145 46.84) scale(0.18 -0.18)">
     <defs>
      <path id="CMR17-53" d="M 2803 4290 
C 2803 4404 2797 4411 2758 4411 
C 2720 4411 2707 4385 2682 4328 
L 2490 3907 
C 2246 4257 1875 4416 1472 4416 
C 819 4416 294 3901 294 3253 
C 294 3056 339 2776 557 2510 
C 794 2218 1018 2167 1530 2033 
C 1722 1982 2042 1899 2106 1874 
C 2470 1722 2662 1341 2662 985 
C 2662 527 2336 38 1779 38 
C 1094 38 454 419 410 1311 
C 403 1413 397 1419 352 1419 
C 301 1419 294 1413 294 1285 
L 294 -1 
C 294 -115 301 -122 339 -122 
C 384 -122 397 -90 486 108 
C 493 127 493 140 614 381 
C 934 -39 1472 -128 1779 -128 
C 2477 -128 2970 451 2970 1124 
C 2970 1454 2848 1708 2778 1823 
C 2509 2230 2221 2306 1914 2382 
C 1869 2402 1856 2402 1498 2490 
C 1152 2579 1005 2624 845 2796 
C 666 2992 602 3196 602 3399 
C 602 3812 934 4263 1478 4263 
C 2157 4263 2579 3786 2675 2993 
C 2694 2878 2701 2872 2746 2872 
C 2803 2872 2803 2891 2803 2999 
L 2803 4290 
z
" transform="scale(0.015625)"/>
      <path id="CMR17-74" d="M 966 2560 
L 1862 2560 
L 1862 2725 
L 966 2725 
L 966 3904 
L 851 3904 
C 838 3245 614 2668 70 2668 
L 70 2560 
L 627 2560 
L 627 771 
C 627 650 627 -64 1370 -64 
C 1747 -64 1965 306 1965 777 
L 1965 1140 
L 1850 1140 
L 1850 783 
C 1850 344 1677 51 1408 51 
C 1222 51 966 178 966 758 
L 966 2560 
z
" transform="scale(0.015625)"/>
      <path id="CMR17-65" d="M 2438 1472 
C 2464 1498 2464 1511 2464 1576 
C 2464 2238 2118 2816 1389 2816 
C 710 2816 173 2169 173 1383 
C 173 551 781 -64 1459 -64 
C 2176 -64 2458 607 2458 740 
C 2458 784 2419 784 2406 784 
C 2362 784 2355 771 2330 696 
C 2189 265 1837 51 1504 51 
C 1229 51 954 203 781 480 
C 582 803 582 1176 582 1472 
L 2438 1472 
z
M 589 1568 
C 634 2505 1126 2714 1382 2714 
C 1818 2714 2112 2297 2118 1568 
L 589 1568 
z
" transform="scale(0.015625)"/>
      <path id="CMR17-72" d="M 960 1497 
C 960 2112 1222 2688 1702 2688 
C 1747 2688 1792 2682 1837 2662 
C 1837 2662 1696 2617 1696 2452 
C 1696 2298 1818 2234 1914 2234 
C 1990 2234 2131 2279 2131 2458 
C 2131 2663 1926 2790 1709 2790 
C 1222 2790 1011 2317 947 2093 
L 941 2093 
L 941 2790 
L 198 2720 
L 198 2554 
C 576 2554 634 2515 634 2208 
L 634 428 
C 634 184 608 153 198 153 
L 198 -13 
C 352 0 646 0 813 0 
C 998 0 1325 0 1498 -13 
L 1498 153 
C 1037 153 960 153 960 440 
L 960 1497 
z
" transform="scale(0.015625)"/>
      <path id="CMR17-6f" d="M 2758 1356 
C 2758 2176 2163 2816 1466 2816 
C 768 2816 173 2176 173 1356 
C 173 551 768 -64 1466 -64 
C 2163 -64 2758 551 2758 1356 
z
M 1466 51 
C 1165 51 909 230 762 480 
C 602 767 582 1126 582 1408 
C 582 1677 595 2010 762 2298 
C 890 2509 1139 2714 1466 2714 
C 1754 2714 1997 2554 2150 2330 
C 2349 2029 2349 1607 2349 1408 
C 2349 1158 2336 775 2163 467 
C 1984 173 1709 51 1466 51 
z
" transform="scale(0.015625)"/>
      <path id="CMR17-67" d="M 710 1164 
C 832 1068 1043 960 1299 960 
C 1805 960 2240 1357 2240 1888 
C 2240 2054 2189 2310 1997 2509 
C 2176 2692 2438 2752 2586 2752 
C 2611 2752 2650 2752 2682 2734 
C 2656 2728 2598 2703 2598 2605 
C 2598 2527 2656 2471 2739 2471 
C 2835 2471 2886 2533 2886 2614 
C 2886 2731 2790 2854 2586 2854 
C 2330 2854 2106 2738 1926 2580 
C 1734 2753 1504 2816 1299 2816 
C 794 2816 358 2419 358 1888 
C 358 1522 570 1292 634 1228 
C 442 1004 442 743 442 711 
C 442 545 506 302 723 168 
C 390 85 128 -169 128 -486 
C 128 -943 736 -1280 1466 -1280 
C 2170 -1280 2803 -956 2803 -479 
C 2803 384 1856 384 1363 384 
C 1216 384 954 384 922 391 
C 723 423 589 602 589 826 
C 589 883 589 1024 710 1164 
z
M 1299 1068 
C 736 1068 736 1760 736 1889 
C 736 2016 736 2708 1299 2708 
C 1862 2708 1862 2016 1862 1889 
C 1862 1760 1862 1068 1299 1068 
z
M 1466 -1171 
C 826 -1171 384 -835 384 -486 
C 384 -289 493 -105 634 -4 
C 794 104 858 104 1293 104 
C 1818 104 2547 104 2547 -486 
C 2547 -835 2106 -1171 1466 -1171 
z
" transform="scale(0.015625)"/>
      <path id="CMR17-61" d="M 2304 1653 
C 2304 2072 2304 2294 2035 2543 
C 1798 2752 1523 2816 1306 2816 
C 800 2816 435 2407 435 1971 
C 435 1728 627 1728 666 1728 
C 749 1728 896 1778 896 1954 
C 896 2112 774 2181 666 2181 
C 640 2181 608 2174 589 2168 
C 723 2592 1069 2714 1293 2714 
C 1613 2714 1965 2429 1965 1885 
L 1965 1600 
C 1587 1600 1133 1549 774 1357 
C 371 1133 256 813 256 570 
C 256 77 832 -64 1171 -64 
C 1523 -64 1850 139 1990 511 
C 2003 233 2182 -18 2464 -18 
C 2598 -18 2938 70 2938 567 
L 2938 920 
L 2822 920 
L 2822 562 
C 2822 178 2650 128 2566 128 
C 2304 128 2304 458 2304 738 
L 2304 1653 
z
M 1965 870 
C 1965 317 1568 38 1216 38 
C 896 38 646 275 646 570 
C 646 761 730 1100 1101 1305 
C 1408 1478 1760 1504 1965 1504 
L 1965 870 
z
" transform="scale(0.015625)"/>
      <path id="CMR17-70" d="M 1408 -1063 
C 998 -1063 973 -1037 973 -789 
L 973 402 
C 1158 134 1427 -38 1766 -38 
C 2406 -38 3053 523 3053 1388 
C 3053 2191 2496 2802 1837 2802 
C 1453 2802 1139 2592 960 2338 
L 960 2802 
L 198 2732 
L 198 2567 
C 576 2567 634 2528 634 2223 
L 634 -789 
C 634 -1031 608 -1063 198 -1063 
L 198 -1228 
C 352 -1216 634 -1216 800 -1216 
C 966 -1216 1254 -1216 1408 -1228 
L 1408 -1063 
z
M 973 2012 
C 973 2102 973 2235 1222 2471 
C 1254 2497 1472 2688 1792 2688 
C 2259 2688 2643 2108 2643 1382 
C 2643 656 2234 64 1728 64 
C 1498 64 1248 172 1056 472 
C 973 612 973 650 973 752 
L 973 2012 
z
" transform="scale(0.015625)"/>
      <path id="CMR17-68" d="M 2656 1933 
C 2656 2259 2592 2790 1837 2790 
C 1312 2790 1056 2368 979 2157 
L 973 2157 
L 973 4396 
L 211 4326 
L 211 4160 
C 589 4160 646 4122 646 3817 
L 646 426 
C 646 184 621 153 211 153 
L 211 -13 
C 365 0 646 0 813 0 
C 979 0 1267 0 1421 -13 
L 1421 153 
C 1011 153 986 178 986 428 
L 986 1658 
C 986 2247 1344 2688 1792 2688 
C 2266 2688 2317 2266 2317 1958 
L 2317 428 
C 2317 184 2291 153 1882 153 
L 1882 -13 
C 2035 0 2317 0 2483 0 
C 2650 0 2938 0 3091 -13 
L 3091 153 
C 2682 153 2656 178 2656 428 
L 2656 1933 
z
" transform="scale(0.015625)"/>
      <path id="CMR17-69" d="M 992 3909 
C 992 4049 877 4170 730 4170 
C 589 4170 467 4056 467 3909 
C 467 3769 582 3648 730 3648 
C 870 3648 992 3763 992 3909 
z
M 243 2706 
L 243 2541 
C 602 2541 653 2502 653 2197 
L 653 427 
C 653 184 627 153 218 153 
L 218 -13 
C 371 0 646 0 806 0 
C 960 0 1222 0 1370 -13 
L 1370 153 
C 992 153 979 191 979 420 
L 979 2776 
L 243 2706 
z
" transform="scale(0.015625)"/>
      <path id="CMR17-63" d="M 2234 2240 
C 2112 2240 1933 2240 1933 2017 
C 1933 1838 2080 1787 2163 1787 
C 2208 1787 2394 1807 2394 2024 
C 2394 2467 1958 2803 1466 2803 
C 787 2803 211 2178 211 1363 
C 211 516 813 -64 1466 -64 
C 2259 -64 2458 677 2458 748 
C 2458 774 2451 793 2406 793 
C 2362 793 2355 787 2330 703 
C 2163 180 1798 51 1523 51 
C 1114 51 621 427 621 1369 
C 621 2338 1094 2688 1472 2688 
C 1722 2688 2093 2573 2234 2240 
z
" transform="scale(0.015625)"/>
      <path id="CMR17-50" d="M 1267 2042 
L 2291 2042 
C 3117 2042 3718 2578 3718 3184 
C 3718 3791 3130 4352 2291 4352 
L 333 4352 
L 333 4186 
C 774 4186 845 4186 845 3899 
L 845 446 
C 845 160 774 160 333 160 
L 333 0 
C 518 0 858 0 1056 0 
C 1254 0 1594 0 1779 0 
L 1779 160 
C 1338 160 1267 160 1267 446 
L 1267 2042 
z
M 1254 2176 
L 1254 3938 
C 1254 4155 1267 4186 1523 4186 
L 2170 4186 
C 2995 4186 3232 3714 3232 3184 
C 3232 2604 2950 2176 2170 2176 
L 1254 2176 
z
" transform="scale(0.015625)"/>
      <path id="CMR17-6a" d="M 1165 3963 
C 1165 4103 1050 4224 902 4224 
C 762 4224 640 4110 640 3963 
C 640 3823 755 3702 902 3702 
C 1043 3702 1165 3817 1165 3963 
z
M 365 2754 
L 365 2588 
C 787 2588 838 2543 838 2235 
L 838 -359 
C 838 -678 781 -1178 403 -1178 
C 358 -1178 186 -1178 45 -1082 
C 90 -1075 250 -1031 250 -851 
C 250 -729 166 -621 19 -621 
C -122 -621 -211 -717 -211 -858 
C -211 -1114 70 -1280 397 -1280 
C 838 -1280 1165 -877 1165 -332 
L 1165 2825 
L 365 2754 
z
" transform="scale(0.015625)"/>
      <path id="CMR17-6e" d="M 2656 1933 
C 2656 2259 2592 2790 1837 2790 
C 1331 2790 1069 2400 973 2144 
L 966 2144 
L 966 2790 
L 211 2720 
L 211 2554 
C 589 2554 646 2515 646 2208 
L 646 428 
C 646 184 621 153 211 153 
L 211 -13 
C 365 0 646 0 813 0 
C 979 0 1267 0 1421 -13 
L 1421 153 
C 1011 153 986 178 986 428 
L 986 1658 
C 986 2247 1344 2688 1792 2688 
C 2266 2688 2317 2266 2317 1958 
L 2317 428 
C 2317 184 2291 153 1882 153 
L 1882 -13 
C 2035 0 2317 0 2483 0 
C 2650 0 2938 0 3091 -13 
L 3091 153 
C 2682 153 2656 178 2656 428 
L 2656 1933 
z
" transform="scale(0.015625)"/>
      <path id="MSBM10-53" d="M 461 694 
L 467 694 
C 467 694 563 542 762 352 
C 666 352 557 339 461 283 
L 461 694 
z
M 1344 1976 
C 1843 1759 2522 1470 2522 879 
C 2522 424 2323 160 1690 160 
C 1357 160 1075 339 851 570 
C 474 954 461 1299 461 1440 
C 461 1498 410 1549 352 1549 
C 237 1549 237 1447 237 1338 
L 237 147 
C 237 39 237 -64 352 -64 
C 397 -64 416 -44 448 -2 
C 557 108 672 128 755 128 
C 922 128 1075 67 1133 39 
C 1395 -64 1581 -64 1683 -64 
C 2605 -64 3392 404 3392 1246 
C 3392 1784 3066 2362 2150 2722 
C 1581 2953 947 3204 947 3653 
C 947 4006 1197 4308 1651 4308 
C 2112 4308 2733 3828 2854 3290 
C 2874 3200 2886 3136 2976 3136 
C 3085 3136 3085 3239 3085 3348 
L 3085 4320 
C 3085 4429 3085 4532 2976 4532 
C 2925 4532 2899 4500 2874 4480 
C 2816 4423 2726 4352 2566 4352 
C 2406 4352 2259 4404 2182 4429 
C 1978 4506 1830 4532 1638 4532 
C 768 4532 186 4102 186 3248 
C 186 2831 358 2394 1344 1976 
z
M 2861 3808 
C 2816 3879 2758 3943 2579 4128 
C 2752 4128 2854 4179 2861 4185 
L 2861 3808 
z
M 2650 403 
C 2739 588 2746 844 2746 889 
C 2746 1561 2080 1913 1581 2124 
C 979 2380 410 2649 410 3251 
C 410 3551 493 3916 838 4115 
L 845 4108 
C 730 3923 723 3705 723 3654 
C 723 3071 1427 2777 2003 2547 
C 2240 2451 2566 2323 2816 2067 
C 3021 1843 3168 1599 3168 1254 
C 3168 755 2842 505 2650 403 
z
" transform="scale(0.015625)"/>
     </defs>
     <use xlink:href="#CMR17-53" transform="scale(0.996264)"/>
     <use xlink:href="#CMR17-74" transform="translate(50.89537 0) scale(0.996264)"/>
     <use xlink:href="#CMR17-65" transform="translate(86.176138 0) scale(0.996264)"/>
     <use xlink:href="#CMR17-72" transform="translate(126.661798 0) scale(0.996264)"/>
     <use xlink:href="#CMR17-65" transform="translate(161.942566 0) scale(0.996264)"/>
     <use xlink:href="#CMR17-6f" transform="translate(202.428226 0) scale(0.996264)"/>
     <use xlink:href="#CMR17-67" transform="translate(248.118703 0) scale(0.996264)"/>
     <use xlink:href="#CMR17-72" transform="translate(293.809181 0) scale(0.996264)"/>
     <use xlink:href="#CMR17-61" transform="translate(329.089948 0) scale(0.996264)"/>
     <use xlink:href="#CMR17-70" transform="translate(374.780425 0) scale(0.996264)"/>
     <use xlink:href="#CMR17-68" transform="translate(425.675795 0) scale(0.996264)"/>
     <use xlink:href="#CMR17-69" transform="translate(476.571165 0) scale(0.996264)"/>
     <use xlink:href="#CMR17-63" transform="translate(501.442223 0) scale(0.996264)"/>
     <use xlink:href="#CMR17-50" transform="translate(572.00385 0) scale(0.996264)"/>
     <use xlink:href="#CMR17-72" transform="translate(634.590151 0) scale(0.996264)"/>
     <use xlink:href="#CMR17-6f" transform="translate(669.870919 0) scale(0.996264)"/>
     <use xlink:href="#CMR17-6a" transform="translate(720.766197 0) scale(0.996264)"/>
     <use xlink:href="#CMR17-65" transform="translate(748.23971 0) scale(0.996264)"/>
     <use xlink:href="#CMR17-63" transform="translate(788.72537 0) scale(0.996264)"/>
     <use xlink:href="#CMR17-74" transform="translate(829.211031 0) scale(0.996264)"/>
     <use xlink:href="#CMR17-69" transform="translate(864.491798 0) scale(0.996264)"/>
     <use xlink:href="#CMR17-6f" transform="translate(889.362857 0) scale(0.996264)"/>
     <use xlink:href="#CMR17-6e" transform="translate(935.053334 0) scale(0.996264)"/>
     <use xlink:href="#CMR17-6f" transform="translate(1016.02467 0) scale(0.996264)"/>
     <use xlink:href="#CMR17-6e" transform="translate(1061.715147 0) scale(0.996264)"/>
     <use xlink:href="#MSBM10-53" transform="translate(1142.686483 0) scale(0.996264)"/>
     <use xlink:href="#CMR17-32" transform="translate(1198.034653 36.153639) scale(0.697382)"/>
    </g>
   </g>
  </g>
 </g>
 <defs>
  <clipPath id="p09d238229a">
   <rect x="55.08" y="51.84" width="332.64" height="332.64"/>
  </clipPath>
 </defs>
</svg>
